<svg width="36" height="36" viewBox="0 0 36 36" fill="none" xmlns="http://www.w3.org/2000/svg">
<g clip-path="url(#clip0_2768_1955)">
<path d="M32.9062 12.3919C32.5895 12.0329 32.1999 11.7454 31.7635 11.5485C31.3271 11.3517 30.8538 11.2499 30.375 11.25H22.5V9C22.5 7.50816 21.9074 6.07742 20.8525 5.02252C19.7976 3.96763 18.3668 3.375 16.875 3.375C16.666 3.37485 16.4611 3.43293 16.2832 3.54271C16.1054 3.6525 15.9617 3.80966 15.8681 3.99656L10.5553 14.625H4.5C3.90326 14.625 3.33097 14.8621 2.90901 15.284C2.48705 15.706 2.25 16.2783 2.25 16.875V29.25C2.25 29.8467 2.48705 30.419 2.90901 30.841C3.33097 31.2629 3.90326 31.5 4.5 31.5H28.6875C29.5097 31.5003 30.3038 31.2004 30.9206 30.6566C31.5373 30.1129 31.9344 29.3627 32.0372 28.5469L33.7247 15.0469C33.7845 14.5716 33.7424 14.089 33.6013 13.6313C33.4602 13.1735 33.2233 12.751 32.9062 12.3919ZM4.5 16.875H10.125V29.25H4.5V16.875Z" fill="#19B97F"/>
</g>
<defs>
<clipPath id="clip0_2768_1955">
<rect width="36" height="36" fill="white"/>
</clipPath>
</defs>
</svg>
