<svg width="36" height="36" viewBox="0 0 36 36" fill="none" xmlns="http://www.w3.org/2000/svg">
<g clip-path="url(#clip0_2768_1950)">
<path d="M29.2499 20.25C29.2527 20.7087 29.1133 21.157 28.8509 21.5332C28.5885 21.9095 28.216 22.1951 27.7845 22.3509L20.5213 25.0228L17.8494 32.2805C17.6912 32.7103 17.4049 33.0813 17.0292 33.3433C16.6535 33.6054 16.2065 33.7459 15.7485 33.7459C15.2904 33.7459 14.8434 33.6054 14.4677 33.3433C14.092 33.0813 13.8057 32.7103 13.6475 32.2805L10.9686 25.0312L3.70954 22.3594C3.2797 22.2011 2.90872 21.9149 2.64668 21.5392C2.38464 21.1635 2.24414 20.7165 2.24414 20.2584C2.24414 19.8004 2.38464 19.3534 2.64668 18.9777C2.90872 18.602 3.2797 18.3157 3.70954 18.1575L10.9728 15.4856L13.6447 8.22797C13.8029 7.79812 14.0892 7.42715 14.4649 7.1651C14.8406 6.90306 15.2876 6.76256 15.7456 6.76256C16.2037 6.76256 16.6507 6.90306 17.0264 7.1651C17.4021 7.42715 17.6883 7.79812 17.8466 8.22797L20.5184 15.4912L27.7761 18.1631C28.2069 18.3167 28.5796 18.5996 28.8434 18.9732C29.1072 19.3468 29.2492 19.7927 29.2499 20.25ZM21.3749 6.75H23.6249V9C23.6249 9.29837 23.7434 9.58452 23.9544 9.79549C24.1653 10.0065 24.4515 10.125 24.7499 10.125C25.0482 10.125 25.3344 10.0065 25.5454 9.79549C25.7563 9.58452 25.8749 9.29837 25.8749 9V6.75H28.1249C28.4232 6.75 28.7094 6.63147 28.9204 6.42049C29.1313 6.20952 29.2499 5.92337 29.2499 5.625C29.2499 5.32663 29.1313 5.04048 28.9204 4.8295C28.7094 4.61853 28.4232 4.5 28.1249 4.5H25.8749V2.25C25.8749 1.95163 25.7563 1.66548 25.5454 1.4545C25.3344 1.24353 25.0482 1.125 24.7499 1.125C24.4515 1.125 24.1653 1.24353 23.9544 1.4545C23.7434 1.66548 23.6249 1.95163 23.6249 2.25V4.5H21.3749C21.0765 4.5 20.7903 4.61853 20.5794 4.8295C20.3684 5.04048 20.2499 5.32663 20.2499 5.625C20.2499 5.92337 20.3684 6.20952 20.5794 6.42049C20.7903 6.63147 21.0765 6.75 21.3749 6.75ZM33.7499 11.25H32.6249V10.125C32.6249 9.82663 32.5063 9.54048 32.2953 9.3295C32.0844 9.11853 31.7982 9 31.4999 9C31.2015 9 30.9153 9.11853 30.7044 9.3295C30.4934 9.54048 30.3749 9.82663 30.3749 10.125V11.25H29.2499C28.9515 11.25 28.6653 11.3685 28.4544 11.5795C28.2434 11.7905 28.1249 12.0766 28.1249 12.375C28.1249 12.6734 28.2434 12.9595 28.4544 13.1705C28.6653 13.3815 28.9515 13.5 29.2499 13.5H30.3749V14.625C30.3749 14.9234 30.4934 15.2095 30.7044 15.4205C30.9153 15.6315 31.2015 15.75 31.4999 15.75C31.7982 15.75 32.0844 15.6315 32.2953 15.4205C32.5063 15.2095 32.6249 14.9234 32.6249 14.625V13.5H33.7499C34.0482 13.5 34.3344 13.3815 34.5453 13.1705C34.7563 12.9595 34.8749 12.6734 34.8749 12.375C34.8749 12.0766 34.7563 11.7905 34.5453 11.5795C34.3344 11.3685 34.0482 11.25 33.7499 11.25Z" fill="#8E49FF"/>
</g>
<defs>
<clipPath id="clip0_2768_1950">
<rect width="36" height="36" fill="white"/>
</clipPath>
</defs>
</svg>
