<svg width="36" height="36" viewBox="0 0 36 36" fill="none" xmlns="http://www.w3.org/2000/svg">
<g clip-path="url(#clip0_2768_1961)">
<path d="M32.6254 19.2177C32.3864 21.9964 31.3587 24.6491 29.6633 26.8636C27.9679 29.0781 25.6753 30.7623 23.0553 31.7181C20.4352 32.6739 17.5966 32.8615 14.8735 32.2589C12.1504 31.6562 9.65612 30.2884 7.68402 28.3163C5.71191 26.3442 4.34407 23.8499 3.74142 21.1268C3.13878 18.4037 3.32639 15.5651 4.28219 12.9451C5.23799 10.325 6.92221 8.03237 9.13671 6.33698C11.3512 4.64159 14.0039 3.61393 16.7826 3.37492C16.9303 3.36273 17.079 3.37976 17.2202 3.42503C17.3613 3.47031 17.4922 3.54294 17.6053 3.63879C17.7183 3.73464 17.8114 3.85182 17.8792 3.98365C17.947 4.11548 17.9882 4.25937 18.0004 4.4071C18.0126 4.55484 17.9956 4.70353 17.9503 4.84469C17.905 4.98584 17.8324 5.1167 17.7365 5.22978C17.6407 5.34287 17.5235 5.43597 17.3917 5.50376C17.2598 5.57156 17.1159 5.61273 16.9682 5.62492C14.6164 5.82699 12.3712 6.69657 10.4968 8.13136C8.62241 9.56616 7.19682 11.5065 6.38776 13.724C5.57869 15.9415 5.41982 18.3439 5.92983 20.6487C6.43983 22.9534 7.5975 25.0646 9.26663 26.7337C10.9358 28.4028 13.0469 29.5605 15.3516 30.0705C17.6564 30.5805 20.0588 30.4216 22.2763 29.6126C24.4939 28.8035 26.4342 27.3779 27.8689 25.5035C29.3037 23.6291 30.1733 21.3839 30.3754 19.0321C30.4 18.7337 30.5421 18.4574 30.7705 18.2638C30.9989 18.0702 31.2948 17.9753 31.5932 17.9999C31.8916 18.0245 32.1679 18.1667 32.3615 18.395C32.5551 18.6234 32.65 18.9194 32.6254 19.2177ZM22.5004 6.74992C22.8342 6.74992 23.1604 6.65095 23.4379 6.46552C23.7154 6.2801 23.9317 6.01654 24.0594 5.70819C24.1872 5.39984 24.2206 5.06054 24.1555 4.7332C24.0904 4.40586 23.9296 4.10517 23.6936 3.86917C23.4576 3.63317 23.1569 3.47245 22.8296 3.40734C22.5023 3.34223 22.163 3.37565 21.8546 3.50337C21.5463 3.63109 21.2827 3.84738 21.0973 4.12489C20.9119 4.4024 20.8129 4.72866 20.8129 5.06242C20.8129 5.50997 20.9907 5.93919 21.3072 6.25566C21.6236 6.57213 22.0528 6.74992 22.5004 6.74992ZM27.5629 10.1249C27.8967 10.1249 28.2229 10.0259 28.5004 9.84052C28.7779 9.6551 28.9942 9.39154 29.1219 9.08319C29.2497 8.77484 29.2831 8.43554 29.218 8.1082C29.1529 7.78086 28.9921 7.48017 28.7561 7.24417C28.5201 7.00817 28.2194 6.84745 27.8921 6.78234C27.5648 6.71723 27.2255 6.75065 26.9171 6.87837C26.6088 7.00609 26.3452 7.22238 26.1598 7.49989C25.9744 7.7774 25.8754 8.10366 25.8754 8.43742C25.8754 8.88497 26.0532 9.31419 26.3697 9.63066C26.6861 9.94713 27.1153 10.1249 27.5629 10.1249ZM30.9379 15.1874C31.2717 15.1874 31.5979 15.0884 31.8754 14.903C32.1529 14.7176 32.3692 14.454 32.4969 14.1457C32.6247 13.8373 32.6581 13.498 32.593 13.1707C32.5279 12.8434 32.3671 12.5427 32.1311 12.3067C31.8951 12.0707 31.5944 11.91 31.2671 11.8448C30.9398 11.7797 30.6005 11.8131 30.2921 11.9409C29.9838 12.0686 29.7202 12.2849 29.5348 12.5624C29.3494 12.8399 29.2504 13.1662 29.2504 13.4999C29.2504 13.9475 29.4282 14.3767 29.7447 14.6932C30.0611 15.0096 30.4903 15.1874 30.9379 15.1874ZM18.0004 7.87492C20.0029 7.87492 21.9605 8.46874 23.6255 9.58129C25.2906 10.6938 26.5883 12.2751 27.3547 14.1252C28.121 15.9753 28.3215 18.0111 27.9308 19.9752C27.5402 21.9393 26.5759 23.7434 25.1598 25.1594C23.7438 26.5754 21.9397 27.5397 19.9757 27.9304C18.0116 28.321 15.9758 28.1205 14.1257 27.3542C12.2756 26.5879 10.6943 25.2901 9.58176 23.6251C8.46921 21.96 7.87539 20.0025 7.87539 17.9999C7.87837 15.3155 8.94607 12.7419 10.8442 10.8437C12.7424 8.94559 15.316 7.87789 18.0004 7.87492ZM16.8754 17.9999C16.8754 18.2983 16.9939 18.5844 17.2049 18.7954C17.4159 19.0064 17.702 19.1249 18.0004 19.1249H24.7504C25.0488 19.1249 25.3349 19.0064 25.5459 18.7954C25.7569 18.5844 25.8754 18.2983 25.8754 17.9999C25.8754 17.7015 25.7569 17.4154 25.5459 17.2044C25.3349 16.9934 25.0488 16.8749 24.7504 16.8749H19.1254V11.2499C19.1254 10.9515 19.0069 10.6654 18.7959 10.4544C18.5849 10.2434 18.2988 10.1249 18.0004 10.1249C17.702 10.1249 17.4159 10.2434 17.2049 10.4544C16.9939 10.6654 16.8754 10.9515 16.8754 11.2499V17.9999Z" fill="#E39725"/>
</g>
<defs>
<clipPath id="clip0_2768_1961">
<rect width="36" height="36" fill="white"/>
</clipPath>
</defs>
</svg>
