<svg width="24" height="24" viewBox="0 0 24 24" fill="none" xmlns="http://www.w3.org/2000/svg">
<g clip-path="url(#clip0_52_3201)">
<path opacity="0.2" d="M10.5 18C14.6421 18 18 14.6421 18 10.5C18 6.35786 14.6421 3 10.5 3C6.35786 3 3 6.35786 3 10.5C3 14.6421 6.35786 18 10.5 18Z" fill="#BB92FF"/>
<path d="M10.5 18C14.6421 18 18 14.6421 18 10.5C18 6.35786 14.6421 3 10.5 3C6.35786 3 3 6.35786 3 10.5C3 14.6421 6.35786 18 10.5 18Z" stroke="#8E49FF" stroke-width="2" stroke-linecap="round" stroke-linejoin="round"/>
<path d="M15.8037 15.8035L21.0003 21" stroke="#8E49FF" stroke-width="2" stroke-linecap="round" stroke-linejoin="round"/>
</g>
<defs>
<clipPath id="clip0_52_3201">
<rect width="24" height="24" fill="white"/>
</clipPath>
</defs>
</svg>
