<svg width="40" height="40" viewBox="0 0 40 40" fill="none" xmlns="http://www.w3.org/2000/svg">
<path d="M39.5 21.6238C39.1813 25.3287 37.8111 28.8656 35.5506 31.8182C33.2901 34.7709 30.2333 37.0165 26.7398 38.2909C23.2464 39.5653 19.4616 39.8155 15.8308 39.012C12.2001 38.2084 8.8743 36.3846 6.24484 33.7552C3.61537 31.1257 1.79158 27.7999 0.988047 24.1692C0.184515 20.5384 0.434663 16.7536 1.70906 13.2602C2.98346 9.76674 5.2291 6.70994 8.18177 4.44942C11.1344 2.18889 14.6713 0.818686 18.3763 0.5C18.5732 0.483749 18.7715 0.506455 18.9597 0.566823C19.1479 0.627191 19.3224 0.724038 19.4732 0.851835C19.6239 0.979632 19.7481 1.13587 19.8385 1.31164C19.9289 1.48741 19.9838 1.67927 20 1.87625C20.0163 2.07323 19.9935 2.27149 19.9332 2.45969C19.8728 2.6479 19.776 2.82238 19.6482 2.97316C19.5204 3.12393 19.3641 3.24807 19.1884 3.33846C19.0126 3.42886 18.8207 3.48375 18.6238 3.5C15.488 3.76943 12.4944 4.92888 9.99521 6.84193C7.49603 8.75499 5.59524 11.3421 4.51649 14.2987C3.43774 17.2554 3.2259 20.4587 3.90591 23.5317C4.58592 26.6047 6.12949 29.4195 8.35498 31.645C10.5805 33.8705 13.3953 35.4141 16.4683 36.0941C19.5413 36.7741 22.7446 36.5623 25.7013 35.4835C28.6579 34.4048 31.245 32.504 33.1581 30.0048C35.0711 27.5056 36.2306 24.512 36.5 21.3762C36.5328 20.9784 36.7223 20.6099 37.0268 20.3518C37.3314 20.0937 37.7259 19.9672 38.1237 20C38.5216 20.0328 38.8901 20.2223 39.1482 20.5268C39.4063 20.8314 39.5328 21.2259 39.5 21.6238ZM26 5C26.445 5 26.88 4.86804 27.25 4.62081C27.62 4.37357 27.9084 4.02217 28.0787 3.61104C28.249 3.1999 28.2936 2.7475 28.2068 2.31105C28.1199 1.87459 27.9057 1.47368 27.591 1.15901C27.2763 0.844341 26.8754 0.63005 26.439 0.543233C26.0025 0.456416 25.5501 0.500974 25.139 0.671271C24.7278 0.841568 24.3764 1.12996 24.1292 1.49997C23.882 1.86998 23.75 2.30499 23.75 2.75C23.75 3.34674 23.9871 3.91903 24.409 4.34099C24.831 4.76295 25.4033 5 26 5ZM32.75 9.5C33.195 9.5 33.63 9.36804 34 9.12081C34.37 8.87357 34.6584 8.52217 34.8287 8.11104C34.999 7.6999 35.0436 7.2475 34.9568 6.81105C34.8699 6.37459 34.6557 5.97368 34.341 5.65901C34.0263 5.34434 33.6254 5.13005 33.189 5.04323C32.7525 4.95642 32.3001 5.00097 31.889 5.17127C31.4778 5.34157 31.1264 5.62996 30.8792 5.99997C30.632 6.36998 30.5 6.80499 30.5 7.25C30.5 7.84674 30.7371 8.41903 31.159 8.84099C31.581 9.26295 32.1533 9.5 32.75 9.5ZM37.25 16.25C37.695 16.25 38.13 16.118 38.5 15.8708C38.87 15.6236 39.1584 15.2722 39.3287 14.861C39.499 14.4499 39.5436 13.9975 39.4568 13.561C39.3699 13.1246 39.1557 12.7237 38.841 12.409C38.5263 12.0943 38.1254 11.88 37.6889 11.7932C37.2525 11.7064 36.8001 11.751 36.389 11.9213C35.9778 12.0916 35.6264 12.38 35.3792 12.75C35.132 13.12 35 13.555 35 14C35 14.5967 35.2371 15.169 35.659 15.591C36.081 16.0129 36.6533 16.25 37.25 16.25ZM20 6.5C22.67 6.5 25.2801 7.29176 27.5002 8.77516C29.7203 10.2586 31.4506 12.367 32.4724 14.8338C33.4942 17.3006 33.7615 20.015 33.2406 22.6337C32.7197 25.2525 31.4339 27.6579 29.5459 29.5459C27.6579 31.4339 25.2525 32.7197 22.6337 33.2406C20.015 33.7615 17.3006 33.4942 14.8338 32.4724C12.367 31.4506 10.2586 29.7203 8.77516 27.5002C7.29176 25.2801 6.5 22.67 6.5 20C6.50397 16.4208 7.92757 12.9893 10.4584 10.4584C12.9893 7.92756 16.4208 6.50397 20 6.5ZM18.5 20C18.5 20.3978 18.658 20.7794 18.9393 21.0607C19.2206 21.342 19.6022 21.5 20 21.5H29C29.3978 21.5 29.7794 21.342 30.0607 21.0607C30.342 20.7794 30.5 20.3978 30.5 20C30.5 19.6022 30.342 19.2206 30.0607 18.9393C29.7794 18.658 29.3978 18.5 29 18.5H21.5V11C21.5 10.6022 21.342 10.2206 21.0607 9.93934C20.7794 9.65804 20.3978 9.5 20 9.5C19.6022 9.5 19.2206 9.65804 18.9393 9.93934C18.658 10.2206 18.5 10.6022 18.5 11V20Z" fill="white"/>
</svg>
