<svg width="48" height="48" viewBox="0 0 48 48" fill="none" xmlns="http://www.w3.org/2000/svg">
<g clip-path="url(#clip0_52_3196)">
<path d="M38.9998 27C39.0036 27.6116 38.8178 28.2093 38.4679 28.711C38.118 29.2126 37.6213 29.5935 37.0461 29.8012L27.3617 33.3637L23.7992 43.0406C23.5882 43.6138 23.2065 44.1084 22.7056 44.4578C22.2047 44.8072 21.6087 44.9945 20.9979 44.9945C20.3872 44.9945 19.7912 44.8072 19.2903 44.4578C18.7893 44.1084 18.4077 43.6138 18.1967 43.0406L14.6248 33.375L4.94606 29.8125C4.37293 29.6015 3.8783 29.2198 3.52891 28.7189C3.17952 28.218 2.99219 27.622 2.99219 27.0112C2.99219 26.4005 3.17952 25.8045 3.52891 25.3036C3.8783 24.8027 4.37293 24.421 4.94606 24.21L14.6304 20.6475L18.1929 10.9706C18.4039 10.3975 18.7856 9.90286 19.2865 9.55347C19.7874 9.20408 20.3835 9.01675 20.9942 9.01675C21.6049 9.01675 22.2009 9.20408 22.7019 9.55347C23.2028 9.90286 23.5845 10.3975 23.7954 10.9706L27.3579 20.655L37.0348 24.2175C37.6091 24.4223 38.1062 24.7995 38.4579 25.2976C38.8096 25.7957 38.9989 26.3902 38.9998 27ZM28.4998 9H31.4998V12C31.4998 12.3978 31.6578 12.7794 31.9391 13.0607C32.2204 13.342 32.602 13.5 32.9998 13.5C33.3976 13.5 33.7792 13.342 34.0605 13.0607C34.3418 12.7794 34.4998 12.3978 34.4998 12V9H37.4998C37.8976 9 38.2792 8.84196 38.5605 8.56066C38.8418 8.27935 38.9998 7.89782 38.9998 7.5C38.9998 7.10217 38.8418 6.72064 38.5605 6.43934C38.2792 6.15803 37.8976 6 37.4998 6H34.4998V3C34.4998 2.60218 34.3418 2.22064 34.0605 1.93934C33.7792 1.65804 33.3976 1.5 32.9998 1.5C32.602 1.5 32.2204 1.65804 31.9391 1.93934C31.6578 2.22064 31.4998 2.60218 31.4998 3V6H28.4998C28.102 6 27.7205 6.15803 27.4391 6.43934C27.1578 6.72064 26.9998 7.10217 26.9998 7.5C26.9998 7.89782 27.1578 8.27935 27.4391 8.56066C27.7205 8.84196 28.102 9 28.4998 9ZM44.9998 15H43.4998V13.5C43.4998 13.1022 43.3418 12.7206 43.0605 12.4393C42.7792 12.158 42.3976 12 41.9998 12C41.602 12 41.2205 12.158 40.9391 12.4393C40.6578 12.7206 40.4998 13.1022 40.4998 13.5V15H38.9998C38.602 15 38.2205 15.158 37.9391 15.4393C37.6578 15.7206 37.4998 16.1022 37.4998 16.5C37.4998 16.8978 37.6578 17.2794 37.9391 17.5607C38.2205 17.842 38.602 18 38.9998 18H40.4998V19.5C40.4998 19.8978 40.6578 20.2794 40.9391 20.5607C41.2205 20.842 41.602 21 41.9998 21C42.3976 21 42.7792 20.842 43.0605 20.5607C43.3418 20.2794 43.4998 19.8978 43.4998 19.5V18H44.9998C45.3976 18 45.7792 17.842 46.0605 17.5607C46.3418 17.2794 46.4998 16.8978 46.4998 16.5C46.4998 16.1022 46.3418 15.7206 46.0605 15.4393C45.7792 15.158 45.3976 15 44.9998 15Z" fill="white"/>
</g>
<defs>
<clipPath id="clip0_52_3196">
<rect width="48" height="48" fill="white"/>
</clipPath>
</defs>
</svg>
