<svg width="21" height="18" viewBox="0 0 21 18" fill="none" xmlns="http://www.w3.org/2000/svg">
<path d="M18 2.25H15.4012L14.1234 0.33375C14.055 0.231142 13.9623 0.147003 13.8535 0.0887865C13.7448 0.0305702 13.6233 7.40671e-05 13.5 0H7.5C7.37665 7.40671e-05 7.25522 0.0305702 7.14648 0.0887865C7.03773 0.147003 6.94502 0.231142 6.87656 0.33375L5.59781 2.25H3C2.40326 2.25 1.83097 2.48705 1.40901 2.90901C0.987053 3.33097 0.75 3.90326 0.75 4.5V15C0.75 15.5967 0.987053 16.169 1.40901 16.591C1.83097 17.0129 2.40326 17.25 3 17.25H18C18.5967 17.25 19.169 17.0129 19.591 16.591C20.0129 16.169 20.25 15.5967 20.25 15V4.5C20.25 3.90326 20.0129 3.33097 19.591 2.90901C19.169 2.48705 18.5967 2.25 18 2.25ZM13.875 9.375C13.875 10.0425 13.6771 10.695 13.3062 11.25C12.9354 11.8051 12.4083 12.2376 11.7916 12.4931C11.1749 12.7485 10.4963 12.8154 9.84157 12.6852C9.18688 12.5549 8.58552 12.2335 8.11351 11.7615C7.64151 11.2895 7.32007 10.6881 7.18985 10.0334C7.05962 9.37874 7.12646 8.70014 7.38191 8.08344C7.63735 7.46674 8.06993 6.93964 8.62495 6.56879C9.17997 6.19794 9.83249 6 10.5 6C11.3951 6 12.2535 6.35558 12.8865 6.98851C13.5194 7.62145 13.875 8.47989 13.875 9.375Z" fill="#646464"/>
</svg>
