<svg width="30" height="30" viewBox="0 0 30 30" fill="none" xmlns="http://www.w3.org/2000/svg">
<path d="M29.625 16.2178C29.386 18.9965 28.3583 21.6492 26.6629 23.8637C24.9675 26.0782 22.6749 27.7624 20.0549 28.7182C17.4348 29.674 14.5962 29.8616 11.8731 29.259C9.15005 28.6563 6.65572 27.2885 4.68362 25.3164C2.71152 23.3443 1.34368 20.8499 0.741028 18.1269C0.138378 15.4038 0.32599 12.5652 1.28179 9.94514C2.23759 7.32506 3.92182 5.03246 6.13632 3.33706C8.35082 1.64167 11.0035 0.614014 13.7822 0.375C13.9299 0.362812 14.0786 0.379842 14.2198 0.425118C14.3609 0.470394 14.4918 0.543029 14.6049 0.638877C14.7179 0.734724 14.811 0.851906 14.8788 0.983733C14.9466 1.11556 14.9878 1.25945 15 1.40719C15.0122 1.55492 14.9952 1.70362 14.9499 1.84477C14.9046 1.98593 14.832 2.11678 14.7361 2.22987C14.6403 2.34295 14.5231 2.43605 14.3913 2.50385C14.2594 2.57164 14.1155 2.61281 13.9678 2.625C11.616 2.82707 9.37078 3.69666 7.4964 5.13145C5.62202 6.56624 4.19642 8.50654 3.38736 10.7241C2.5783 12.9416 2.41942 15.344 2.92943 17.6488C3.43944 19.9535 4.59711 22.0646 6.26623 23.7338C7.93535 25.4029 10.0465 26.5606 12.3512 27.0706C14.656 27.5806 17.0584 27.4217 19.2759 26.6126C21.4935 25.8036 23.4338 24.378 24.8685 22.5036C26.3033 20.6292 27.1729 18.384 27.375 16.0322C27.3996 15.7338 27.5417 15.4574 27.7701 15.2639C27.9985 15.0703 28.2944 14.9754 28.5928 15C28.8912 15.0246 29.1675 15.1667 29.3611 15.3951C29.5547 15.6235 29.6496 15.9194 29.625 16.2178ZM19.5 3.75C19.8338 3.75 20.16 3.65103 20.4375 3.46561C20.715 3.28018 20.9313 3.01663 21.059 2.70828C21.1868 2.39993 21.2202 2.06063 21.1551 1.73329C21.09 1.40594 20.9292 1.10526 20.6932 0.869257C20.4572 0.633256 20.1566 0.472538 19.8292 0.407425C19.5019 0.342312 19.1626 0.375731 18.8542 0.503453C18.5459 0.631176 18.2823 0.847467 18.0969 1.12498C17.9115 1.40248 17.8125 1.72874 17.8125 2.0625C17.8125 2.51005 17.9903 2.93928 18.3068 3.25574C18.6232 3.57221 19.0524 3.75 19.5 3.75ZM24.5625 7.125C24.8963 7.125 25.2225 7.02603 25.5 6.84061C25.7775 6.65518 25.9938 6.39163 26.1215 6.08328C26.2493 5.77493 26.2827 5.43563 26.2176 5.10829C26.1525 4.78094 25.9917 4.48026 25.7557 4.24426C25.5197 4.00826 25.2191 3.84754 24.8917 3.78242C24.5644 3.71731 24.2251 3.75073 23.9167 3.87845C23.6084 4.00618 23.3448 4.22247 23.1594 4.49998C22.974 4.77748 22.875 5.10374 22.875 5.4375C22.875 5.88505 23.0528 6.31428 23.3693 6.63074C23.6857 6.94721 24.1149 7.125 24.5625 7.125ZM27.9375 12.1875C28.2713 12.1875 28.5975 12.0885 28.875 11.9031C29.1525 11.7177 29.3688 11.4541 29.4965 11.1458C29.6243 10.8374 29.6577 10.4981 29.5926 10.1708C29.5275 9.84344 29.3667 9.54276 29.1307 9.30676C28.8947 9.07076 28.5941 8.91004 28.2667 8.84493C27.9394 8.77981 27.6001 8.81323 27.2917 8.94095C26.9834 9.06868 26.7198 9.28497 26.5344 9.56248C26.349 9.83998 26.25 10.1662 26.25 10.5C26.25 10.9476 26.4278 11.3768 26.7443 11.6932C27.0607 12.0097 27.4899 12.1875 27.9375 12.1875ZM15 4.875C17.0025 4.875 18.9601 5.46882 20.6251 6.58137C22.2902 7.69392 23.5879 9.27523 24.3543 11.1253C25.1206 12.9754 25.3211 15.0112 24.9304 16.9753C24.5398 18.9393 23.5755 20.7434 22.1595 22.1595C20.7434 23.5755 18.9393 24.5398 16.9753 24.9305C15.0112 25.3211 12.9754 25.1206 11.1253 24.3543C9.27522 23.5879 7.69392 22.2902 6.58137 20.6251C5.46882 18.9601 4.875 17.0025 4.875 15C4.87797 12.3156 5.94567 9.74199 7.84383 7.84383C9.74199 5.94567 12.3156 4.87798 15 4.875ZM13.875 15C13.875 15.2984 13.9935 15.5845 14.2045 15.7955C14.4155 16.0065 14.7016 16.125 15 16.125H21.75C22.0484 16.125 22.3345 16.0065 22.5455 15.7955C22.7565 15.5845 22.875 15.2984 22.875 15C22.875 14.7016 22.7565 14.4155 22.5455 14.2045C22.3345 13.9935 22.0484 13.875 21.75 13.875H16.125V8.25C16.125 7.95163 16.0065 7.66548 15.7955 7.45451C15.5845 7.24353 15.2984 7.125 15 7.125C14.7016 7.125 14.4155 7.24353 14.2045 7.45451C13.9935 7.66548 13.875 7.95163 13.875 8.25V15Z" fill="#E39725"/>
</svg>
