<svg width="36" height="36" viewBox="0 0 36 36" fill="none" xmlns="http://www.w3.org/2000/svg">
<rect width="36" height="36" rx="8" fill="#F1F1F1"/>
<path d="M14.9998 14.0001V12C14.9998 11.4696 15.2106 10.9609 15.5856 10.5858C15.9607 10.2107 16.4694 10 16.9999 10H24C24.5304 10 25.0391 10.2107 25.4142 10.5858C25.7893 10.9609 26 11.4696 26 12V24.0002C26 24.5306 25.7893 25.0394 25.4142 25.4144C25.0391 25.7895 24.5304 26.0002 24 26.0002H16.9999C16.4694 26.0002 15.9607 25.7895 15.5856 25.4144C15.2106 25.0394 14.9998 24.5306 14.9998 24.0002V22.0002" stroke="#5A5A5A" stroke-width="1.5" stroke-linecap="round" stroke-linejoin="round"/>
<path d="M22 18.0003H7.9998L10.9998 15.0002M10.9998 21.0003L7.9998 18.0003" stroke="#5A5A5A" stroke-width="1.5" stroke-linecap="round" stroke-linejoin="round"/>
</svg>
