<svg width="240" height="202" viewBox="0 0 240 202" fill="none" xmlns="http://www.w3.org/2000/svg">
<path fill-rule="evenodd" clip-rule="evenodd" d="M109.404 35.4939C110.91 35.5397 112.452 35.5867 113.945 35.9599C113.771 36.2697 113.508 36.3907 113.251 36.5087C113.153 36.5534 113.057 36.5977 112.967 36.6516C112.275 37.0121 111.581 37.3676 110.887 37.7234C109.756 38.3031 108.624 38.8833 107.497 39.4865C105.678 40.4599 103.91 40.6093 102.164 39.3072C101.643 38.9246 101.103 38.576 100.562 38.2267C100.384 38.112 100.206 37.9972 100.029 37.8812C99.8186 37.763 99.629 37.6142 99.4659 37.4408C99.4783 37.3641 99.4848 37.2853 99.4848 37.205C99.4848 36.3954 98.8285 35.7391 98.0189 35.7391C97.2093 35.7391 96.5529 36.3954 96.5529 37.205C96.5529 38.0146 97.2093 38.6709 98.0189 38.6709C98.2493 38.6709 98.4674 38.6177 98.6614 38.523C98.8166 38.5786 98.9671 38.6481 99.111 38.7308C100.213 39.5078 101.333 40.2635 102.471 40.9978C103.202 41.4718 103.138 41.8133 102.382 42.1677C100.994 42.8166 99.6191 43.4869 98.2485 44.1572C98.0212 44.2961 97.7725 44.3911 97.5151 44.44C97.2673 44.2303 96.9467 44.1039 96.5966 44.1039C95.8108 44.1039 95.1738 44.7409 95.1738 45.5267C95.1738 46.3125 95.8108 46.9495 96.5966 46.9495C97.3112 46.9495 97.9027 46.4227 98.0041 45.7364C98.3022 45.4793 98.6447 45.2751 99.0171 45.1349C100.208 44.5756 101.383 43.9779 102.553 43.3802C103.881 42.6971 104.777 42.9789 105.345 44.3622C106.19 46.4049 107.016 48.4562 107.842 50.5085L107.842 50.5092L107.843 50.5098L107.843 50.5105C108.185 51.3615 108.528 52.2125 108.872 53.0633L108.895 53.1158C109.062 53.5015 109.219 53.8627 108.872 54.263C108.509 54.6814 108.056 54.6301 107.591 54.4807C106.862 54.2476 106.134 54.0145 105.406 53.7815L105.395 53.778L105.388 53.7756L105.387 53.7755L105.387 53.7754L105.387 53.7753C103.616 53.2084 101.849 52.6427 100.08 52.0813C99.722 51.978 99.3947 51.7959 99.1206 51.5517C98.9903 50.6553 98.2186 49.9668 97.2861 49.9668C96.2621 49.9668 95.4321 50.7969 95.4321 51.8208C95.4321 52.8447 96.2621 53.6748 97.2861 53.6748C97.8399 53.6748 98.337 53.4319 98.6767 53.047C98.8472 53.0247 99.0206 53.0345 99.1879 53.0761C100.524 53.503 101.863 53.93 103.202 54.3569C104.54 54.7838 105.879 55.2108 107.215 55.6377C107.732 55.8042 108.189 56.0561 108.249 56.7179C108.271 56.984 108.21 57.2505 108.074 57.4801C107.938 57.7098 107.733 57.8911 107.489 57.9987C107.072 58.2608 106.654 58.5204 106.237 58.7798L106.237 58.7799L106.237 58.7799L106.237 58.78L106.237 58.78L106.237 58.7801L106.237 58.7802C105.295 59.366 104.354 59.9509 103.428 60.5604C103.196 60.7272 102.936 60.8487 102.66 60.919C102.306 60.5464 101.806 60.314 101.252 60.314C100.181 60.314 99.3119 61.1827 99.3119 62.2542C99.3119 62.7239 99.4788 63.1546 99.7565 63.4903C99.9476 63.7437 100.205 63.9419 100.503 64.0613C100.606 64.1042 100.714 64.1325 100.823 64.1469C100.961 64.178 101.105 64.1944 101.252 64.1944C102.324 64.1944 103.192 63.3258 103.192 62.2542C103.192 62.1972 103.19 62.1408 103.185 62.085C103.192 62.0805 103.199 62.0761 103.206 62.0718C103.884 61.652 104.563 61.231 105.242 60.8098L105.243 60.8088L105.245 60.8078L105.248 60.8058L105.249 60.8051L105.251 60.8038L105.254 60.8023L105.256 60.8008L105.259 60.7992L105.261 60.7982L105.263 60.7969L105.265 60.7953L105.268 60.7938C106.362 60.1148 107.457 59.4351 108.556 58.7587C108.697 58.6469 108.872 58.5882 109.052 58.5928C109.231 58.5975 109.404 58.6653 109.538 58.7843C109.673 58.8997 109.768 59.0543 109.811 59.2264C109.854 59.3986 109.842 59.5798 109.777 59.7449C109.162 61.9736 108.582 64.2065 108.018 66.4479C107.61 67.9885 107.2 69.5295 106.79 71.0709L106.789 71.0735L106.789 71.076L106.789 71.0761C105.91 74.3772 105.031 77.6803 104.175 80.9854C103.851 82.2363 103.992 82.3857 105.311 82.3857H123.672C123.86 82.386 124.034 82.3869 124.197 82.3878C125.362 82.394 125.908 82.3969 126.167 82.1261C126.395 81.8876 126.401 81.4369 126.412 80.5895C126.416 80.3393 126.42 80.0544 126.43 79.7301C126.55 75.7382 128.39 72.8436 132.135 71.2639C133.66 70.6174 135.268 70.425 136.878 70.2323H136.878L136.878 70.2323C137.31 70.1806 137.742 70.1289 138.172 70.0684C140.444 69.7696 140.939 69.0608 140.606 66.781C140.418 65.4959 140.401 64.2364 141.114 63.0623C141.313 62.78 141.405 62.4364 141.375 62.0925C141.344 61.7486 141.193 61.4266 140.948 61.1837C140.457 60.6586 140.58 60.2445 141.106 59.8559C141.426 59.6511 141.653 59.33 141.741 58.9604C141.829 58.5908 141.769 58.2015 141.575 57.8749C141.377 57.5102 141.321 57.0848 141.418 56.681C141.515 56.2772 141.758 55.9238 142.101 55.689C142.193 55.6132 142.286 55.5378 142.379 55.4624C142.616 55.2699 142.854 55.0772 143.087 54.8778C144.043 54.0538 144.142 53.4048 143.399 52.3887C142.869 51.6605 142.326 50.9441 141.782 50.2273L141.782 50.2271L141.782 50.2269L141.782 50.2267L141.781 50.2265L141.781 50.2263L141.781 50.2261L141.781 50.226L141.781 50.2258L141.781 50.2256L141.781 50.2254C141.401 49.7241 141.02 49.2227 140.645 48.717C139.677 47.4332 139.047 45.927 138.813 44.3365C138.627 42.5684 138.333 40.8132 137.933 39.0809C136.605 34.1625 134.167 30.0126 129.628 27.4211C126.286 25.5687 122.561 24.511 118.744 24.33C116.037 24.1468 113.319 24.3612 110.674 24.9661C110.615 24.9831 110.551 24.9963 110.488 25.0095C110.217 25.0659 109.943 25.123 109.974 25.4827C110.005 25.842 110.31 25.8155 110.577 25.7923C110.64 25.7869 110.701 25.7816 110.755 25.7816C111.123 25.7669 111.491 25.7323 111.859 25.6978C112.345 25.6522 112.831 25.6065 113.317 25.6065C115.072 25.5852 115.546 26.0121 115.725 27.7199C115.883 29.1886 116.016 30.6914 116.114 32.1772C116.186 33.3043 115.004 34.6022 113.881 34.5425C112.517 34.4681 111.152 34.4136 109.788 34.3592C106.543 34.2296 103.298 34.1001 100.07 33.7034C99.8752 33.4224 99.5506 33.2384 99.183 33.2384C98.5877 33.2384 98.1051 33.721 98.1051 34.3163C98.1051 34.9116 98.5877 35.3941 99.183 35.3941C99.4978 35.3941 99.7811 35.2592 99.9782 35.0439C100.279 35.0198 100.581 35.012 100.883 35.0206C103.298 35.2448 105.712 35.3458 108.133 35.4471H108.133L108.757 35.4732C108.972 35.4807 109.188 35.4873 109.404 35.4939ZM114.982 54.9632C114.88 55.0101 114.773 55.0101 114.696 55.0101C113.834 55.0101 112.655 53.5116 112.873 52.6534C113.343 50.7649 113.836 48.8881 114.329 47.0125L114.329 47.0124L114.329 47.0123L114.329 47.0123L114.33 47.0122L114.33 47.0121L114.33 47.0121L114.33 47.012L114.33 47.0119L114.33 47.0119L114.33 47.0118L114.33 47.0117C114.567 46.1101 114.804 45.2088 115.038 44.3067C115.553 42.3143 116.067 40.3219 116.579 38.3295C116.635 38.0882 116.703 37.8502 116.784 37.6165C116.798 37.5868 116.811 37.5566 116.824 37.5264C116.927 37.2914 117.032 37.0533 117.331 37.023C117.639 36.9918 117.783 37.2317 117.92 37.459C117.933 37.4804 117.946 37.5016 117.958 37.5225C118.403 38.2341 118.846 38.9409 119.289 39.6478L119.289 39.6479L119.29 39.6491L119.29 39.6498C120.176 41.0628 121.062 42.4758 121.955 43.9267C122.733 45.19 123.501 46.4591 124.269 47.7282C124.824 48.6463 125.38 49.5644 125.939 50.4803C126.562 51.5092 126.481 51.8892 125.384 52.188C122.708 52.9246 120.022 53.633 117.338 54.341L117.334 54.3421L117.331 54.343L117.329 54.3434L117.328 54.3438L117.326 54.3442L117.324 54.3446L117.323 54.3451L117.323 54.3451L117.323 54.3451L117.323 54.3451C116.542 54.5509 115.762 54.7567 114.982 54.9632ZM129.176 35.9556C130.109 38.2722 130.558 40.7554 130.495 43.2521H130.516C130.603 45.6645 130.029 48.0548 128.855 50.1643C128.826 50.2186 128.798 50.2743 128.771 50.3297C128.624 50.6269 128.482 50.9155 128.057 50.9371C127.6 50.9603 127.388 50.6109 127.187 50.278L127.187 50.2778L127.154 50.2231L127.126 50.1771C124.45 45.7825 121.767 41.3935 119.077 37.0102C118.479 36.0325 118.543 35.6909 119.632 35.6056C120.525 35.5292 121.412 35.3937 122.299 35.2582C124.139 34.9771 125.979 34.696 127.869 34.9438C128.164 34.959 128.447 35.0641 128.681 35.2449C128.914 35.4258 129.087 35.6738 129.176 35.9556ZM111.707 52.2649C111.575 52.7687 111.391 53.1188 110.806 53.1188C110.61 53.1289 110.415 53.0707 110.257 52.9539C110.098 52.8372 109.984 52.6692 109.935 52.4784C109.597 51.6473 109.255 50.8179 108.912 49.9883L108.912 49.988C108.021 47.8304 107.13 45.6721 106.319 43.4827C106.163 43.0404 106.168 42.5576 106.331 42.1184C106.495 41.6791 106.808 41.3113 107.215 41.079C109.011 40.0518 110.854 39.0876 112.696 38.1245C113.434 37.7386 114.171 37.3528 114.905 36.9632C114.937 36.9464 114.968 36.9277 114.998 36.9093C115.15 36.8158 115.291 36.73 115.49 36.9333C115.694 37.141 115.622 37.389 115.554 37.6218C115.542 37.6618 115.53 37.7014 115.52 37.7403C114.931 40.0458 114.333 42.3498 113.727 44.6525C113.474 45.6081 113.219 46.5638 112.963 47.5196L112.963 47.5198C112.54 49.1005 112.117 50.6819 111.707 52.2649ZM125.876 53.3547C126.004 53.3856 126.12 53.4518 126.212 53.5457V53.5628C125.042 54.9715 123.622 56.1525 122.023 57.0466C116.609 60.2231 112.117 64.2791 108.966 69.7482C108.947 69.7819 108.929 69.8176 108.91 69.8543L108.91 69.8544C108.805 70.064 108.684 70.303 108.27 70.3502C108.352 70.0124 108.432 69.6801 108.511 69.3519L108.511 69.3517C108.753 68.3482 108.985 67.3831 109.239 66.4181C109.354 65.9871 109.47 65.5558 109.586 65.1239L109.588 65.1183L109.588 65.1162L109.589 65.1143C110.014 63.5298 110.442 61.9377 110.84 60.3298C110.994 59.7236 111.225 59.2625 111.887 59.1515C113.035 58.9551 113.667 58.1567 114.094 57.1833C114.171 56.9483 114.304 56.7356 114.482 56.5638C114.66 56.3919 114.877 56.266 115.115 56.197C117.091 55.6627 119.068 55.1228 121.044 54.583C122.526 54.1781 124.008 53.7732 125.491 53.3707C125.615 53.3293 125.749 53.3237 125.876 53.3547ZM117.212 31.1023C117.14 30.2281 117.074 29.4188 117.036 28.941C116.985 26.0676 117.211 25.9139 119.376 26.7849C122.092 27.8718 124.52 29.5728 126.468 31.7545C126.534 31.8272 126.607 31.8985 126.682 31.9706C126.996 32.2758 127.327 32.5969 127.13 33.1079C126.932 33.6223 126.443 33.6501 125.966 33.6771C125.857 33.6833 125.748 33.6895 125.644 33.7014C124.897 33.7852 124.15 33.874 123.402 33.9628L123.402 33.9628L123.402 33.9628L123.402 33.9628C122.321 34.0912 121.24 34.2197 120.157 34.3333C119.818 34.3718 119.474 34.3429 119.146 34.2482C118.818 34.1535 118.512 33.9948 118.245 33.7813C117.978 33.5679 117.757 33.3038 117.592 33.0043C117.428 32.7049 117.325 32.3759 117.288 32.0363C117.262 31.9338 117.262 31.8271 117.262 31.7204L117.212 31.1023ZM106.038 30.3065C106.038 31.1161 105.382 31.7724 104.572 31.7724C103.763 31.7724 103.107 31.1161 103.107 30.3065C103.107 29.4969 103.763 28.8406 104.572 28.8406C105.382 28.8406 106.038 29.4969 106.038 30.3065ZM122.94 50.0966C122.94 50.549 122.573 50.9158 122.12 50.9158C121.668 50.9158 121.301 50.549 121.301 50.0966C121.301 49.6441 121.668 49.2774 122.12 49.2774C122.573 49.2774 122.94 49.6441 122.94 50.0966ZM126.906 38.5847C127.478 38.5847 127.941 38.1214 127.941 37.5499C127.941 36.9784 127.478 36.5152 126.906 36.5152C126.335 36.5152 125.872 36.9784 125.872 37.5499C125.872 38.1214 126.335 38.5847 126.906 38.5847ZM109.919 43.1549C109.919 43.6312 109.533 44.0173 109.056 44.0173C108.58 44.0173 108.194 43.6312 108.194 43.1549C108.194 42.6787 108.58 42.2926 109.056 42.2926C109.533 42.2926 109.919 42.6787 109.919 43.1549ZM106.901 64.2816C107.377 64.2816 107.763 63.8955 107.763 63.4193C107.763 62.943 107.377 62.557 106.901 62.557C106.424 62.557 106.038 62.943 106.038 63.4193C106.038 63.8955 106.424 64.2816 106.901 64.2816ZM102.675 71.3525C102.675 72.0193 102.135 72.5598 101.468 72.5598C100.801 72.5598 100.261 72.0193 100.261 71.3525C100.261 70.6858 100.801 70.1453 101.468 70.1453C102.135 70.1453 102.675 70.6858 102.675 71.3525Z" fill="white"/>
<path d="M99.535 11.925C92.3919 13.8936 85.2974 16.0342 78.2575 18.345C77.6147 18.5532 77.0433 18.9378 76.6084 19.4549C76.1734 19.9721 75.8925 20.601 75.7975 21.27C71.6425 52.4475 81.2425 75.1949 92.695 90.1799C97.5439 96.5879 103.326 102.233 109.848 106.927C112.443 108.757 114.738 110.077 116.545 110.925C117.445 111.352 118.18 111.637 118.743 111.81C118.989 111.896 119.242 111.959 119.5 111.997C119.755 111.956 120.006 111.893 120.25 111.81C120.82 111.637 121.555 111.352 122.455 110.925C124.255 110.077 126.557 108.75 129.152 106.927C135.674 102.233 141.456 96.5878 146.305 90.1799C157.757 75.2024 167.357 52.4475 163.202 21.27C163.108 20.6007 162.828 19.9714 162.393 19.4541C161.958 18.9368 161.386 18.5524 160.742 18.345C155.86 16.7475 147.617 14.145 139.465 11.9325C131.14 9.67499 123.482 8.00249 119.5 8.00249C115.525 8.00249 107.86 9.66749 99.535 11.925ZM97.54 4.2C105.678 1.9875 114.325 0 119.5 0C124.675 0 133.322 1.9875 141.46 4.2C149.785 6.45 158.177 9.11249 163.112 10.725C165.176 11.4064 167.005 12.656 168.39 14.3302C169.775 16.0045 170.66 18.0355 170.942 20.19C175.412 53.7675 165.04 78.6524 152.455 95.1149C147.118 102.157 140.755 108.359 133.577 113.512C131.096 115.296 128.466 116.864 125.717 118.2C123.618 119.19 121.36 120 119.5 120C117.64 120 115.39 119.19 113.283 118.2C110.534 116.864 107.904 115.296 105.423 113.512C98.2452 108.359 91.8819 102.157 86.545 95.1149C73.96 78.6524 63.5875 53.7675 68.0575 20.19C68.3402 18.0355 69.2249 16.0045 70.6099 14.3302C71.995 12.656 73.8242 11.4064 75.8875 10.725C83.0515 8.37606 90.2711 6.20043 97.54 4.2Z" fill="white"/>
<path d="M14.056 159.736C14.056 157.517 14.536 155.544 15.496 153.816C16.456 152.067 17.7893 150.712 19.496 149.752C21.224 148.771 23.176 148.28 25.352 148.28C28.0187 148.28 30.3013 148.984 32.2 150.392C34.0987 151.8 35.368 153.72 36.008 156.152H29.992C29.544 155.213 28.904 154.499 28.072 154.008C27.2613 153.517 26.3333 153.272 25.288 153.272C23.6027 153.272 22.2373 153.859 21.192 155.032C20.1467 156.205 19.624 157.773 19.624 159.736C19.624 161.699 20.1467 163.267 21.192 164.44C22.2373 165.613 23.6027 166.2 25.288 166.2C26.3333 166.2 27.2613 165.955 28.072 165.464C28.904 164.973 29.544 164.259 29.992 163.32H36.008C35.368 165.752 34.0987 167.672 32.2 169.08C30.3013 170.467 28.0187 171.16 25.352 171.16C23.176 171.16 21.224 170.68 19.496 169.72C17.7893 168.739 16.456 167.384 15.496 165.656C14.536 163.928 14.056 161.955 14.056 159.736ZM46.111 147.32V171H40.639V147.32H46.111ZM50.2685 162.04C50.2685 160.205 50.6098 158.595 51.2925 157.208C51.9965 155.821 52.9458 154.755 54.1405 154.008C55.3352 153.261 56.6685 152.888 58.1405 152.888C59.3992 152.888 60.4978 153.144 61.4365 153.656C62.3965 154.168 63.1325 154.84 63.6445 155.672V153.144H69.1165V171H63.6445V168.472C63.1112 169.304 62.3645 169.976 61.4045 170.488C60.4658 171 59.3672 171.256 58.1085 171.256C56.6578 171.256 55.3352 170.883 54.1405 170.136C52.9458 169.368 51.9965 168.291 51.2925 166.904C50.6098 165.496 50.2685 163.875 50.2685 162.04ZM63.6445 162.072C63.6445 160.707 63.2605 159.629 62.4925 158.84C61.7458 158.051 60.8285 157.656 59.7405 157.656C58.6525 157.656 57.7245 158.051 56.9565 158.84C56.2098 159.608 55.8365 160.675 55.8365 162.04C55.8365 163.405 56.2098 164.493 56.9565 165.304C57.7245 166.093 58.6525 166.488 59.7405 166.488C60.8285 166.488 61.7458 166.093 62.4925 165.304C63.2605 164.515 63.6445 163.437 63.6445 162.072ZM77.1073 151.288C76.1473 151.288 75.3579 151.011 74.7393 150.456C74.1419 149.88 73.8433 149.176 73.8433 148.344C73.8433 147.491 74.1419 146.787 74.7393 146.232C75.3579 145.656 76.1473 145.368 77.1073 145.368C78.0459 145.368 78.8139 145.656 79.4113 146.232C80.0299 146.787 80.3393 147.491 80.3393 148.344C80.3393 149.176 80.0299 149.88 79.4113 150.456C78.8139 151.011 78.0459 151.288 77.1073 151.288ZM79.8273 153.144V171H74.3553V153.144H79.8273ZM107.857 152.952C110.075 152.952 111.835 153.624 113.137 154.968C114.459 156.312 115.121 158.179 115.121 160.568V171H109.681V161.304C109.681 160.152 109.371 159.267 108.753 158.648C108.155 158.008 107.323 157.688 106.257 157.688C105.19 157.688 104.347 158.008 103.729 158.648C103.131 159.267 102.833 160.152 102.833 161.304V171H97.3928V161.304C97.3928 160.152 97.0834 159.267 96.4648 158.648C95.8674 158.008 95.0354 157.688 93.9688 157.688C92.9021 157.688 92.0594 158.008 91.4408 158.648C90.8434 159.267 90.5448 160.152 90.5448 161.304V171H85.0728V153.144H90.5448V155.384C91.0994 154.637 91.8248 154.051 92.7208 153.624C93.6168 153.176 94.6301 152.952 95.7608 152.952C97.1048 152.952 98.2994 153.24 99.3448 153.816C100.411 154.392 101.243 155.213 101.841 156.28C102.459 155.299 103.302 154.499 104.369 153.88C105.435 153.261 106.598 152.952 107.857 152.952ZM143.201 155.64C142.796 154.893 142.209 154.328 141.441 153.944C140.694 153.539 139.809 153.336 138.785 153.336C137.014 153.336 135.596 153.923 134.529 155.096C133.462 156.248 132.929 157.795 132.929 159.736C132.929 161.805 133.484 163.427 134.593 164.6C135.724 165.752 137.27 166.328 139.233 166.328C140.577 166.328 141.708 165.987 142.625 165.304C143.564 164.621 144.246 163.64 144.673 162.36H137.729V158.328H149.633V163.416C149.228 164.781 148.534 166.051 147.553 167.224C146.593 168.397 145.366 169.347 143.873 170.072C142.38 170.797 140.694 171.16 138.817 171.16C136.598 171.16 134.614 170.68 132.865 169.72C131.137 168.739 129.782 167.384 128.801 165.656C127.841 163.928 127.361 161.955 127.361 159.736C127.361 157.517 127.841 155.544 128.801 153.816C129.782 152.067 131.137 150.712 132.865 149.752C134.593 148.771 136.566 148.28 138.785 148.28C141.473 148.28 143.734 148.931 145.569 150.232C147.425 151.533 148.652 153.336 149.249 155.64H143.201ZM170.776 161.784C170.776 162.296 170.744 162.829 170.68 163.384H158.296C158.381 164.493 158.733 165.347 159.352 165.944C159.992 166.52 160.771 166.808 161.688 166.808C163.053 166.808 164.003 166.232 164.536 165.08H170.36C170.061 166.253 169.517 167.309 168.728 168.248C167.96 169.187 166.989 169.923 165.816 170.456C164.643 170.989 163.331 171.256 161.88 171.256C160.131 171.256 158.573 170.883 157.208 170.136C155.843 169.389 154.776 168.323 154.008 166.936C153.24 165.549 152.856 163.928 152.856 162.072C152.856 160.216 153.229 158.595 153.976 157.208C154.744 155.821 155.811 154.755 157.176 154.008C158.541 153.261 160.109 152.888 161.88 152.888C163.608 152.888 165.144 153.251 166.488 153.976C167.832 154.701 168.877 155.736 169.624 157.08C170.392 158.424 170.776 159.992 170.776 161.784ZM165.176 160.344C165.176 159.405 164.856 158.659 164.216 158.104C163.576 157.549 162.776 157.272 161.816 157.272C160.899 157.272 160.12 157.539 159.48 158.072C158.861 158.605 158.477 159.363 158.328 160.344H165.176ZM185.823 152.952C187.913 152.952 189.577 153.635 190.815 155C192.073 156.344 192.703 158.2 192.703 160.568V171H187.263V161.304C187.263 160.109 186.953 159.181 186.335 158.52C185.716 157.859 184.884 157.528 183.839 157.528C182.793 157.528 181.961 157.859 181.343 158.52C180.724 159.181 180.415 160.109 180.415 161.304V171H174.943V153.144H180.415V155.512C180.969 154.723 181.716 154.104 182.655 153.656C183.593 153.187 184.649 152.952 185.823 152.952ZM200.537 151.288C199.577 151.288 198.788 151.011 198.169 150.456C197.572 149.88 197.273 149.176 197.273 148.344C197.273 147.491 197.572 146.787 198.169 146.232C198.788 145.656 199.577 145.368 200.537 145.368C201.476 145.368 202.244 145.656 202.841 146.232C203.46 146.787 203.769 147.491 203.769 148.344C203.769 149.176 203.46 149.88 202.841 150.456C202.244 151.011 201.476 151.288 200.537 151.288ZM203.257 153.144V171H197.785V153.144H203.257ZM225.335 161.784C225.335 162.296 225.303 162.829 225.239 163.384H212.855C212.94 164.493 213.292 165.347 213.911 165.944C214.551 166.52 215.329 166.808 216.247 166.808C217.612 166.808 218.561 166.232 219.095 165.08H224.919C224.62 166.253 224.076 167.309 223.287 168.248C222.519 169.187 221.548 169.923 220.375 170.456C219.201 170.989 217.889 171.256 216.439 171.256C214.689 171.256 213.132 170.883 211.767 170.136C210.401 169.389 209.335 168.323 208.567 166.936C207.799 165.549 207.415 163.928 207.415 162.072C207.415 160.216 207.788 158.595 208.535 157.208C209.303 155.821 210.369 154.755 211.735 154.008C213.1 153.261 214.668 152.888 216.439 152.888C218.167 152.888 219.703 153.251 221.047 153.976C222.391 154.701 223.436 155.736 224.183 157.08C224.951 158.424 225.335 159.992 225.335 161.784ZM219.735 160.344C219.735 159.405 219.415 158.659 218.775 158.104C218.135 157.549 217.335 157.272 216.375 157.272C215.457 157.272 214.679 157.539 214.039 158.072C213.42 158.605 213.036 159.363 212.887 160.344H219.735Z" fill="white"/>
<path d="M5.868 195.14H2.22L1.548 197H0.396L3.42 188.684H4.68L7.692 197H6.54L5.868 195.14ZM5.556 194.252L4.044 190.028L2.532 194.252H5.556ZM10.5819 188.636V197H9.48994V188.636H10.5819ZM13.2711 197.072C13.0631 197.072 12.8871 197 12.7431 196.856C12.5991 196.712 12.5271 196.536 12.5271 196.328C12.5271 196.12 12.5991 195.944 12.7431 195.8C12.8871 195.656 13.0631 195.584 13.2711 195.584C13.4711 195.584 13.6391 195.656 13.7751 195.8C13.9191 195.944 13.9911 196.12 13.9911 196.328C13.9911 196.536 13.9191 196.712 13.7751 196.856C13.6391 197 13.4711 197.072 13.2711 197.072ZM13.2711 191.936C13.0631 191.936 12.8871 191.864 12.7431 191.72C12.5991 191.576 12.5271 191.4 12.5271 191.192C12.5271 190.984 12.5991 190.808 12.7431 190.664C12.8871 190.52 13.0631 190.448 13.2711 190.448C13.4711 190.448 13.6391 190.52 13.7751 190.664C13.9191 190.808 13.9911 190.984 13.9911 191.192C13.9911 191.4 13.9191 191.576 13.7751 191.72C13.6391 191.864 13.4711 191.936 13.2711 191.936ZM25.229 191.084C25.229 191.78 24.989 192.36 24.509 192.824C24.037 193.28 23.313 193.508 22.337 193.508H20.729V197H19.637V188.636H22.337C23.281 188.636 23.997 188.864 24.485 189.32C24.981 189.776 25.229 190.364 25.229 191.084ZM22.337 192.608C22.945 192.608 23.393 192.476 23.681 192.212C23.969 191.948 24.113 191.572 24.113 191.084C24.113 190.052 23.521 189.536 22.337 189.536H20.729V192.608H22.337ZM29.9342 197.108C29.3182 197.108 28.7582 196.968 28.2542 196.688C27.7582 196.408 27.3662 196.012 27.0782 195.5C26.7982 194.98 26.6582 194.38 26.6582 193.7C26.6582 193.028 26.8022 192.436 27.0902 191.924C27.3862 191.404 27.7862 191.008 28.2902 190.736C28.7942 190.456 29.3582 190.316 29.9822 190.316C30.6062 190.316 31.1702 190.456 31.6742 190.736C32.1782 191.008 32.5742 191.4 32.8622 191.912C33.1582 192.424 33.3062 193.02 33.3062 193.7C33.3062 194.38 33.1542 194.98 32.8502 195.5C32.5542 196.012 32.1502 196.408 31.6382 196.688C31.1262 196.968 30.5582 197.108 29.9342 197.108ZM29.9342 196.148C30.3262 196.148 30.6942 196.056 31.0382 195.872C31.3822 195.688 31.6582 195.412 31.8662 195.044C32.0822 194.676 32.1902 194.228 32.1902 193.7C32.1902 193.172 32.0862 192.724 31.8782 192.356C31.6702 191.988 31.3982 191.716 31.0622 191.54C30.7262 191.356 30.3622 191.264 29.9702 191.264C29.5702 191.264 29.2022 191.356 28.8662 191.54C28.5382 191.716 28.2742 191.988 28.0742 192.356C27.8742 192.724 27.7742 193.172 27.7742 193.7C27.7742 194.236 27.8702 194.688 28.0622 195.056C28.2622 195.424 28.5262 195.7 28.8542 195.884C29.1822 196.06 29.5422 196.148 29.9342 196.148ZM43.982 190.424L41.93 197H40.802L39.218 191.78L37.634 197H36.506L34.442 190.424H35.558L37.07 195.944L38.702 190.424H39.818L41.414 195.956L42.902 190.424H43.982ZM51.5457 193.46C51.5457 193.668 51.5337 193.888 51.5097 194.12H46.2537C46.2937 194.768 46.5137 195.276 46.9137 195.644C47.3217 196.004 47.8137 196.184 48.3897 196.184C48.8617 196.184 49.2537 196.076 49.5657 195.86C49.8857 195.636 50.1097 195.34 50.2377 194.972H51.4137C51.2377 195.604 50.8857 196.12 50.3577 196.52C49.8297 196.912 49.1737 197.108 48.3897 197.108C47.7657 197.108 47.2057 196.968 46.7097 196.688C46.2217 196.408 45.8377 196.012 45.5577 195.5C45.2777 194.98 45.1377 194.38 45.1377 193.7C45.1377 193.02 45.2737 192.424 45.5457 191.912C45.8177 191.4 46.1977 191.008 46.6857 190.736C47.1817 190.456 47.7497 190.316 48.3897 190.316C49.0137 190.316 49.5657 190.452 50.0457 190.724C50.5257 190.996 50.8937 191.372 51.1497 191.852C51.4137 192.324 51.5457 192.86 51.5457 193.46ZM50.4177 193.232C50.4177 192.816 50.3257 192.46 50.1417 192.164C49.9577 191.86 49.7057 191.632 49.3857 191.48C49.0737 191.32 48.7257 191.24 48.3417 191.24C47.7897 191.24 47.3177 191.416 46.9257 191.768C46.5417 192.12 46.3217 192.608 46.2657 193.232H50.4177ZM54.5591 191.492C54.7511 191.116 55.0231 190.824 55.3751 190.616C55.7351 190.408 56.1711 190.304 56.6831 190.304V191.432H56.3951C55.1711 191.432 54.5591 192.096 54.5591 193.424V197H53.4671V190.424H54.5591V191.492ZM58.9877 189.356C58.7797 189.356 58.6037 189.284 58.4597 189.14C58.3157 188.996 58.2437 188.82 58.2437 188.612C58.2437 188.404 58.3157 188.228 58.4597 188.084C58.6037 187.94 58.7797 187.868 58.9877 187.868C59.1877 187.868 59.3557 187.94 59.4917 188.084C59.6357 188.228 59.7077 188.404 59.7077 188.612C59.7077 188.82 59.6357 188.996 59.4917 189.14C59.3557 189.284 59.1877 189.356 58.9877 189.356ZM59.5157 190.424V197H58.4237V190.424H59.5157ZM65.0608 190.304C65.8608 190.304 66.5088 190.548 67.0048 191.036C67.5008 191.516 67.7488 192.212 67.7488 193.124V197H66.6688V193.28C66.6688 192.624 66.5048 192.124 66.1768 191.78C65.8488 191.428 65.4008 191.252 64.8328 191.252C64.2568 191.252 63.7968 191.432 63.4528 191.792C63.1168 192.152 62.9488 192.676 62.9488 193.364V197H61.8568V190.424H62.9488V191.36C63.1648 191.024 63.4568 190.764 63.8248 190.58C64.2008 190.396 64.6128 190.304 65.0608 190.304ZM72.7246 190.316C73.2926 190.316 73.7886 190.44 74.2126 190.688C74.6446 190.936 74.9646 191.248 75.1726 191.624V190.424H76.2766V197.144C76.2766 197.744 76.1486 198.276 75.8926 198.74C75.6366 199.212 75.2686 199.58 74.7886 199.844C74.3166 200.108 73.7646 200.24 73.1326 200.24C72.2686 200.24 71.5486 200.036 70.9726 199.628C70.3966 199.22 70.0566 198.664 69.9526 197.96H71.0326C71.1526 198.36 71.4006 198.68 71.7766 198.92C72.1526 199.168 72.6046 199.292 73.1326 199.292C73.7326 199.292 74.2206 199.104 74.5966 198.728C74.9806 198.352 75.1726 197.824 75.1726 197.144V195.764C74.9566 196.148 74.6366 196.468 74.2126 196.724C73.7886 196.98 73.2926 197.108 72.7246 197.108C72.1406 197.108 71.6086 196.964 71.1286 196.676C70.6566 196.388 70.2846 195.984 70.0126 195.464C69.7406 194.944 69.6046 194.352 69.6046 193.688C69.6046 193.016 69.7406 192.428 70.0126 191.924C70.2846 191.412 70.6566 191.016 71.1286 190.736C71.6086 190.456 72.1406 190.316 72.7246 190.316ZM75.1726 193.7C75.1726 193.204 75.0726 192.772 74.8726 192.404C74.6726 192.036 74.4006 191.756 74.0566 191.564C73.7206 191.364 73.3486 191.264 72.9406 191.264C72.5326 191.264 72.1606 191.36 71.8246 191.552C71.4886 191.744 71.2206 192.024 71.0206 192.392C70.8206 192.76 70.7206 193.192 70.7206 193.688C70.7206 194.192 70.8206 194.632 71.0206 195.008C71.2206 195.376 71.4886 195.66 71.8246 195.86C72.1606 196.052 72.5326 196.148 72.9406 196.148C73.3486 196.148 73.7206 196.052 74.0566 195.86C74.4006 195.66 74.6726 195.376 74.8726 195.008C75.0726 194.632 75.1726 194.196 75.1726 193.7ZM83.6132 191.324V195.2C83.6132 195.52 83.6812 195.748 83.8172 195.884C83.9532 196.012 84.1892 196.076 84.5252 196.076H85.3292V197H84.3452C83.7372 197 83.2812 196.86 82.9772 196.58C82.6732 196.3 82.5212 195.84 82.5212 195.2V191.324H81.6692V190.424H82.5212V188.768H83.6132V190.424H85.3292V191.324H83.6132ZM90.3963 190.304C90.8923 190.304 91.3403 190.412 91.7403 190.628C92.1403 190.836 92.4523 191.152 92.6763 191.576C92.9083 192 93.0243 192.516 93.0243 193.124V197H91.9443V193.28C91.9443 192.624 91.7803 192.124 91.4523 191.78C91.1243 191.428 90.6763 191.252 90.1083 191.252C89.5323 191.252 89.0723 191.432 88.7283 191.792C88.3923 192.152 88.2243 192.676 88.2243 193.364V197H87.1323V188.12H88.2243V191.36C88.4403 191.024 88.7363 190.764 89.1123 190.58C89.4963 190.396 89.9243 190.304 90.3963 190.304ZM101.288 193.46C101.288 193.668 101.276 193.888 101.252 194.12H95.9961C96.0361 194.768 96.2561 195.276 96.6561 195.644C97.0641 196.004 97.5561 196.184 98.1321 196.184C98.6041 196.184 98.9961 196.076 99.3081 195.86C99.6281 195.636 99.8521 195.34 99.9801 194.972H101.156C100.98 195.604 100.628 196.12 100.1 196.52C99.5721 196.912 98.9161 197.108 98.1321 197.108C97.5081 197.108 96.9481 196.968 96.4521 196.688C95.9641 196.408 95.5801 196.012 95.3001 195.5C95.0201 194.98 94.8801 194.38 94.8801 193.7C94.8801 193.02 95.0161 192.424 95.2881 191.912C95.5601 191.4 95.9401 191.008 96.4281 190.736C96.9241 190.456 97.4921 190.316 98.1321 190.316C98.7561 190.316 99.3081 190.452 99.7881 190.724C100.268 190.996 100.636 191.372 100.892 191.852C101.156 192.324 101.288 192.86 101.288 193.46ZM100.16 193.232C100.16 192.816 100.068 192.46 99.8841 192.164C99.7001 191.86 99.4481 191.632 99.1281 191.48C98.8161 191.32 98.4681 191.24 98.0841 191.24C97.5321 191.24 97.0601 191.416 96.6681 191.768C96.2841 192.12 96.0641 192.608 96.0081 193.232H100.16ZM111.617 188.636V189.524H107.981V192.344H110.933V193.232H107.981V197H106.889V188.636H111.617ZM119.248 190.424V197H118.156V196.028C117.948 196.364 117.656 196.628 117.28 196.82C116.912 197.004 116.504 197.096 116.056 197.096C115.544 197.096 115.084 196.992 114.676 196.784C114.268 196.568 113.944 196.248 113.704 195.824C113.472 195.4 113.356 194.884 113.356 194.276V190.424H114.436V194.132C114.436 194.78 114.6 195.28 114.928 195.632C115.256 195.976 115.704 196.148 116.272 196.148C116.856 196.148 117.316 195.968 117.652 195.608C117.988 195.248 118.156 194.724 118.156 194.036V190.424H119.248ZM122.903 191.324V195.2C122.903 195.52 122.971 195.748 123.107 195.884C123.243 196.012 123.479 196.076 123.815 196.076H124.619V197H123.635C123.027 197 122.571 196.86 122.267 196.58C121.963 196.3 121.811 195.84 121.811 195.2V191.324H120.959V190.424H121.811V188.768H122.903V190.424H124.619V191.324H122.903ZM132.254 190.424V197H131.162V196.028C130.954 196.364 130.662 196.628 130.286 196.82C129.918 197.004 129.51 197.096 129.062 197.096C128.55 197.096 128.09 196.992 127.682 196.784C127.274 196.568 126.95 196.248 126.71 195.824C126.478 195.4 126.362 194.884 126.362 194.276V190.424H127.442V194.132C127.442 194.78 127.606 195.28 127.934 195.632C128.262 195.976 128.71 196.148 129.278 196.148C129.862 196.148 130.322 195.968 130.658 195.608C130.994 195.248 131.162 194.724 131.162 194.036V190.424H132.254ZM135.67 191.492C135.862 191.116 136.134 190.824 136.486 190.616C136.846 190.408 137.282 190.304 137.794 190.304V191.432H137.506C136.282 191.432 135.67 192.096 135.67 193.424V197H134.578V190.424H135.67V191.492ZM145.535 193.46C145.535 193.668 145.523 193.888 145.499 194.12H140.243C140.283 194.768 140.503 195.276 140.903 195.644C141.311 196.004 141.803 196.184 142.379 196.184C142.851 196.184 143.243 196.076 143.555 195.86C143.875 195.636 144.099 195.34 144.227 194.972H145.403C145.227 195.604 144.875 196.12 144.347 196.52C143.819 196.912 143.163 197.108 142.379 197.108C141.755 197.108 141.195 196.968 140.699 196.688C140.211 196.408 139.827 196.012 139.547 195.5C139.267 194.98 139.127 194.38 139.127 193.7C139.127 193.02 139.263 192.424 139.535 191.912C139.807 191.4 140.187 191.008 140.675 190.736C141.171 190.456 141.739 190.316 142.379 190.316C143.003 190.316 143.555 190.452 144.035 190.724C144.515 190.996 144.883 191.372 145.139 191.852C145.403 192.324 145.535 192.86 145.535 193.46ZM144.407 193.232C144.407 192.816 144.315 192.46 144.131 192.164C143.947 191.86 143.695 191.632 143.375 191.48C143.063 191.32 142.715 191.24 142.331 191.24C141.779 191.24 141.307 191.416 140.915 191.768C140.531 192.12 140.311 192.608 140.255 193.232H144.407ZM154.003 197.108C153.387 197.108 152.827 196.968 152.323 196.688C151.827 196.408 151.435 196.012 151.147 195.5C150.867 194.98 150.727 194.38 150.727 193.7C150.727 193.028 150.871 192.436 151.159 191.924C151.455 191.404 151.855 191.008 152.359 190.736C152.863 190.456 153.427 190.316 154.051 190.316C154.675 190.316 155.239 190.456 155.743 190.736C156.247 191.008 156.643 191.4 156.931 191.912C157.227 192.424 157.375 193.02 157.375 193.7C157.375 194.38 157.223 194.98 156.919 195.5C156.623 196.012 156.219 196.408 155.707 196.688C155.195 196.968 154.627 197.108 154.003 197.108ZM154.003 196.148C154.395 196.148 154.763 196.056 155.107 195.872C155.451 195.688 155.727 195.412 155.935 195.044C156.151 194.676 156.259 194.228 156.259 193.7C156.259 193.172 156.155 192.724 155.947 192.356C155.739 191.988 155.467 191.716 155.131 191.54C154.795 191.356 154.431 191.264 154.039 191.264C153.639 191.264 153.271 191.356 152.935 191.54C152.607 191.716 152.343 191.988 152.143 192.356C151.943 192.724 151.843 193.172 151.843 193.7C151.843 194.236 151.939 194.688 152.131 195.056C152.331 195.424 152.595 195.7 152.923 195.884C153.251 196.06 153.611 196.148 154.003 196.148ZM161.967 191.324H160.587V197H159.495V191.324H158.643V190.424H159.495V189.956C159.495 189.22 159.683 188.684 160.059 188.348C160.443 188.004 161.055 187.832 161.895 187.832V188.744C161.415 188.744 161.075 188.84 160.875 189.032C160.683 189.216 160.587 189.524 160.587 189.956V190.424H161.967V191.324ZM168.492 188.636V197H167.4V188.636H168.492ZM174.037 190.304C174.837 190.304 175.485 190.548 175.981 191.036C176.477 191.516 176.725 192.212 176.725 193.124V197H175.645V193.28C175.645 192.624 175.481 192.124 175.153 191.78C174.825 191.428 174.377 191.252 173.809 191.252C173.233 191.252 172.773 191.432 172.429 191.792C172.093 192.152 171.925 192.676 171.925 193.364V197H170.833V190.424H171.925V191.36C172.141 191.024 172.433 190.764 172.801 190.58C173.177 190.396 173.589 190.304 174.037 190.304ZM181.317 197.108C180.813 197.108 180.361 197.024 179.961 196.856C179.561 196.68 179.245 196.44 179.013 196.136C178.781 195.824 178.653 195.468 178.629 195.068H179.757C179.789 195.396 179.941 195.664 180.213 195.872C180.493 196.08 180.857 196.184 181.305 196.184C181.721 196.184 182.049 196.092 182.289 195.908C182.529 195.724 182.649 195.492 182.649 195.212C182.649 194.924 182.521 194.712 182.265 194.576C182.009 194.432 181.613 194.292 181.077 194.156C180.589 194.028 180.189 193.9 179.877 193.772C179.573 193.636 179.309 193.44 179.085 193.184C178.869 192.92 178.761 192.576 178.761 192.152C178.761 191.816 178.861 191.508 179.061 191.228C179.261 190.948 179.545 190.728 179.913 190.568C180.281 190.4 180.701 190.316 181.173 190.316C181.901 190.316 182.489 190.5 182.937 190.868C183.385 191.236 183.625 191.74 183.657 192.38H182.565C182.541 192.036 182.401 191.76 182.145 191.552C181.897 191.344 181.561 191.24 181.137 191.24C180.745 191.24 180.433 191.324 180.201 191.492C179.969 191.66 179.853 191.88 179.853 192.152C179.853 192.368 179.921 192.548 180.057 192.692C180.201 192.828 180.377 192.94 180.585 193.028C180.801 193.108 181.097 193.2 181.473 193.304C181.945 193.432 182.329 193.56 182.625 193.688C182.921 193.808 183.173 193.992 183.381 194.24C183.597 194.488 183.709 194.812 183.717 195.212C183.717 195.572 183.617 195.896 183.417 196.184C183.217 196.472 182.933 196.7 182.565 196.868C182.205 197.028 181.789 197.108 181.317 197.108ZM186.83 191.636C187.046 191.26 187.366 190.948 187.79 190.7C188.222 190.444 188.722 190.316 189.29 190.316C189.874 190.316 190.402 190.456 190.874 190.736C191.354 191.016 191.73 191.412 192.002 191.924C192.274 192.428 192.41 193.016 192.41 193.688C192.41 194.352 192.274 194.944 192.002 195.464C191.73 195.984 191.354 196.388 190.874 196.676C190.402 196.964 189.874 197.108 189.29 197.108C188.73 197.108 188.234 196.984 187.802 196.736C187.378 196.48 187.054 196.164 186.83 195.788V200.12H185.738V190.424H186.83V191.636ZM191.294 193.688C191.294 193.192 191.194 192.76 190.994 192.392C190.794 192.024 190.522 191.744 190.178 191.552C189.842 191.36 189.47 191.264 189.062 191.264C188.662 191.264 188.29 191.364 187.946 191.564C187.61 191.756 187.338 192.04 187.13 192.416C186.93 192.784 186.83 193.212 186.83 193.7C186.83 194.196 186.93 194.632 187.13 195.008C187.338 195.376 187.61 195.66 187.946 195.86C188.29 196.052 188.662 196.148 189.062 196.148C189.47 196.148 189.842 196.052 190.178 195.86C190.522 195.66 190.794 195.376 190.994 195.008C191.194 194.632 191.294 194.192 191.294 193.688ZM200.327 193.46C200.327 193.668 200.315 193.888 200.291 194.12H195.035C195.075 194.768 195.295 195.276 195.695 195.644C196.103 196.004 196.595 196.184 197.171 196.184C197.643 196.184 198.035 196.076 198.347 195.86C198.667 195.636 198.891 195.34 199.019 194.972H200.195C200.019 195.604 199.667 196.12 199.139 196.52C198.611 196.912 197.955 197.108 197.171 197.108C196.547 197.108 195.987 196.968 195.491 196.688C195.003 196.408 194.619 196.012 194.339 195.5C194.059 194.98 193.919 194.38 193.919 193.7C193.919 193.02 194.055 192.424 194.327 191.912C194.599 191.4 194.979 191.008 195.467 190.736C195.963 190.456 196.531 190.316 197.171 190.316C197.795 190.316 198.347 190.452 198.827 190.724C199.307 190.996 199.675 191.372 199.931 191.852C200.195 192.324 200.327 192.86 200.327 193.46ZM199.199 193.232C199.199 192.816 199.107 192.46 198.923 192.164C198.739 191.86 198.487 191.632 198.167 191.48C197.855 191.32 197.507 191.24 197.123 191.24C196.571 191.24 196.099 191.416 195.707 191.768C195.323 192.12 195.103 192.608 195.047 193.232H199.199ZM201.841 193.7C201.841 193.02 201.977 192.428 202.249 191.924C202.521 191.412 202.897 191.016 203.377 190.736C203.865 190.456 204.421 190.316 205.045 190.316C205.853 190.316 206.517 190.512 207.037 190.904C207.565 191.296 207.913 191.84 208.081 192.536H206.905C206.793 192.136 206.573 191.82 206.245 191.588C205.925 191.356 205.525 191.24 205.045 191.24C204.421 191.24 203.917 191.456 203.533 191.888C203.149 192.312 202.957 192.916 202.957 193.7C202.957 194.492 203.149 195.104 203.533 195.536C203.917 195.968 204.421 196.184 205.045 196.184C205.525 196.184 205.925 196.072 206.245 195.848C206.565 195.624 206.785 195.304 206.905 194.888H208.081C207.905 195.56 207.553 196.1 207.025 196.508C206.497 196.908 205.837 197.108 205.045 197.108C204.421 197.108 203.865 196.968 203.377 196.688C202.897 196.408 202.521 196.012 202.249 195.5C201.977 194.988 201.841 194.388 201.841 193.7ZM211.35 191.324V195.2C211.35 195.52 211.418 195.748 211.554 195.884C211.69 196.012 211.926 196.076 212.262 196.076H213.066V197H212.082C211.474 197 211.018 196.86 210.714 196.58C210.41 196.3 210.258 195.84 210.258 195.2V191.324H209.406V190.424H210.258V188.768H211.35V190.424H213.066V191.324H211.35ZM215.433 189.356C215.225 189.356 215.049 189.284 214.905 189.14C214.761 188.996 214.689 188.82 214.689 188.612C214.689 188.404 214.761 188.228 214.905 188.084C215.049 187.94 215.225 187.868 215.433 187.868C215.633 187.868 215.801 187.94 215.937 188.084C216.081 188.228 216.153 188.404 216.153 188.612C216.153 188.82 216.081 188.996 215.937 189.14C215.801 189.284 215.633 189.356 215.433 189.356ZM215.961 190.424V197H214.869V190.424H215.961ZM221.17 197.108C220.554 197.108 219.994 196.968 219.49 196.688C218.994 196.408 218.602 196.012 218.314 195.5C218.034 194.98 217.894 194.38 217.894 193.7C217.894 193.028 218.038 192.436 218.326 191.924C218.622 191.404 219.022 191.008 219.526 190.736C220.03 190.456 220.594 190.316 221.218 190.316C221.842 190.316 222.406 190.456 222.91 190.736C223.414 191.008 223.81 191.4 224.098 191.912C224.394 192.424 224.542 193.02 224.542 193.7C224.542 194.38 224.39 194.98 224.086 195.5C223.79 196.012 223.386 196.408 222.874 196.688C222.362 196.968 221.794 197.108 221.17 197.108ZM221.17 196.148C221.562 196.148 221.93 196.056 222.274 195.872C222.618 195.688 222.894 195.412 223.102 195.044C223.318 194.676 223.426 194.228 223.426 193.7C223.426 193.172 223.322 192.724 223.114 192.356C222.906 191.988 222.634 191.716 222.298 191.54C221.962 191.356 221.598 191.264 221.206 191.264C220.806 191.264 220.438 191.356 220.102 191.54C219.774 191.716 219.51 191.988 219.31 192.356C219.11 192.724 219.01 193.172 219.01 193.7C219.01 194.236 219.106 194.688 219.298 195.056C219.498 195.424 219.762 195.7 220.09 195.884C220.418 196.06 220.778 196.148 221.17 196.148ZM229.662 190.304C230.462 190.304 231.11 190.548 231.606 191.036C232.102 191.516 232.35 192.212 232.35 193.124V197H231.27V193.28C231.27 192.624 231.106 192.124 230.778 191.78C230.45 191.428 230.002 191.252 229.434 191.252C228.858 191.252 228.398 191.432 228.054 191.792C227.718 192.152 227.55 192.676 227.55 193.364V197H226.458V190.424H227.55V191.36C227.766 191.024 228.058 190.764 228.426 190.58C228.802 190.396 229.214 190.304 229.662 190.304ZM236.942 197.108C236.438 197.108 235.986 197.024 235.586 196.856C235.186 196.68 234.87 196.44 234.638 196.136C234.406 195.824 234.278 195.468 234.254 195.068H235.382C235.414 195.396 235.566 195.664 235.838 195.872C236.118 196.08 236.482 196.184 236.93 196.184C237.346 196.184 237.674 196.092 237.914 195.908C238.154 195.724 238.274 195.492 238.274 195.212C238.274 194.924 238.146 194.712 237.89 194.576C237.634 194.432 237.238 194.292 236.702 194.156C236.214 194.028 235.814 193.9 235.502 193.772C235.198 193.636 234.934 193.44 234.71 193.184C234.494 192.92 234.386 192.576 234.386 192.152C234.386 191.816 234.486 191.508 234.686 191.228C234.886 190.948 235.17 190.728 235.538 190.568C235.906 190.4 236.326 190.316 236.798 190.316C237.526 190.316 238.114 190.5 238.562 190.868C239.01 191.236 239.25 191.74 239.282 192.38H238.19C238.166 192.036 238.026 191.76 237.77 191.552C237.522 191.344 237.186 191.24 236.762 191.24C236.37 191.24 236.058 191.324 235.826 191.492C235.594 191.66 235.478 191.88 235.478 192.152C235.478 192.368 235.546 192.548 235.682 192.692C235.826 192.828 236.002 192.94 236.21 193.028C236.426 193.108 236.722 193.2 237.098 193.304C237.57 193.432 237.954 193.56 238.25 193.688C238.546 193.808 238.798 193.992 239.006 194.24C239.222 194.488 239.334 194.812 239.342 195.212C239.342 195.572 239.242 195.896 239.042 196.184C238.842 196.472 238.558 196.7 238.19 196.868C237.83 197.028 237.414 197.108 236.942 197.108Z" fill="white"/>
</svg>
