
<svg width="162" height="220" viewBox="0 0 162 220" fill="none" xmlns="http://www.w3.org/2000/svg">
<g clip-path="url(#clip0_3645_2057)">
<path d="M140.071 111.53L119.996 103.885C119.331 103.631 118.793 103.123 118.502 102.474C118.211 101.824 118.189 101.085 118.442 100.419L129.044 72.6309C129.169 72.3009 129.359 71.999 129.601 71.7422C129.844 71.4855 130.135 71.2791 130.457 71.1348C130.779 70.9904 131.127 70.911 131.48 70.901C131.833 70.891 132.184 70.9506 132.514 71.0765L145.223 75.9254L151.211 89.8367L143.542 109.98C143.287 110.646 142.778 111.183 142.127 111.473C141.476 111.764 140.737 111.784 140.071 111.53Z" fill="#EBEBEB"/>
<path d="M145.223 75.9258L142.246 83.7466C142.13 84.0547 142.076 84.3826 142.087 84.7116C142.098 85.0406 142.174 85.3642 142.31 85.6639C142.446 85.9636 142.64 86.2334 142.881 86.458C143.122 86.6826 143.404 86.8575 143.713 86.9727L151.231 89.8371L145.223 75.9258Z" fill="#E0E0E0"/>
<path d="M140.687 82.7835C140.648 82.8861 138.536 82.1725 135.97 81.1949C133.404 80.2173 131.361 79.3472 131.395 79.2397C131.429 79.1321 133.546 79.8507 136.112 80.8283C138.678 81.8059 140.721 82.6857 140.687 82.7835Z" fill="white"/>
<path d="M144.998 89.4898C144.959 89.5924 141.508 88.3704 137.29 86.7622C133.072 85.1541 129.674 83.7708 129.713 83.6681C129.753 83.5655 133.204 84.7875 137.427 86.3956C141.65 88.0038 145.037 89.3871 144.998 89.4898Z" fill="white"/>
<path d="M144.969 93.7081C144.93 93.8058 141.171 92.4665 136.571 90.7166C131.972 88.9667 128.262 87.4612 128.306 87.3585C128.35 87.2559 132.104 88.6001 136.708 90.35C141.313 92.0999 145.008 93.6054 144.969 93.7081Z" fill="white"/>
<path d="M143.644 97.1886C143.605 97.2912 139.841 95.9519 135.242 94.1971C130.642 92.4423 126.932 90.9466 126.981 90.8439C127.03 90.7413 130.779 92.0806 135.383 93.8354C139.988 95.5902 143.708 97.0908 143.644 97.1886Z" fill="white"/>
<path d="M142.315 100.693C142.281 100.796 138.517 99.4563 133.917 97.7015C129.318 95.9467 125.608 94.4461 125.652 94.3483C125.696 94.2505 129.454 95.585 134.054 97.3398C138.654 99.0946 142.354 100.571 142.315 100.693Z" fill="white"/>
<path d="M140.99 104.159C140.951 104.257 137.192 102.917 132.588 101.167C127.983 99.4174 124.278 97.9119 124.327 97.8092C124.376 97.7066 128.125 99.0508 132.729 100.801C137.334 102.551 141.029 104.056 140.99 104.159Z" fill="white"/>
<path d="M113.73 65.045C113.671 64.434 113.602 63.8279 113.519 63.2218C113.436 62.6156 113.338 61.946 113.231 61.3154C113.338 61.946 113.436 62.5814 113.519 63.2218C113.602 63.8621 113.671 64.434 113.73 65.045Z" fill="#F5F5F5"/>
<path d="M108.837 72.6017C108.309 71.409 108.191 70.0893 107.859 68.8379C107.798 68.4932 107.666 68.1649 107.471 67.8744C107.276 67.584 107.021 67.3377 106.725 67.1516C106.281 67.019 105.829 66.9161 105.371 66.8436C103.778 66.3548 103.343 64.1405 101.832 63.4513C101.345 63.2721 100.835 63.1666 100.317 63.1385C98.2981 62.899 96.2109 62.2 94.94 60.6163C94.5775 60.0638 94.1599 59.5496 93.6936 59.0814C93.1754 58.6611 92.3738 58.4851 91.8703 58.9103C92.2956 59.7609 92.716 60.6163 93.1314 61.457C93.4644 62.2481 93.9455 62.9681 94.549 63.5784C94.8561 63.8795 95.2422 64.0875 95.6626 64.1783C96.083 64.2692 96.5205 64.2391 96.9245 64.0916C97.161 63.9261 97.4382 63.828 97.7262 63.8081C97.9333 63.8529 98.1173 63.971 98.2443 64.1405C99.3441 65.3625 98.9873 67.3813 97.9119 68.6228C96.8366 69.8644 95.2626 70.5096 93.7376 71.1108C93.2101 71.3759 92.62 71.4908 92.0316 71.4432C90.9758 71.2477 90.4137 70.099 90.1058 69.0677C89.4165 66.785 89.0842 64.3018 87.6618 62.3808C87.1494 61.8205 86.7168 61.1922 86.3762 60.5136C86.0829 59.7462 86.1514 58.8517 85.6919 58.1771C85.2324 57.5026 84.201 57.0627 84.1326 56.2219C84.144 55.922 84.2426 55.632 84.4162 55.3872C84.5898 55.1424 84.831 54.9535 85.1102 54.8435C85.6577 54.5796 86.2687 54.5014 86.8308 54.2716C87.0508 54.1787 87.3196 54.0174 87.3196 53.7828C87.3196 53.426 86.8308 53.294 86.6988 52.947C86.5668 52.5999 86.9432 52.2235 87.1045 51.8569C87.4565 51.0211 86.5864 50.1803 85.7408 49.8382C84.8951 49.496 83.8931 49.2516 83.502 48.4304C83.3581 48.0384 83.2661 47.6292 83.2283 47.2133C83.1517 46.6902 82.9212 46.2016 82.566 45.8099C82.2109 45.4182 81.7472 45.141 81.234 45.0137C80.188 44.8426 79.0295 45.7713 79.1957 46.8125C79.2983 47.3844 79.7285 47.8292 79.9582 48.3571C80.188 48.885 80.1244 49.6671 79.5819 49.8235C78.6873 50.0972 77.827 48.4598 77.0743 49.0219C77.3822 50.0728 77.6804 51.1188 77.9884 52.1747C76.8103 52.771 75.4075 51.6859 74.904 50.4638C74.4006 49.2418 74.381 47.8488 73.7847 46.6707C73.1883 45.4927 71.5802 44.608 70.5586 45.4439C70.5048 46.9591 72.5138 47.575 73.3936 48.8019C74.034 49.6867 73.9411 51.1286 72.9928 51.6907C72.0445 52.2529 70.5488 51.2704 70.9252 50.2243C71.0523 49.8675 71.3504 49.5693 71.3846 49.1881C71.4189 48.6993 71.018 48.3278 70.6514 48.0198L68.9406 46.5534C68.5891 46.2179 68.1735 45.9569 67.7186 45.786C66.5455 45.4487 65.3675 46.4019 64.7467 47.4479C64.1259 48.494 63.7691 49.7404 62.9137 50.6203C61.677 51.896 59.3357 51.9742 58.1772 50.6203C57.0187 49.2663 57.6053 46.7783 59.3161 46.2944C59.9662 46.1135 60.7825 46.1331 61.1247 45.5612C61.721 44.5445 60.0151 43.2491 60.6066 42.2275C61.0563 41.4455 62.2489 41.8023 63.119 41.5383C63.9891 41.2744 64.4632 40.4043 64.9764 39.6564C65.4897 38.9086 66.2718 38.19 67.1565 38.3611C67.0366 37.8449 67.0689 37.305 67.2494 36.8067C67.3021 36.6882 67.378 36.5814 67.4724 36.4925C67.5669 36.4036 67.6781 36.3344 67.7995 36.2889C67.921 36.2434 68.0503 36.2226 68.1799 36.2276C68.3095 36.2325 68.4369 36.2633 68.5545 36.3179C68.1194 37.0316 68.6425 38.0287 69.4001 38.3856C70.1936 38.6736 71.0514 38.7362 71.8783 38.5664C72.7142 38.4638 73.7602 38.1558 73.8335 37.3249C73.7942 37.0525 73.7942 36.776 73.8335 36.5037C74.2001 35.5261 76.0429 36.88 76.7664 36.0784C77.1721 35.6629 76.7224 34.9199 76.1505 34.7831C75.5786 34.6462 75.0018 34.8515 74.4201 34.8711C73.8384 34.8906 73.1346 34.5876 73.1101 34.0059C73.0857 33.4242 73.7211 33.0283 73.7896 32.4662C73.902 31.4886 72.284 31.2637 71.7121 32.0409C71.1402 32.8181 71.3455 33.8788 71.5166 34.8271C71.6877 35.7753 71.7806 36.8898 71.0816 37.5546C70.7834 38.0043 70.0062 37.7648 69.752 37.2906C69.5591 36.7826 69.4742 36.2399 69.5028 35.6971C69.4637 35.1497 69.2241 34.5387 68.6962 34.392C68.3135 34.3597 67.9283 34.4029 67.5622 34.5191C66.0958 34.7 65.0498 32.779 65.519 31.3664C65.9883 29.9537 67.3227 29.0299 68.6278 28.3065C69.6054 27.7785 70.7639 27.2849 71.7121 27.8177C72.157 28.0621 72.46 28.4922 72.895 28.7464C73.6478 29.1863 74.5765 29.025 75.4368 29.0445C76.8006 29.0819 78.1096 29.5896 79.1419 30.4816C79.5232 30.8336 79.8849 31.4103 79.5867 31.8307C79.2886 32.2511 78.3305 32.3684 78.4918 32.8865C78.741 32.9559 79.002 32.9723 79.258 32.9347C79.5139 32.8971 79.7592 32.8063 79.9779 32.6681C80.1966 32.53 80.384 32.3476 80.5279 32.1326C80.6719 31.9177 80.7692 31.675 80.8136 31.4201C81.0716 31.5378 81.2923 31.724 81.4517 31.9584C81.6112 32.1928 81.7032 32.4665 81.7179 32.7497C81.9983 32.4906 82.3294 32.2925 82.6904 32.1681C83.0513 32.0437 83.4341 31.9956 83.8146 32.0268C84.1951 32.058 84.5649 32.168 84.9007 32.3496C85.2365 32.5313 85.5309 32.7807 85.7652 33.0821C85.9542 33.4499 86.2074 33.781 86.5131 34.0597C86.8552 34.2796 87.4516 34.1721 87.4907 33.7713C87.495 33.6424 87.4716 33.514 87.4222 33.3949C87.2169 32.8132 87.0019 32.2462 86.7966 31.6743C87.5933 31.249 88.5269 31.9138 89.0646 32.6519C91.0589 35.3208 92.4862 33.7175 95.292 34.1525C97.1934 34.4409 98.0292 35.658 99.1046 37.1342C102.394 41.6654 106.74 45.3852 109.731 50.1217C110.044 50.6105 110.332 51.0993 110.606 51.6272C110.557 51.5001 110.513 51.373 110.459 51.2459C109.294 48.1693 107.839 45.2102 106.114 42.4084C105.747 41.8121 105.376 41.2255 104.99 40.6438C104.75 40.287 104.501 39.9204 104.257 39.5733C103.944 39.0845 103.611 38.6691 103.279 38.2242C103.015 37.8674 102.751 37.5204 102.477 37.1782C102.292 36.9387 102.096 36.6894 101.901 36.4597C101.705 36.2299 101.47 35.9269 101.236 35.658L100.517 34.832C100.449 34.7489 100.371 34.6658 100.288 34.5778C100.038 34.2894 99.7743 34.0059 99.5103 33.7273C99.4932 33.6925 99.4681 33.6624 99.437 33.6393L99.2121 33.4095C99.002 33.17 98.7722 32.9207 98.5474 32.7106C98.1808 32.3391 97.8093 31.9627 97.4231 31.6059C97.1103 31.2881 96.7877 30.99 96.4455 30.6918C96.1034 30.3936 95.8638 30.1639 95.5657 29.9097C95.2675 29.6555 94.984 29.4209 94.6858 29.157C94.3877 28.893 93.9624 28.5557 93.5909 28.2576C92.5595 27.4266 91.494 26.6445 90.4039 25.9113C90.1302 25.7256 89.8662 25.5447 89.5925 25.3688C89.3188 25.1928 89.0402 25.007 88.7664 24.8408C88.4927 24.6747 88.2141 24.4889 87.9306 24.352C87.6471 24.2152 87.3685 24.0099 87.0899 23.8632C86.8112 23.7166 86.6353 23.5993 86.4055 23.482C86.2942 23.4095 86.1782 23.3441 86.0585 23.2865C85.5697 23.0127 85.0809 22.7488 84.5921 22.4995C84.3477 22.3724 84.1033 22.2453 83.8442 22.1231C83.5851 22.0009 83.2039 21.8103 82.8666 21.6636C82.8196 21.637 82.7706 21.6141 82.72 21.5952L81.845 21.1944C81.4246 21.0184 81.0092 20.8376 80.5888 20.6665C80.1684 20.4954 79.6356 20.2754 79.1517 20.0995C78.6678 19.9235 78.0763 19.6987 77.5338 19.5178C76.9912 19.3369 76.434 19.1512 75.8767 18.9801C75.3195 18.809 74.772 18.6575 74.2099 18.4913C73.1085 18.1361 71.9973 17.8379 70.8763 17.5968C70.8568 17.599 70.8371 17.599 70.8176 17.5968C70.3826 17.5137 69.9476 17.4257 69.5125 17.3573H69.4294L68.8478 17.2595C68.0412 17.1276 67.2201 17.0151 66.4038 16.9223C66.3051 16.9055 66.2055 16.8941 66.1056 16.888C65.8661 16.8538 65.6168 16.8343 65.3822 16.8098C64.8347 16.761 64.2921 16.717 63.7349 16.6827C63.1777 16.6485 62.5862 16.6143 62.0094 16.5996C61.4326 16.585 60.7972 16.5654 60.1911 16.5654C58.5927 16.5654 57.0041 16.629 55.4399 16.7756C55.0635 16.7756 54.6969 16.8343 54.3303 16.8783C53.9637 16.9223 53.5629 16.9614 53.1817 17.0151C52.8004 17.0689 52.4142 17.1178 52.0379 17.1764C51.6615 17.2351 51.2802 17.2937 50.8941 17.3622C50.5079 17.4306 50.2391 17.4746 49.9165 17.543C49.1148 17.6929 48.323 17.8559 47.5409 18.0318C47.1759 18.1166 46.8093 18.2094 46.4411 18.3105C46.0745 18.4033 45.7079 18.506 45.351 18.6086C44.7449 18.7797 44.1535 18.9654 43.5669 19.1561L42.1396 19.6449C42.1286 19.6408 42.1164 19.6408 42.1054 19.6449C41.6166 19.8111 41.1278 19.9919 40.6732 20.1777L40.595 20.207C40.16 20.3732 39.7249 20.5541 39.2997 20.7349C38.762 20.9549 38.2341 21.1944 37.716 21.4339C37.2712 21.6392 36.8361 21.8396 36.4109 22.0547C35.9856 22.2697 35.4919 22.5142 35.0373 22.7537H34.9884C34.5534 22.9834 34.1184 23.2425 33.6931 23.4722C33.2679 23.7019 32.8133 23.961 32.3831 24.2445C31.9725 24.4938 31.5717 24.7333 31.1709 24.9973C31.0194 25.0901 30.8727 25.1928 30.7212 25.2954C30.2959 25.5643 29.8854 25.8478 29.4699 26.1362C28.9811 26.4881 28.4629 26.8547 27.9692 27.2213C27.4756 27.5879 27.109 27.8763 26.6886 28.1989C24.2783 30.1212 22.0379 32.2471 19.992 34.5533C19.2686 35.3501 18.5842 36.1713 17.9244 36.9974C17.3574 37.711 16.8148 38.4344 16.2918 39.1872C15.8274 39.8373 15.3728 40.5021 14.9378 41.1766C15.3728 40.5021 15.8274 39.8373 16.2918 39.1872C16.4286 39.1676 16.5655 39.153 16.7024 39.1432C17.4745 39.1616 18.2434 39.0373 18.9704 38.7766C19.6107 38.4589 20.0604 37.8919 20.6421 37.4813C22.1085 36.4255 24.5525 36.2299 24.9533 34.4556C25.0902 33.8592 24.924 33.214 25.1489 32.6421C25.5643 31.5765 26.9868 31.4201 28.1306 31.4397C28.6194 31.4397 29.1864 31.5081 29.4063 31.9285C29.4669 32.0858 29.4938 32.2541 29.4854 32.4225C29.477 32.5908 29.4334 32.7556 29.3574 32.9061C28.6448 34.9095 27.2639 36.6063 25.447 37.711C23.9806 38.6153 22.0254 39.3143 21.6197 41.0006C21.825 41.5725 22.8662 41.5285 22.9492 42.1249C23.0079 42.6137 22.3969 42.8532 22.1721 43.2785C21.8494 43.8992 22.5924 44.6569 23.2963 44.6227C24.0002 44.5884 24.5916 44.0801 25.1146 43.6011C26.6641 42.1591 28.2919 40.6096 28.854 38.5664C29.0935 37.7208 29.1766 36.7334 29.8609 36.1713C30.0716 36.023 30.3138 35.9256 30.5685 35.8867C30.8232 35.8479 31.0834 35.8685 31.3287 35.9472C31.5741 36.0258 31.7979 36.1602 31.9825 36.3399C32.1671 36.5196 32.3076 36.7396 32.3929 36.9827C33.0626 36.6063 34.1135 36.3228 34.4605 37.0218C34.5412 37.2822 34.5904 37.5513 34.6072 37.8234C34.8271 38.9135 36.318 39.4072 36.4744 40.507C36.6504 41.7778 35.008 42.4328 33.7518 42.6284L30.3008 43.1758C29.7954 43.2136 29.3061 43.3711 28.8735 43.6353C28.6602 43.7763 28.5013 43.9859 28.4231 44.2294C28.3449 44.4729 28.3521 44.7357 28.4434 44.9746C28.6166 45.2017 28.8169 45.4069 29.0397 45.5856C30.0173 46.5632 29.2108 48.5184 27.8666 48.5526C27.4071 48.5526 26.9525 48.4011 26.4931 48.3816C25.1293 48.3229 24.0491 49.5253 23.3989 50.7229C22.7488 51.9205 22.2698 53.2989 21.1749 54.1152C19.4201 55.435 16.3944 55.1319 15.5439 57.1604C15.2017 57.9767 15.3826 58.8957 15.5195 59.7755C15.6563 60.6554 15.715 61.6134 15.2017 62.3417C14.6885 63.0701 13.3883 63.2069 13.0119 62.4053C12.8848 62.0419 12.8678 61.6491 12.963 61.2761C13.1683 60.015 13.3638 58.7539 13.5594 57.4928C13.706 56.5543 13.8331 55.5034 13.2759 54.7409C12.5035 53.6655 10.7634 53.7633 9.75648 54.6284C8.74955 55.4936 8.34384 56.8329 8.06523 58.1234C7.87167 59.2866 7.5436 60.4233 7.08762 61.5108C6.90677 62.5715 6.76501 63.642 6.65259 64.7271C6.54016 65.8122 6.46684 66.9316 6.42285 68.0558C6.5766 67.9303 6.72193 67.7948 6.85789 67.6501C7.39557 67.0929 8.47582 64.7515 9.44854 65.9002C9.56586 66.0531 9.62946 66.2403 9.62946 66.433C9.62946 66.6257 9.56586 66.813 9.44854 66.9658C9.15037 67.352 8.55403 67.4546 8.32429 67.8505C8.04567 68.3393 8.43672 68.9601 8.89619 69.2827C9.35566 69.6053 9.91779 69.8204 10.2404 70.2897C10.8661 71.1842 10.2697 72.5382 10.8709 73.4522C11.394 74.2343 12.4987 74.2881 13.4469 74.3858L13.7695 74.4396C14.0335 72.5626 14.9133 71.018 17.4698 70.4607C20.994 69.6591 25.6328 72.5821 27.6173 75.2412C29.8169 78.2865 30.8434 82.495 34.2161 83.9859C36.6601 85.0515 40.0818 84.6702 41.2793 87.0458C42.34 89.177 40.4972 91.5721 40.2186 93.933C40.0378 95.4923 40.551 97.0418 40.6683 98.6011C40.7856 100.16 40.3164 101.993 38.894 102.648C38.1021 103.005 37.105 102.966 36.45 103.562C35.3208 104.633 36.2496 106.852 35.1155 107.923C34.6666 108.246 34.1725 108.501 33.6491 108.68C31.1611 109.98 31.2296 113.72 32.4125 116.335C32.4564 116.433 32.5004 116.516 32.5395 116.609C40.888 121.597 50.4315 124.232 60.1569 124.234C68.9676 124.247 77.6457 122.088 85.423 117.948C87.0577 117.071 88.6468 116.112 90.184 115.074C92.5531 113.484 94.7909 111.708 96.8757 109.76C98.3167 108.414 99.681 106.988 100.962 105.488C101.866 104.447 102.722 103.367 103.538 102.257C103.954 101.69 104.364 101.118 104.745 100.532C107.64 96.2837 109.898 91.6348 111.447 86.733C112.399 83.7575 113.086 80.7036 113.5 77.607C113.663 76.3948 113.788 75.1695 113.876 73.9312C113.597 74.2286 113.262 74.468 112.891 74.6358C112.519 74.8035 112.118 74.8963 111.711 74.9088C110.425 74.8795 109.36 73.809 108.837 72.6017Z" fill="#F5F5F5"/>
<path d="M13.3541 84.5334C13.183 82.9888 13.6914 81.4491 13.7207 79.8898C13.7207 78.8144 13.6572 77.6804 13.6425 76.6002C12.7204 76.5565 11.8042 76.4289 10.9052 76.2189C10.7174 76.1913 10.5447 76.0998 10.4164 75.9598C10.3234 75.7845 10.2859 75.5851 10.3089 75.3879C10.2405 74.1806 9.07222 73.379 8.02618 72.7728C7.50058 72.4464 6.94388 72.173 6.36426 71.9565C6.36426 72.0836 6.36426 72.2058 6.36426 72.3329C6.56528 78.1839 7.72105 83.9627 9.78587 89.441C10.7026 91.8719 11.8023 94.2298 13.0755 96.4944C13.6034 97.472 14.1851 98.4496 14.7863 99.3832C15.5391 100.551 16.3212 101.695 17.1668 102.805C18.0124 103.914 18.7847 104.892 19.6646 105.879C20.865 107.248 22.136 108.553 23.4723 109.79C24.652 110.895 25.8854 111.936 27.1726 112.913C24.2397 105.024 21.4634 96.9685 16.4189 90.2524C15.1138 88.5025 13.5985 86.7135 13.3541 84.5334Z" fill="#F5F5F5"/>
<g opacity="0.6">
<path d="M30.1885 115.098C30.6382 115.406 31.0976 115.704 31.562 115.993C31.8846 116.198 32.2072 116.393 32.5396 116.589C32.2072 116.393 31.8846 116.198 31.562 115.993C31.0976 115.704 30.6382 115.406 30.1885 115.098Z" fill="#F5F5F5"/>
</g>
<path d="M75.7888 111.72C75.4519 111.721 75.1159 111.685 74.7868 111.613C74.2765 111.523 73.7949 111.313 73.3818 111C72.9688 110.687 72.6361 110.281 72.4112 109.814C72.1229 109.068 71.9818 108.273 71.9957 107.473C71.9885 106.934 71.9312 106.397 71.8247 105.869C71.5539 104.945 71.1274 104.074 70.5635 103.293C70.137 102.668 69.7704 102.003 69.4686 101.309C69.0356 99.9932 68.8354 98.6119 68.8772 97.2274V96.895C68.5937 87.422 65.9444 79.7332 61.2421 74.6643C60.6412 73.9114 59.8397 73.3437 58.9301 73.0268C58.3896 72.8931 57.8221 72.9184 57.2957 73.0996C56.7694 73.2809 56.3066 73.6103 55.963 74.0484C55.7988 74.2828 55.6502 74.5277 55.5182 74.7816C55.3207 75.191 55.0582 75.5657 54.741 75.8912C54.4842 76.1144 54.1801 76.2765 53.8516 76.3654C53.5232 76.4543 53.1788 76.4676 52.8445 76.4044C52.3559 76.3186 51.8915 76.1283 51.4832 75.8466C51.0749 75.5648 50.7323 75.1982 50.4787 74.7718C49.6428 73.3054 49.7943 71.4822 49.9165 70.0256L50.4054 64.1599C50.4836 63.2557 50.5862 62.0141 51.3194 61.1636C51.9277 60.5652 52.6804 60.1341 53.5044 59.9123C54.099 59.7214 54.6648 59.45 55.1858 59.1057C56.1292 58.397 56.5496 57.2825 56.9944 56.0996C57.2221 55.4242 57.5084 54.77 57.8498 54.1444C58.2068 53.586 58.7098 53.1359 59.3044 52.843C59.8989 52.55 60.5622 52.4254 61.2225 52.4825C61.4805 52.5084 61.7282 52.5973 61.9439 52.7413C62.1595 52.8853 62.3365 53.0801 62.4592 53.3085C62.6673 52.8408 62.9696 52.421 63.3473 52.0754C63.7249 51.7297 64.1697 51.4656 64.6539 51.2996C66.6091 50.7423 68.9749 52.2772 71.2674 53.7729C73.3644 55.1318 75.3391 56.4173 76.8935 56.1338C77.2846 56.0605 77.6854 55.953 78.0667 55.8405C78.8764 55.5531 79.7365 55.435 80.5938 55.4935C82.8569 55.8112 84.0154 58.265 84.7632 60.3815L88.4439 70.6463C88.9034 71.927 89.4949 73.3348 90.712 73.804C91.2089 73.965 91.7295 74.041 92.2517 74.0289C92.7931 74.0229 93.3322 74.1003 93.8501 74.2586C94.2957 74.416 94.6893 74.6932 94.9876 75.0596C95.286 75.4261 95.4776 75.8677 95.5413 76.336C95.8542 78.0321 95.0037 80.2464 93.5617 81.5026C92.8735 82.0737 92.1539 82.6057 91.4061 83.0961C89.7441 84.2253 88.1702 85.2957 87.4957 87.0554C87.1836 88.0281 87.0317 89.045 87.046 90.0664C87.0624 91.1678 86.8837 92.2633 86.518 93.3023C86.1065 94.1575 85.5675 94.9453 84.9197 95.6388C84.5358 96.0715 84.1784 96.5269 83.8492 97.0025C82.6712 98.7769 82.3437 100.977 82.026 103.108C81.9869 103.381 81.9477 103.65 81.9038 103.924C81.5372 106.295 80.9017 108.944 78.9709 110.591C78.0755 111.329 76.9491 111.729 75.7888 111.72Z" fill="#EBEBEB"/>
<path d="M13.7353 74.513L13.4127 74.4592C12.4645 74.3615 11.3598 74.3077 10.8367 73.5256C10.2355 72.6116 10.8367 71.2576 10.2062 70.3631C9.88359 69.8743 9.32146 69.6885 8.86199 69.3561C8.40252 69.0238 8.01147 68.4323 8.30964 67.9435C8.53938 67.528 9.13572 67.4547 9.43389 67.0588C9.55121 66.9059 9.61481 66.7187 9.61481 66.526C9.61481 66.3333 9.55121 66.146 9.43389 65.9932C8.45628 64.8445 7.38092 67.1859 6.84324 67.7431C6.70728 67.8877 6.56195 68.0232 6.4082 68.1488C6.4082 68.2514 6.4082 68.3443 6.4082 68.447C6.4082 68.7647 6.4082 69.0922 6.4082 69.4246C6.4082 69.757 6.4082 70.0698 6.4082 70.4022C6.4082 70.7346 6.4082 70.9301 6.4082 71.194C6.4082 71.458 6.4082 71.7219 6.4082 71.981C6.98782 72.1975 7.54452 72.4709 8.07013 72.7973C9.11617 73.4034 10.2844 74.2051 10.3528 75.4124C10.3298 75.6095 10.3673 75.809 10.4604 75.9843C10.5887 76.1243 10.7613 76.2157 10.9492 76.2434C11.8481 76.4534 12.7643 76.581 13.6865 76.6246" fill="#EBEBEB"/>
<path d="M13.6426 76.6003C13.6426 77.6806 13.7355 78.8146 13.7208 79.8899C13.6915 81.4492 13.1831 82.9889 13.3542 84.5336C13.5986 86.7136 15.1139 88.5026 16.4385 90.2574C21.4634 96.9736 24.2349 105.029 27.1922 112.918C27.7347 113.353 28.292 113.759 28.8541 114.16C29.294 114.482 29.7437 114.795 30.1983 115.098C30.6529 115.401 31.1075 115.704 31.5718 115.993C31.8945 116.198 32.2171 116.394 32.5494 116.589C32.5103 116.496 32.4664 116.413 32.4224 116.315C31.2395 113.72 31.171 109.961 33.7177 108.68C34.241 108.501 34.7351 108.246 35.1841 107.923C36.3181 106.852 35.3894 104.633 36.5185 103.563C37.1589 102.966 38.156 103.005 38.9625 102.649C40.3849 101.994 40.8493 100.17 40.7369 98.6013C40.6245 97.0322 40.1063 95.4925 40.2872 93.9332C40.5658 91.5723 42.4086 89.1772 41.3479 87.046C40.1161 84.6704 36.6603 85.0517 34.2163 83.9861C30.824 82.5197 29.7779 78.2867 27.5637 75.3148C25.5791 72.6557 20.9404 69.7326 17.4161 70.5343C14.8597 71.1111 13.9945 72.6361 13.7159 74.5131" fill="#EBEBEB"/>
<path d="M9.70276 54.702C10.7097 53.8417 12.4498 53.7243 13.2221 54.8144C13.7794 55.5769 13.6523 56.6278 13.5056 57.5663C13.3101 58.8274 13.1146 60.0885 12.9093 61.3497C12.8141 61.7226 12.8311 62.1154 12.9582 62.4788C13.3346 63.2804 14.6494 63.1289 15.148 62.4152C15.6466 61.7016 15.6026 60.7191 15.4657 59.849C15.3289 58.979 15.148 58.0502 15.4902 57.2339C16.3407 55.2054 19.3664 55.5085 21.1212 54.1887C22.2161 53.3724 22.7 51.9989 23.3452 50.7964C23.9904 49.594 25.0756 48.3915 26.4393 48.4551C26.8988 48.4551 27.3534 48.6408 27.8129 48.6261C29.1571 48.5821 29.9441 46.6172 28.986 45.6591C28.7632 45.4804 28.5629 45.2752 28.3897 45.0481C28.3002 44.8071 28.296 44.5427 28.3779 44.299C28.4597 44.0553 28.6226 43.847 28.8394 43.7088C29.272 43.4446 29.7612 43.2872 30.2667 43.2493L33.7176 42.7019C34.9885 42.5063 36.6162 41.8513 36.4402 40.5805C36.2838 39.4807 34.793 38.987 34.573 37.8969C34.5562 37.6248 34.507 37.3557 34.4264 37.0953C34.0793 36.3963 33.0284 36.6798 32.3587 37.0562C32.2739 36.8116 32.1332 36.5901 31.9478 36.4092C31.7625 36.2284 31.5375 36.0933 31.2909 36.0146C31.0442 35.9358 30.7826 35.9156 30.5267 35.9556C30.2709 35.9955 30.0279 36.0946 29.817 36.2448C29.1326 36.8069 29.0495 37.7943 28.81 38.6399C28.2479 40.6831 26.6202 42.2326 25.0707 43.6746C24.5477 44.1634 23.9611 44.6522 23.2524 44.6962C22.5436 44.7402 21.7859 43.9727 22.1281 43.352C22.353 42.9267 22.964 42.6774 22.9053 42.1984C22.8222 41.6021 21.7811 41.646 21.5758 41.0741C21.9961 39.3878 23.9073 38.6888 25.4177 37.7845C27.2346 36.6798 28.6155 34.983 29.3282 32.9796C29.4041 32.8291 29.4477 32.6643 29.4561 32.496C29.4645 32.3276 29.4376 32.1593 29.377 32.002C29.1571 31.5767 28.5852 31.5132 28.1013 31.5132C26.9575 31.5132 25.5351 31.65 25.1196 32.7156C24.8947 33.2875 25.0609 33.9328 24.9241 34.5291C24.5232 36.3034 22.0939 36.4843 20.6128 37.5548C20.0311 37.9654 19.5815 38.5324 18.9411 38.8501C18.2141 39.1108 17.4452 39.2351 16.6731 39.2167C16.5362 39.2167 16.3994 39.2314 16.2625 39.2607C15.7981 39.9108 15.3435 40.5756 14.9085 41.2501C14.4735 41.9247 14.0531 42.6139 13.6474 43.308C11.7232 46.6014 10.1582 50.0919 8.97934 53.7195C8.56386 54.9952 8.19237 56.2857 7.87464 57.6005C7.55692 58.9154 7.28319 60.2498 7.06323 61.5989C7.51921 60.5115 7.84728 59.3747 8.04084 58.2115C8.30968 56.9064 8.70561 55.5622 9.70276 54.702Z" fill="#EBEBEB"/>
<path d="M54.873 29.7242C55.3618 29.0594 55.2299 28.0965 55.5623 27.329C56.1097 26.0435 57.8156 25.584 58.4071 24.3229C58.6319 23.8341 58.6906 23.2427 59.0865 22.8809C59.4824 22.5192 59.9077 22.5192 60.2596 22.2455C61.0564 21.6394 60.7484 20.2561 59.8833 19.7184C57.7716 18.3693 53.8857 19.9286 52.0624 21.2483C49.7162 22.9445 47.4237 24.9926 44.3003 24.7922C43.44 24.7384 42.5455 24.4989 41.7389 24.7922C40.9324 25.0854 40.4387 26.3026 41.1328 26.8158C41.519 27.0993 42.0664 27.0211 42.5015 27.2215C43.3031 27.5979 43.3862 28.7612 42.9903 29.5531C42.5943 30.345 41.8905 30.9462 41.4261 31.6989C40.9748 32.4389 40.7726 33.3041 40.8493 34.1674C40.8586 34.4667 40.9279 34.761 41.053 35.033C41.1781 35.3051 41.3565 35.5492 41.5776 35.7511C42.5552 36.5283 44.0216 35.8635 44.8477 34.9299C45.6738 33.9963 46.2408 32.7987 47.2917 32.1584C47.8411 31.8682 48.431 31.6623 49.0416 31.5474L53.1134 30.5698C53.7793 30.4972 54.4003 30.1987 54.873 29.7242Z" fill="#EBEBEB"/>
<g opacity="0.6">
<path d="M113.979 69.6397C113.979 68.8625 113.95 68.0951 113.91 67.3276C113.95 68.0951 113.974 68.8625 113.979 69.6397C113.979 69.8841 113.979 70.1285 113.979 70.3778C113.979 71.5753 113.935 72.7485 113.871 73.9265C113.935 72.7485 113.979 71.5753 113.979 70.3778C113.994 70.1334 113.994 69.8987 113.979 69.6397Z" fill="#F5F5F5"/>
</g>
<g opacity="0.6">
<path d="M110.611 51.5732C110.865 52.2576 111.1 52.9419 111.335 53.6311C111.11 52.9419 110.846 52.2576 110.611 51.5732Z" fill="#F5F5F5"/>
</g>
<path d="M113.979 69.6396C113.979 68.8624 113.95 68.095 113.911 67.3276C113.871 66.5602 113.808 65.8025 113.73 65.0449C113.671 64.4339 113.603 63.8278 113.52 63.2217C113.436 62.6155 113.339 61.9459 113.231 61.3153C112.915 59.4297 112.496 57.5629 111.975 55.7234C111.775 55.0196 111.559 54.3255 111.335 53.6314C111.11 52.9373 110.846 52.2578 110.611 51.5735C110.337 51.0847 110.049 50.5617 109.736 50.068C106.745 45.3315 102.404 41.6117 99.1097 37.0805C98.0343 35.6141 97.1985 34.3872 95.297 34.0988C92.4864 33.6638 91.064 35.2671 89.0697 32.5982C88.532 31.8846 87.6033 31.2198 86.8016 31.6206C87.0069 32.1925 87.222 32.7595 87.4273 33.3412C87.4781 33.4634 87.5014 33.5952 87.4957 33.7273C87.4517 34.1282 86.8554 34.2161 86.5181 34.0157C86.2125 33.7371 85.9592 33.406 85.7703 33.0381C85.5359 32.7368 85.2415 32.4874 84.9057 32.3057C84.57 32.1241 84.2001 32.0141 83.8196 31.9829C83.4392 31.9516 83.0563 31.9997 82.6954 32.1242C82.3345 32.2486 82.0034 32.4467 81.723 32.7057C81.6974 32.4356 81.6012 32.177 81.4443 31.9557C81.2873 31.7343 81.0749 31.5581 80.8285 31.4446C80.784 31.6995 80.6867 31.9422 80.5428 32.1571C80.3988 32.3721 80.2114 32.5545 79.9927 32.6927C79.774 32.8308 79.5288 32.9216 79.2728 32.9592C79.0169 32.9968 78.7559 32.9804 78.5067 32.911C78.3454 32.3929 79.2741 32.3 79.6016 31.8552C79.9291 31.4104 79.538 30.8776 79.1568 30.5061C78.1245 29.6141 76.8155 29.1064 75.4517 29.0691C74.5914 29.0691 73.6626 29.2108 72.9099 28.7709C72.4749 28.5167 72.1718 28.0866 71.727 27.8422C70.7787 27.3045 69.5958 27.7982 68.6426 28.331C67.3375 29.0544 65.9933 29.9685 65.5339 31.3909C65.0744 32.8133 66.096 34.7245 67.5771 34.5436C67.9431 34.4274 68.3284 34.3843 68.7111 34.4166C69.239 34.5632 69.4785 35.1742 69.5176 35.7217C69.4891 36.2644 69.574 36.8071 69.7669 37.3151C70.0211 37.8039 70.7983 38.0288 71.0964 37.5791C71.7954 36.9143 71.7074 35.795 71.5315 34.8516C71.3555 33.9082 71.1649 32.8377 71.727 32.0654C72.2891 31.2931 73.9168 31.5375 73.8044 32.4907C73.736 33.0528 73.1005 33.4683 73.125 34.0304C73.1494 34.5925 73.8582 34.92 74.4349 34.8956C75.0117 34.8711 75.6032 34.661 76.1653 34.8076C76.7274 34.9542 77.1869 35.6874 76.7812 36.1029C76.0724 36.9046 74.2297 35.531 73.8484 36.5282C73.8091 36.8005 73.8091 37.077 73.8484 37.3494C73.78 38.1803 72.7339 38.4883 71.8932 38.5909C71.0663 38.7607 70.2085 38.6981 69.4149 38.4101C68.6573 38.0532 68.1343 37.0561 68.5693 36.3424C68.4517 36.2878 68.3244 36.257 68.1948 36.2521C68.0652 36.2471 67.9359 36.268 67.8144 36.3135C67.6929 36.3589 67.5817 36.4282 67.4873 36.5171C67.3928 36.6059 67.317 36.7127 67.2642 36.8312C67.0837 37.3295 67.0515 37.8694 67.1713 38.3856C66.2866 38.1901 65.4948 38.938 64.9913 39.681C64.4878 40.4239 64.0137 41.2989 63.1338 41.5628C62.254 41.8268 61.0711 41.47 60.6214 42.2521C60.0299 43.2736 61.7359 44.569 61.1395 45.5857C60.7974 46.1576 59.9811 46.138 59.331 46.3189C57.6202 46.8077 57.0238 49.3104 58.1921 50.6448C59.3603 51.9792 61.6919 51.9059 62.9286 50.6448C63.7888 49.7649 64.1408 48.5283 64.7616 47.4725C65.3823 46.4166 66.5604 45.4733 67.7335 45.8105C68.1883 45.9814 68.604 46.2425 68.9555 46.5779L70.6663 48.0444C71.0329 48.3523 71.4337 48.7336 71.3995 49.2126C71.3653 49.5939 71.0671 49.892 70.94 50.2489C70.5832 51.2802 72.074 52.2627 73.0076 51.7153C73.9413 51.1678 74.0488 49.7112 73.4085 48.8264C72.5237 47.5995 70.5196 46.9837 70.5734 45.4684C71.595 44.6325 73.2032 45.5124 73.7995 46.6953C74.3958 47.8782 74.4154 49.2664 74.9189 50.4884C75.4223 51.7104 76.8252 52.7955 78.0032 52.1992C77.6953 51.1434 77.3971 50.0973 77.0891 49.0464C77.8419 48.4843 78.7022 50.1218 79.5967 49.848C80.1393 49.677 80.2077 48.8704 79.9731 48.3816C79.7384 47.8928 79.3132 47.404 79.2105 46.837C79.0443 45.7959 80.1881 44.8818 81.2488 45.0382C81.762 45.1656 82.2257 45.4427 82.5809 45.8344C82.936 46.2261 83.1666 46.7147 83.2432 47.2378C83.281 47.6537 83.373 48.0629 83.5169 48.4549C83.9079 49.2761 84.9198 49.5205 85.7556 49.8627C86.5915 50.2049 87.4713 51.0456 87.1194 51.8814C86.9581 52.2481 86.5768 52.6 86.7136 52.9715C86.8505 53.343 87.3344 53.4603 87.3344 53.8073C87.3344 54.0468 87.0754 54.2081 86.8456 54.2961C86.2835 54.5259 85.6725 54.6041 85.125 54.868C84.8458 54.978 84.6046 55.1669 84.431 55.4117C84.2574 55.6565 84.1589 55.9466 84.1474 56.2465C84.2159 57.1019 85.2277 57.5076 85.7067 58.2017C86.1857 58.8958 86.0978 59.7707 86.391 60.5381C86.7317 61.2167 87.1643 61.845 87.6766 62.4054C89.0892 64.3263 89.4216 66.8046 90.1206 69.0922C90.4285 70.1235 90.9907 71.2722 92.0465 71.4677C92.6348 71.5153 93.225 71.4004 93.7524 71.1354C95.2775 70.5341 96.8612 69.884 97.9268 68.6474C98.9924 67.4107 99.359 65.3871 98.2592 64.165C98.1321 63.9955 97.9481 63.8774 97.741 63.8327C97.453 63.8526 97.1759 63.9506 96.9394 64.1162C96.5354 64.2636 96.0978 64.2937 95.6774 64.2028C95.257 64.112 94.8709 63.904 94.5638 63.6029C93.9604 62.9926 93.4792 62.2726 93.1463 61.4815C92.7308 60.6408 92.3104 59.7854 91.8852 58.9349C92.374 58.5096 93.1903 58.6856 93.7084 59.1059C94.1629 59.5663 94.5706 60.0706 94.9255 60.6115C96.1964 62.1952 98.2836 62.8942 100.302 63.1337C100.82 63.1618 101.331 63.2673 101.818 63.4465C103.328 64.1357 103.773 66.3793 105.357 66.8388C105.814 66.9113 106.267 67.0142 106.711 67.1467C107.007 67.3329 107.261 67.5792 107.456 67.8696C107.652 68.1601 107.784 68.4883 107.845 68.8331C108.192 70.0844 108.333 71.4042 108.822 72.5969C109.311 73.7896 110.411 74.8747 111.706 74.8894C112.114 74.8769 112.515 74.7841 112.886 74.6163C113.258 74.4486 113.593 74.2091 113.871 73.9118C113.935 72.7337 113.979 71.5606 113.979 70.363C113.994 70.1333 113.994 69.8987 113.979 69.6396Z" fill="#EBEBEB"/>
<path d="M92.1833 91.9877C91.3816 92.149 91.2057 92.6182 90.7853 93.2146C90.2183 93.9869 89.4069 94.7592 88.8888 95.5217C88.0138 96.817 88.8008 98.8358 87.6521 99.9209C87.3905 100.111 87.1392 100.315 86.8993 100.532C86.6915 100.82 86.6043 101.178 86.6563 101.529C86.7083 101.881 86.8955 102.198 87.1779 102.414C87.4733 102.612 87.8195 102.72 88.1749 102.726C88.5304 102.732 88.8801 102.636 89.182 102.448C89.7847 102.057 90.223 101.459 90.4138 100.767C90.4942 100.261 90.7086 99.7871 91.0346 99.393C91.6945 98.8162 92.721 99.2415 93.5861 99.1193C97.2717 98.6109 95.6929 91.2985 92.1833 91.9877Z" fill="#EBEBEB"/>
<path d="M158.484 218.548C158.484 218.597 125.06 218.641 83.8344 218.641C42.6089 218.641 9.17969 218.597 9.17969 218.548C9.17969 218.5 42.5991 218.451 83.8344 218.451C125.07 218.451 158.484 218.495 158.484 218.548Z" fill="#263238"/>
<path d="M89.9543 125.911H59.9517V148.371H89.9543V125.911Z" fill="#EBEBEB"/>
<path d="M122.905 125.911H92.9019V148.371H122.905V125.911Z" fill="#EBEBEB"/>
<path d="M161.305 125.911H131.302V148.371H161.305V125.911Z" fill="#EBEBEB"/>
<path d="M36.973 34.3382L21.2141 26.0286C20.9548 25.8918 20.7251 25.7052 20.5381 25.4795C20.351 25.2538 20.2104 24.9934 20.1241 24.7133C20.0378 24.4332 20.0077 24.1388 20.0353 23.8469C20.063 23.5551 20.148 23.2716 20.2853 23.0127L31.8015 1.18769C31.9383 0.92845 32.1249 0.69874 32.3506 0.51171C32.5763 0.324681 32.8367 0.184006 33.1168 0.0977387C33.397 0.011472 33.6914 -0.0186921 33.9832 0.00897363C34.275 0.0366393 34.5585 0.121591 34.8174 0.258966L44.8134 5.53803L48.3377 17.5968L39.9889 33.4095C39.8521 33.6688 39.6655 33.8985 39.4398 34.0855C39.2141 34.2725 38.9538 34.4132 38.6736 34.4995C38.3935 34.5857 38.0991 34.6159 37.8073 34.5882C37.5155 34.5606 37.232 34.4756 36.973 34.3382Z" fill="url(#paint0_linear_3645_2057)"/>
<g opacity="0.3">
<path d="M44.8135 5.53809L41.5483 11.6774C41.4211 11.9181 41.3427 12.1815 41.3173 12.4526C41.292 12.7236 41.3203 12.997 41.4007 13.2571C41.481 13.5172 41.6118 13.7589 41.7856 13.9684C41.9594 14.178 42.1727 14.3512 42.4135 14.4783L48.3377 17.5968L44.8135 5.53809Z" fill="white"/>
</g>
<g opacity="0.2">
<path d="M41.3674 12.2593C41.1256 12.7255 41.0505 13.2604 41.1545 13.7752C41.2585 14.2899 41.5354 14.7537 41.9393 15.0894C41.9928 15.1423 42.0499 15.1913 42.1103 15.2361C42.8093 15.7835 47.4041 19.3616 47.4872 19.2491C47.5703 19.1367 48.3377 17.597 48.3377 17.597L42.4329 14.4784C42.4329 14.4784 40.9861 13.6524 41.3674 12.2593Z" fill="black"/>
</g>
<path d="M40.3801 10.7535C40.3361 10.8318 38.6741 10.035 36.6603 8.96942C34.6464 7.90383 33.048 6.97999 33.0871 6.90178C33.1262 6.82357 34.7979 7.62032 36.8118 8.68591C38.8257 9.7515 40.424 10.6509 40.3801 10.7535Z" fill="#FAFAFA"/>
<path d="M43.2542 16.6877C43.2151 16.7659 40.4924 15.4119 37.1784 13.662C33.8643 11.9121 31.215 10.4262 31.2541 10.348C31.2932 10.2697 34.0158 11.6237 37.3299 13.3736C40.644 15.1235 43.2982 16.6193 43.2542 16.6877Z" fill="#FAFAFA"/>
<path d="M42.8044 20.1534C42.7653 20.2316 39.8031 18.7505 36.1909 16.8442C32.5786 14.9378 29.6849 13.3248 29.724 13.2466C29.7631 13.1684 32.7497 14.6641 36.3424 16.5607C39.9351 18.4572 42.8484 20.0751 42.8044 20.1534Z" fill="#FAFAFA"/>
<path d="M41.3626 22.8907C41.3186 22.9689 38.3564 21.4878 34.7442 19.5766C31.132 17.6654 28.2382 16.0621 28.2822 15.9839C28.3262 15.9057 31.2835 17.3868 34.8957 19.2931C38.508 21.1994 41.4017 22.8125 41.3626 22.8907Z" fill="#FAFAFA"/>
<path d="M39.9157 25.6231C39.8766 25.7013 36.9144 24.2202 33.3022 22.3139C29.69 20.4076 26.7962 18.7945 26.8354 18.7163C26.8745 18.6381 29.8415 20.1192 33.4537 22.0304C37.066 23.9416 39.9597 25.5449 39.9157 25.6231Z" fill="#FAFAFA"/>
<path d="M38.4736 28.3506C38.4345 28.4288 35.4675 26.9478 31.8601 25.0366C28.2527 23.1253 25.3493 21.5319 25.4177 21.4536C25.4861 21.3754 28.4189 22.8565 32.0312 24.7628C35.6434 26.6692 38.5176 28.2822 38.4736 28.3506Z" fill="#FAFAFA"/>
<path d="M82.3584 56.7502C82.0279 56.7035 81.7099 56.592 81.4226 56.4222C81.1353 56.2523 80.8844 56.0275 80.6841 55.7605C80.4839 55.4935 80.3383 55.1896 80.2557 54.8663C80.1731 54.5429 80.1551 54.2064 80.2028 53.8761L83.3458 32.012C83.4458 31.4628 83.7588 30.9754 84.2166 30.6559C84.6743 30.3364 85.2397 30.2106 85.7898 30.3061L87.8427 30.6042C88.244 30.6662 88.6546 30.6159 89.029 30.4588C89.4034 30.3018 89.7271 30.0442 89.9641 29.7146L90.536 28.8788C90.7731 28.5491 91.0967 28.2915 91.4712 28.1345C91.8456 27.9775 92.2562 27.9272 92.6574 27.9891L102.433 29.3969C102.796 29.4495 103.139 29.5915 103.432 29.8099C103.726 30.0284 103.961 30.3165 104.115 30.6482L104.486 31.4792C104.641 31.8193 104.88 32.1144 105.18 32.3368C105.48 32.5591 105.832 32.7013 106.202 32.7501L118.642 34.5391C119.197 34.6005 119.704 34.8795 120.054 35.3148C120.403 35.7501 120.565 36.3062 120.504 36.8609L117.313 59.2089C117.265 59.5389 117.153 59.8564 116.983 60.1431C116.813 60.4299 116.588 60.6803 116.321 60.88C116.054 61.0798 115.751 61.2249 115.428 61.3072C115.105 61.3895 114.768 61.4073 114.438 61.3596L82.3584 56.7502Z" fill="#455A64"/>
<g opacity="0.3">
<path d="M82.3584 56.7502C82.0279 56.7035 81.7099 56.592 81.4226 56.4222C81.1353 56.2523 80.8844 56.0275 80.6841 55.7605C80.4839 55.4935 80.3383 55.1896 80.2557 54.8663C80.1731 54.5429 80.1551 54.2064 80.2028 53.8761L83.3458 32.012C83.4458 31.4628 83.7588 30.9754 84.2166 30.6559C84.6743 30.3364 85.2397 30.2106 85.7898 30.3061L87.8427 30.6042C88.244 30.6662 88.6546 30.6159 89.029 30.4588C89.4034 30.3018 89.7271 30.0442 89.9641 29.7146L90.536 28.8788C90.7731 28.5491 91.0967 28.2915 91.4712 28.1345C91.8456 27.9775 92.2562 27.9272 92.6574 27.9891L102.433 29.3969C102.796 29.4495 103.139 29.5915 103.432 29.8099C103.726 30.0284 103.961 30.3165 104.115 30.6482L104.486 31.4792C104.641 31.8193 104.88 32.1144 105.18 32.3368C105.48 32.5591 105.832 32.7013 106.202 32.7501L118.642 34.5391C119.197 34.6005 119.704 34.8795 120.054 35.3148C120.403 35.7501 120.565 36.3062 120.504 36.8609L117.313 59.2089C117.265 59.5389 117.153 59.8564 116.983 60.1431C116.813 60.4299 116.588 60.6803 116.321 60.88C116.054 61.0798 115.751 61.2249 115.428 61.3072C115.105 61.3895 114.768 61.4073 114.438 61.3596L82.3584 56.7502Z" fill="black"/>
</g>
<path d="M104.975 32.5592L97.0663 31.4008L96.5482 29.9783C96.3707 29.5158 96.0719 29.1096 95.6831 28.8025C95.2943 28.4955 94.8299 28.2988 94.3388 28.2333L86.606 27.1189C85.9718 27.006 85.3187 27.1481 84.7887 27.5143C84.2587 27.8804 83.8947 28.441 83.7758 29.0741L83.6487 29.9783L80.2271 53.7195C80.1487 54.4487 80.3616 55.1794 80.8193 55.7525C81.277 56.3255 81.9426 56.6946 82.6711 56.7794L114.091 61.2959C114.814 61.4225 115.558 61.2575 116.16 60.8371C116.762 60.4166 117.173 59.7749 117.303 59.0523L120.534 36.6603C120.569 36.4223 120.557 36.1798 120.498 35.9466C120.439 35.7133 120.334 35.4941 120.19 35.3015C120.046 35.1088 119.866 34.9466 119.659 34.8241C119.452 34.7016 119.222 34.6213 118.984 34.5878L104.975 32.5592Z" fill="url(#paint1_linear_3645_2057)"/>
<path d="M111.318 42.3174L92.6182 39.6294L91.4873 47.4965L110.187 50.1845L111.318 42.3174Z" fill="white"/>
<path d="M107.937 45.3757C107.937 45.4441 105.044 45.0873 101.495 44.5789C97.9462 44.0706 95.0769 43.6013 95.0916 43.528C95.1063 43.4547 97.9853 43.8164 101.534 44.3247C105.083 44.8331 107.947 45.3072 107.937 45.3757Z" fill="#263238"/>
<path d="M107.698 47.0524C107.698 47.1208 104.804 46.764 101.255 46.2556C97.7067 45.7473 94.8276 45.2731 94.8276 45.2047C94.8276 45.1363 97.7213 45.4931 101.27 46.0014C104.819 46.5098 107.708 46.9839 107.698 47.0524Z" fill="#263238"/>
<path d="M92.6038 179.308C92.3985 179.386 92.1797 179.423 91.9601 179.416C91.7405 179.409 91.5244 179.358 91.3244 179.267C91.1244 179.177 90.9444 179.047 90.7949 178.886C90.6453 178.725 90.5291 178.536 90.453 178.33L85.2668 164.79C85.1482 164.443 85.1716 164.064 85.3318 163.734C85.4921 163.404 85.7762 163.151 86.1222 163.03L87.398 162.542C87.6483 162.45 87.8679 162.29 88.032 162.08C88.1962 161.871 88.2982 161.619 88.3267 161.354L88.3903 160.694C88.4203 160.429 88.5235 160.177 88.6884 159.968C88.8533 159.758 89.0734 159.598 89.3239 159.506L95.3655 157.194C95.5926 157.106 95.8379 157.076 96.0794 157.107C96.3209 157.138 96.551 157.228 96.7488 157.37L97.2376 157.727C97.4359 157.868 97.6661 157.958 97.9076 157.987C98.1491 158.017 98.3942 157.987 98.6209 157.898L106.324 154.965C106.492 154.895 106.671 154.858 106.853 154.856C107.034 154.855 107.214 154.89 107.382 154.959C107.55 155.027 107.703 155.128 107.832 155.256C107.961 155.384 108.063 155.536 108.133 155.703L113.402 169.556C113.48 169.762 113.516 169.981 113.509 170.2C113.502 170.42 113.451 170.636 113.361 170.837C113.27 171.037 113.14 171.217 112.98 171.367C112.819 171.517 112.631 171.634 112.425 171.712L92.6038 179.308Z" fill="#FF725E"/>
<g opacity="0.3">
<path d="M92.6038 179.308C92.3985 179.386 92.1797 179.423 91.9601 179.416C91.7405 179.409 91.5244 179.358 91.3244 179.267C91.1244 179.177 90.9444 179.047 90.7949 178.886C90.6453 178.725 90.5291 178.536 90.453 178.33L85.2668 164.79C85.1482 164.443 85.1716 164.064 85.3318 163.734C85.4921 163.404 85.7762 163.151 86.1222 163.03L87.398 162.542C87.6483 162.45 87.8679 162.29 88.032 162.08C88.1962 161.871 88.2982 161.619 88.3267 161.354L88.3903 160.694C88.4203 160.429 88.5235 160.177 88.6884 159.968C88.8533 159.758 89.0734 159.598 89.3239 159.506L95.3655 157.194C95.5926 157.106 95.8379 157.076 96.0794 157.107C96.3209 157.138 96.551 157.228 96.7488 157.37L97.2376 157.727C97.4359 157.868 97.6661 157.958 97.9076 157.987C98.1491 158.017 98.3942 157.987 98.6209 157.898L106.324 154.965C106.492 154.895 106.671 154.858 106.853 154.856C107.034 154.855 107.214 154.89 107.382 154.959C107.55 155.027 107.703 155.128 107.832 155.256C107.961 155.384 108.063 155.536 108.133 155.703L113.402 169.556C113.48 169.762 113.516 169.981 113.509 170.2C113.502 170.42 113.451 170.636 113.361 170.837C113.27 171.037 113.14 171.217 112.98 171.367C112.819 171.517 112.631 171.634 112.425 171.712L92.6038 179.308Z" fill="black"/>
</g>
<path d="M97.8436 158.211L92.9556 160.073L92.2028 159.423C91.9528 159.214 91.6509 159.076 91.3291 159.025C91.0073 158.973 90.6776 159.009 90.3747 159.13L85.5844 160.963C85.1853 161.105 84.8584 161.398 84.6752 161.78C84.4921 162.162 84.4675 162.601 84.6068 163.001L84.8219 163.558L90.4285 178.262C90.6152 178.707 90.9714 179.061 91.4187 179.244C91.866 179.428 92.3678 179.426 92.8138 179.239L112.273 171.79C112.728 171.631 113.101 171.299 113.312 170.866C113.523 170.432 113.553 169.933 113.397 169.478L108.074 155.581C107.959 155.284 107.731 155.044 107.44 154.914C107.149 154.783 106.818 154.774 106.52 154.887L97.8436 158.211Z" fill="url(#paint2_linear_3645_2057)"/>
<path d="M104.608 161.773L93.0273 166.207L94.8922 171.077L106.473 166.643L104.608 161.773Z" fill="white"/>
<path d="M103.626 164.614C102.347 165.236 101.033 165.784 99.6913 166.256C98.3788 166.802 97.0356 167.27 95.6685 167.659C96.9371 167.032 98.243 166.484 99.5789 166.017C100.898 165.467 102.25 164.999 103.626 164.614Z" fill="#263238"/>
<path d="M104.037 165.65C102.759 166.275 101.445 166.823 100.102 167.293C98.7908 167.842 97.4474 168.31 96.0791 168.696C97.3572 168.071 98.6711 167.523 100.014 167.053C101.326 166.507 102.669 166.038 104.037 165.65Z" fill="#263238"/>
<path d="M89.9983 197.08C90.4849 197.311 90.9198 197.638 91.2768 198.041C91.6338 198.444 91.9056 198.915 92.0757 199.426C92.4084 200.452 92.502 201.541 92.3495 202.608C92.1148 204.671 90.9417 206.753 89.6806 208.406C87.9405 206.885 87.5397 204.241 87.4224 202.887C87.2366 200.746 88.1995 196.757 89.9983 197.08Z" fill="url(#paint3_linear_3645_2057)"/>
<path d="M91.6993 211.813C91.5816 211.222 91.6218 210.611 91.8158 210.041C92.0097 209.472 92.3506 208.963 92.804 208.567C93.2638 208.181 93.7955 207.889 94.3686 207.71C94.9416 207.53 95.5445 207.466 96.1425 207.521C96.4201 207.518 96.6949 207.576 96.9481 207.69C97.2012 207.804 97.4267 207.971 97.6089 208.181C97.7376 208.404 97.8054 208.657 97.8054 208.914C97.8054 209.171 97.7376 209.424 97.6089 209.647C97.3458 210.096 96.9679 210.468 96.514 210.723C95.0085 211.671 93.3759 212.306 91.6748 211.798" fill="url(#paint4_linear_3645_2057)"/>
<path d="M89.4509 218.138C89.4606 217.996 89.4818 217.855 89.5145 217.717C89.5682 217.419 89.6367 217.033 89.7247 216.569C89.917 215.292 90.3166 214.055 90.9076 212.907C91.5183 211.76 92.4245 210.796 93.5324 210.116C93.8701 209.911 94.2311 209.747 94.6078 209.628C94.7084 209.594 94.8113 209.568 94.9157 209.549C94.9513 209.543 94.9877 209.543 95.0233 209.549C94.5239 209.716 94.0438 209.936 93.5911 210.204C92.5203 210.9 91.6427 211.855 91.0395 212.981C90.4584 214.118 90.0499 215.335 89.8273 216.593C89.7247 217.082 89.6367 217.458 89.5682 217.727C89.5442 217.868 89.5049 218.005 89.4509 218.138Z" fill="#263238"/>
<path d="M89.5339 200.179C89.5339 200.179 89.5339 200.243 89.5583 200.365L89.5876 200.893C89.6121 201.357 89.6414 202.027 89.6658 202.848C89.7196 204.5 89.7636 206.788 89.7538 209.315C89.7441 211.842 89.6805 214.125 89.6121 215.777C89.5779 216.603 89.5436 217.273 89.5143 217.732C89.5143 217.947 89.5143 218.123 89.4801 218.26C89.4792 218.323 89.471 218.385 89.4557 218.446C89.4503 218.384 89.4503 218.322 89.4557 218.26V217.727C89.4557 217.238 89.485 216.583 89.5045 215.772C89.5436 214.12 89.5925 211.837 89.6023 209.31C89.6121 206.783 89.6023 204.505 89.5632 202.853C89.5632 202.037 89.5632 201.387 89.529 200.898V200.365C89.5253 200.303 89.5269 200.241 89.5339 200.179Z" fill="#263238"/>
<path d="M88.6932 213.069C88.4852 211.815 87.9812 210.629 87.2229 209.608C86.4646 208.588 85.4739 207.764 84.3331 207.203C83.7514 206.925 82.9937 206.744 82.5147 207.179C82.0357 207.614 82.1481 208.386 82.3779 208.987C82.8879 210.234 83.7558 211.301 84.872 212.054C85.9882 212.808 87.3026 213.213 88.6492 213.22" fill="url(#paint5_linear_3645_2057)"/>
<path d="M84.6165 209.178C84.7435 209.22 84.8663 209.274 84.9831 209.339C85.1263 209.403 85.2651 209.477 85.3986 209.559C85.555 209.657 85.7456 209.755 85.9314 209.891C86.1412 210.034 86.3435 210.187 86.5375 210.351C86.7635 210.534 86.9789 210.73 87.1827 210.937C87.6505 211.413 88.0621 211.942 88.4096 212.511C88.7503 213.089 89.0227 213.704 89.221 214.344C89.3051 214.622 89.3736 214.905 89.4263 215.19C89.4747 215.439 89.509 215.69 89.529 215.943C89.5498 216.151 89.5596 216.359 89.5583 216.568C89.5696 216.731 89.5696 216.894 89.5583 217.057C89.5556 217.192 89.5409 217.326 89.5143 217.458C89.4801 217.458 89.5387 216.881 89.4361 215.967C89.4107 215.719 89.3715 215.473 89.3188 215.229C89.2699 214.965 89.1868 214.687 89.1037 214.398C88.9003 213.773 88.6299 213.171 88.2972 212.604C87.954 212.045 87.5526 211.524 87.0996 211.05C86.8846 210.835 86.6841 210.629 86.474 210.458C86.2848 210.294 86.0874 210.139 85.8825 209.994C85.1249 209.447 84.6018 209.207 84.6165 209.178Z" fill="#263238"/>
<path d="M44.6864 204.72L44.3882 218.93L63.0995 219.37C63.036 217.678 53.4457 214.061 53.4457 214.061L54.0322 204.96L44.6864 204.72Z" fill="#455A64"/>
<g opacity="0.6">
<path d="M47.6777 213.157C47.5868 213.173 47.5 213.207 47.4227 213.258C47.3454 213.309 47.2792 213.374 47.228 213.451C47.1768 213.528 47.1417 213.615 47.1248 213.705C47.1079 213.796 47.1096 213.89 47.1297 213.98C47.1499 214.07 47.1881 214.155 47.242 214.23C47.296 214.305 47.3645 214.368 47.4436 214.416C47.5227 214.464 47.6106 214.495 47.7021 214.508C47.7936 214.521 47.8867 214.515 47.9759 214.491C48.1633 214.448 48.3271 214.335 48.4343 214.175C48.5414 214.015 48.5837 213.821 48.5527 213.631C48.4813 213.451 48.3444 213.304 48.1694 213.221C47.9944 213.137 47.7943 213.123 47.6093 213.181" fill="white"/>
</g>
<g opacity="0.6">
<path d="M44.3882 218.93L44.4811 217.517L62.3859 218.495C62.3859 218.495 63.2071 218.856 63.0995 219.409L44.3882 218.93Z" fill="white"/>
</g>
<path d="M53.7682 213.978C53.7682 214.066 53.3088 214.09 52.8493 214.359C52.3898 214.628 52.1454 214.985 52.0623 214.946C51.9792 214.907 52.1259 214.418 52.688 214.1C53.2501 213.782 53.7682 213.9 53.7682 213.978Z" fill="#263238"/>
<path d="M55.6941 214.789C55.6941 214.877 55.3129 215.014 54.9903 215.371C54.6677 215.728 54.5699 216.114 54.5015 216.109C54.433 216.104 54.3646 215.62 54.7703 215.176C55.176 214.731 55.6941 214.711 55.6941 214.789Z" fill="#263238"/>
<path d="M56.75 217.028C56.6669 217.028 56.5496 216.608 56.794 216.143C57.0384 215.679 57.4734 215.498 57.5125 215.571C57.5516 215.645 57.2779 215.889 57.0824 216.275C56.8869 216.661 56.838 217.028 56.75 217.028Z" fill="#263238"/>
<path d="M53.6411 211.891C53.602 211.969 53.1817 211.837 52.6635 211.862C52.1454 211.886 51.7397 212.028 51.6859 211.95C51.6322 211.871 52.0379 211.578 52.6635 211.559C53.2892 211.539 53.6851 211.823 53.6411 211.891Z" fill="#263238"/>
<path d="M53.2503 209.784C52.9399 209.853 52.6172 209.843 52.3118 209.755C51.9752 209.69 51.6472 209.587 51.3342 209.447C51.1513 209.366 50.9748 209.271 50.8062 209.164C50.7019 209.108 50.6077 209.035 50.5276 208.948C50.4693 208.888 50.4343 208.808 50.4289 208.724C50.4236 208.64 50.4481 208.557 50.4983 208.489C50.5463 208.428 50.6082 208.379 50.6787 208.347C50.7493 208.315 50.8265 208.3 50.904 208.303C51.0215 208.306 51.1382 208.324 51.2511 208.357C51.45 208.408 51.6445 208.475 51.8327 208.557C52.1403 208.701 52.4252 208.889 52.6784 209.115C53.1036 209.506 53.2454 209.833 53.2112 209.848C53.1769 209.863 52.9668 209.599 52.5317 209.276C52.278 209.088 52.0022 208.932 51.7105 208.812C51.5377 208.741 51.3595 208.684 51.1777 208.64C50.9773 208.587 50.8111 208.582 50.7574 208.665C50.7036 208.748 50.7574 208.709 50.7574 208.763C50.8153 208.825 50.883 208.878 50.9578 208.919C51.124 209.027 51.2853 209.12 51.4466 209.203C51.7362 209.343 52.037 209.459 52.346 209.55C52.6534 209.603 52.9559 209.681 53.2503 209.784Z" fill="#263238"/>
<path d="M53.1279 209.901C53.0937 209.901 52.9226 209.603 52.903 209.041C52.8932 208.709 52.9446 208.377 53.0546 208.064C53.1212 207.879 53.2064 207.703 53.3087 207.536C53.3649 207.417 53.4505 207.315 53.5575 207.238C53.6645 207.162 53.7892 207.115 53.9197 207.101C54.0011 207.104 54.08 207.129 54.148 207.174C54.216 207.219 54.2706 207.281 54.3059 207.355C54.3509 207.459 54.3806 207.569 54.3939 207.682C54.4236 207.88 54.4236 208.081 54.3939 208.279C54.3314 208.612 54.1869 208.924 53.9735 209.188C53.5923 209.637 53.211 209.73 53.2012 209.677C53.1914 209.623 53.4945 209.471 53.7878 209.036C53.9547 208.79 54.0634 208.509 54.1055 208.215C54.1323 208.045 54.1323 207.872 54.1055 207.702C54.1055 207.511 54.0126 207.36 53.9393 207.379C53.866 207.399 53.6851 207.511 53.602 207.658C53.5064 207.813 53.4247 207.977 53.3576 208.147C53.2454 208.428 53.1762 208.725 53.1523 209.026C53.0888 209.564 53.1768 209.892 53.1279 209.901Z" fill="#263238"/>
<path d="M30.5063 205.898L28.7222 220L10.1477 217.698C10.4605 216.031 20.4761 213.856 20.4761 213.856L21.2288 204.769L30.5063 205.898Z" fill="#455A64"/>
<g opacity="0.6">
<path d="M26.3122 213.812C26.4809 213.878 26.6185 214.005 26.6974 214.168C26.7763 214.332 26.7906 214.519 26.7374 214.692C26.662 214.86 26.5264 214.994 26.3573 215.067C26.1881 215.141 25.9977 215.148 25.8234 215.088C25.6444 215.016 25.499 214.88 25.4165 214.706C25.334 214.532 25.3204 214.333 25.3786 214.149C25.4764 213.988 25.6295 213.868 25.8094 213.811C25.9893 213.755 26.1836 213.765 26.3562 213.841" fill="white"/>
</g>
<g opacity="0.6">
<path d="M28.722 220L28.8442 218.573L10.9931 216.896C10.9931 216.896 10.123 217.136 10.1475 217.698L28.722 220Z" fill="white"/>
</g>
<path d="M20.1876 213.734C20.1876 213.817 20.6275 213.915 21.043 214.223C21.4585 214.531 21.6491 214.946 21.7371 214.922C21.8251 214.897 21.7371 214.384 21.2483 213.993C20.7595 213.602 20.1778 213.651 20.1876 213.734Z" fill="#263238"/>
<path d="M18.1494 214.252C18.1152 214.33 18.4916 214.525 18.7555 214.926C19.0195 215.327 19.0635 215.723 19.1514 215.728C19.2394 215.733 19.3616 215.239 19.0243 214.75C18.6871 214.261 18.1592 214.169 18.1494 214.252Z" fill="#263238"/>
<path d="M16.7759 216.319C16.8541 216.349 17.03 215.933 16.8541 215.435C16.6781 214.936 16.2773 214.696 16.2333 214.765C16.1893 214.833 16.419 215.117 16.5559 215.527C16.6928 215.938 16.683 216.3 16.7759 216.319Z" fill="#263238"/>
<path d="M20.6031 211.681C20.6324 211.764 21.0626 211.681 21.5807 211.793C22.0988 211.905 22.4703 212.096 22.5241 212.028C22.5779 211.959 22.2357 211.607 21.6345 211.5C21.0333 211.392 20.564 211.607 20.6031 211.681Z" fill="#263238"/>
<path d="M21.2971 209.652C21.5909 209.773 21.9118 209.812 22.2258 209.765C22.5667 209.751 22.9047 209.697 23.2328 209.604C23.4259 209.549 23.6153 209.482 23.7998 209.403C23.9106 209.36 24.0144 209.301 24.1077 209.227C24.1745 209.176 24.2209 209.102 24.2388 209.02C24.2567 208.938 24.2449 208.852 24.2055 208.777C24.1668 208.71 24.1125 208.652 24.047 208.61C23.9815 208.567 23.9068 208.541 23.8291 208.533C23.7124 208.516 23.5938 208.516 23.4772 208.533C23.2736 208.551 23.0723 208.589 22.8759 208.646C22.5487 208.741 22.2374 208.884 21.9521 209.071C21.4633 209.398 21.2922 209.696 21.3216 209.721C21.3509 209.745 21.6002 209.511 22.0743 209.232C22.3538 209.083 22.6511 208.969 22.959 208.895C23.1403 208.85 23.3251 208.82 23.5114 208.807C23.7167 208.782 23.8829 208.807 23.922 208.89C23.9611 208.973 23.922 208.934 23.8878 208.983C23.8216 209.039 23.7453 209.082 23.6629 209.11C23.4926 209.188 23.3179 209.257 23.1399 209.315C22.834 209.414 22.5199 209.486 22.2014 209.53C21.8978 209.553 21.5958 209.594 21.2971 209.652Z" fill="#263238"/>
<path d="M21.3999 209.794C21.604 209.567 21.7262 209.278 21.747 208.973C21.8054 208.65 21.8054 208.318 21.747 207.995C21.7125 207.802 21.6551 207.613 21.5759 207.433C21.5391 207.307 21.4701 207.194 21.3758 207.103C21.2815 207.012 21.1652 206.947 21.0382 206.915C20.957 206.906 20.8747 206.919 20.8006 206.954C20.7264 206.988 20.6632 207.042 20.6179 207.11C20.5602 207.207 20.5158 207.31 20.4859 207.418C20.4287 207.612 20.4039 207.813 20.4126 208.015C20.4206 208.36 20.5201 208.698 20.701 208.992C21.004 209.481 21.3706 209.638 21.3853 209.613C21.2069 209.384 21.0437 209.144 20.8965 208.895C20.7696 208.626 20.7044 208.332 20.7058 208.034C20.7078 207.868 20.7341 207.704 20.784 207.545C20.8329 207.365 20.9258 207.223 20.9991 207.252C21.0724 207.282 21.2289 207.418 21.2875 207.58C21.3605 207.737 21.4194 207.901 21.4635 208.069C21.531 208.363 21.5557 208.666 21.5368 208.968C21.5075 209.462 21.3511 209.774 21.3999 209.794Z" fill="#263238"/>
<path d="M59.1989 129.283L30.0712 130.217C30.0712 130.217 23.2035 176.062 23.3942 179.244L19.1611 212.482L31.4789 212.912C31.4789 212.912 33.4342 202.129 34.7686 194.748C35.668 189.86 37.3104 182.631 37.7552 178.53C38.2 174.429 45.4049 145.78 45.4049 145.78C45.4049 145.78 44.8721 179.019 44.8868 180.387C44.9014 181.756 43.4595 212.873 43.4595 212.873H55.6795C56.3101 207.257 57.8107 184.782 58.1235 180.236C58.7101 172.039 60.5676 148.87 60.8168 142.95C61.0661 137.031 59.1989 129.283 59.1989 129.283Z" fill="url(#paint6_linear_3645_2057)"/>
<path d="M57.2828 129.533C57.1395 128.843 57.1395 128.13 57.2828 127.44C57.4198 128.131 57.4198 128.842 57.2828 129.533Z" fill="#455A64"/>
<path d="M58.4901 130.056C58.3416 129.625 58.3013 129.166 58.3727 128.716C58.3748 128.261 58.4908 127.814 58.71 127.416C58.697 127.858 58.6545 128.299 58.5829 128.736C58.5821 129.177 58.5511 129.618 58.4901 130.056Z" fill="#455A64"/>
<path d="M47.6094 127.876C47.3727 127.921 47.1568 128.041 46.9935 128.218C46.9119 128.311 46.8517 128.421 46.817 128.54C46.7824 128.659 46.7742 128.785 46.7931 128.907C46.8354 129.047 46.9151 129.172 47.0235 129.27C47.132 129.368 47.2651 129.434 47.4085 129.462C47.5519 129.49 47.7001 129.478 47.8372 129.427C47.9742 129.377 48.0949 129.29 48.1862 129.176C48.2477 129.068 48.2857 128.948 48.2975 128.824C48.3093 128.7 48.2947 128.575 48.2546 128.457C48.1667 128.232 48.0092 128.04 47.8049 127.91C47.8049 127.91 47.888 127.91 48.0102 127.964C48.1844 128.063 48.3203 128.218 48.3964 128.404C48.4576 128.543 48.4855 128.694 48.4779 128.846C48.4702 128.998 48.4273 129.146 48.3524 129.279C48.2444 129.434 48.0936 129.554 47.9184 129.626C47.7432 129.697 47.5511 129.716 47.3653 129.68C47.1796 129.645 47.0082 129.556 46.8719 129.425C46.7356 129.293 46.6403 129.126 46.5976 128.941C46.5798 128.791 46.596 128.639 46.6451 128.496C46.6942 128.353 46.7748 128.223 46.8811 128.115C47.0204 127.972 47.2021 127.878 47.3992 127.846C47.5361 127.832 47.6094 127.866 47.6094 127.876Z" fill="#455A64"/>
<path d="M34.1821 178.457C33.1182 178.138 32.0765 177.749 31.0635 177.293C30.0221 176.904 29.0066 176.448 28.0232 175.93C29.0856 176.253 30.127 176.642 31.1417 177.093C32.1827 177.484 33.1981 177.939 34.1821 178.457Z" fill="#455A64"/>
<path d="M32.5983 60.3819C32.6961 58.6857 33.7373 57.6446 35.1988 56.7794C35.9356 56.3522 36.7645 56.1087 37.6153 56.0696C38.4661 56.0304 39.3139 56.1968 40.0868 56.5546C41.1133 57.0434 42.0127 57.8792 43.1369 58.021C44.9944 58.2605 46.7492 56.5546 48.5675 56.97C49.11 57.1001 49.5908 57.414 49.9281 57.8585C50.2653 58.3029 50.4383 58.8504 50.4175 59.4079C50.3968 59.9654 50.1837 60.4986 49.8143 60.9167C49.445 61.3349 48.9422 61.6122 48.3915 61.7016C49.6087 61.8776 50.293 63.4125 49.8579 64.5563C49.4229 65.7 48.1374 66.3599 46.9251 66.3893C45.6908 66.3479 44.491 65.971 43.4546 65.2992C42.3939 64.6833 41.4017 63.9404 40.297 63.4124C39.2064 62.823 37.9432 62.6361 36.7287 62.8845C35.1206 63.3147 33.9817 64.8398 33.5662 66.4381C33.1507 68.0365 33.3267 69.7473 33.5662 71.3897C33.8057 73.0321 34.1332 74.6891 33.9768 76.3462C33.9775 76.4401 33.9568 76.533 33.9161 76.6178C33.8755 76.7025 33.816 76.7768 33.7421 76.835C33.4977 76.9718 33.2142 76.7372 33.0334 76.5221C30.9754 74.0794 29.4176 71.256 28.4484 68.2125C27.8619 66.4772 27.5588 64.7664 28.2285 63.0556C28.8981 61.3448 31.1613 59.6927 32.5983 60.3917" fill="#263238"/>
<path d="M31.034 68.5792L33.7273 85.3305C34.2161 88.4588 36.2691 91.4796 41.1767 90.4531C45.3706 89.2409 45.0578 86.225 44.5152 82.5101C44.5152 82.5101 49.1246 81.3076 48.7091 76.62C48.5136 74.352 47.7315 69.7181 46.9543 65.534C46.5576 63.367 45.3599 61.4286 43.5992 60.1045C41.8385 58.7804 39.644 58.1675 37.452 58.3877L36.9974 58.4366C32.1729 59.2089 30.1249 63.7547 31.034 68.5792Z" fill="#FFBE9D"/>
<path d="M44.5348 82.5101C42.3701 82.7215 40.1902 82.3075 38.2537 81.3174C38.2537 81.3174 40.0916 84.8025 44.7254 83.9129L44.5348 82.5101Z" fill="#EB996E"/>
<path d="M46.0549 69.6299C46.0665 69.719 46.0602 69.8095 46.0364 69.8961C46.0125 69.9826 45.9716 70.0636 45.9161 70.1342C45.8605 70.2047 45.7914 70.2635 45.7129 70.307C45.6343 70.3505 45.5479 70.3779 45.4586 70.3876C45.3744 70.403 45.2879 70.4013 45.2044 70.3827C45.1208 70.364 45.0418 70.3289 44.9721 70.2792C44.9024 70.2295 44.8433 70.1664 44.7984 70.0935C44.7535 70.0206 44.7237 69.9394 44.7107 69.8548C44.6912 69.6802 44.7405 69.5049 44.8483 69.3662C44.956 69.2275 45.1136 69.1362 45.2875 69.1118C45.3721 69.0934 45.4595 69.0923 45.5445 69.1087C45.6295 69.125 45.7103 69.1584 45.782 69.2068C45.8537 69.2552 45.9149 69.3177 45.9618 69.3904C46.0087 69.4632 46.0404 69.5446 46.0549 69.6299Z" fill="#263238"/>
<path d="M46.2017 67.9437C46.1284 68.0366 45.581 67.714 44.8624 67.7873C44.1439 67.8606 43.6502 68.2761 43.5622 68.1979C43.4742 68.1197 43.5915 67.9926 43.8017 67.8019C44.0942 67.5577 44.4538 67.4077 44.8331 67.3718C45.2069 67.3319 45.5836 67.4124 45.9085 67.6015C46.148 67.7384 46.236 67.8899 46.2017 67.9437Z" fill="#263238"/>
<path d="M39.5002 70.6712C39.5197 70.8452 39.4702 71.0199 39.3624 71.1579C39.2545 71.2958 39.097 71.3861 38.9234 71.4093C38.8392 71.4246 38.7528 71.423 38.6692 71.4043C38.5856 71.3857 38.5067 71.3505 38.4369 71.3009C38.3672 71.2512 38.3082 71.188 38.2633 71.1151C38.2184 71.0422 38.1886 70.9611 38.1756 70.8765C38.156 70.7019 38.2054 70.5266 38.3131 70.3879C38.4208 70.2491 38.5784 70.1579 38.7524 70.1335C38.8369 70.1189 38.9234 70.1212 39.007 70.1404C39.0906 70.1596 39.1695 70.1953 39.2391 70.2454C39.3088 70.2954 39.3677 70.3589 39.4126 70.432C39.4574 70.5051 39.4872 70.5864 39.5002 70.6712Z" fill="#263238"/>
<path d="M39.2752 68.7747C39.2019 68.8724 38.6545 68.5498 37.9359 68.6231C37.2174 68.6965 36.7237 69.1119 36.6357 69.0288C36.5477 68.9457 36.665 68.8284 36.8752 68.6378C37.1659 68.3899 37.5262 68.238 37.9066 68.2028C38.2808 68.1664 38.6569 68.2484 38.9819 68.4374C39.2215 68.584 39.3094 68.7356 39.2752 68.7747Z" fill="#263238"/>
<path d="M42.2863 73.8533C42.6549 73.6991 43.0405 73.5892 43.435 73.5258C43.6159 73.4867 43.787 73.4329 43.8065 73.3058C43.8012 73.1149 43.74 72.9296 43.6305 72.773C43.4106 72.3478 43.1857 71.8981 42.9462 71.4288C41.9686 69.5127 41.2794 67.929 41.3576 67.8899C41.4358 67.8508 42.2717 69.3563 43.2248 71.3115C43.4546 71.8003 43.6794 72.2354 43.8896 72.6655C44.0242 72.8777 44.0828 73.1293 44.0558 73.3791C44.0341 73.4455 43.9985 73.5065 43.9512 73.5579C43.904 73.6093 43.8463 73.6501 43.7821 73.6773C43.683 73.716 43.5796 73.7422 43.4741 73.7555C43.0844 73.8414 42.6849 73.8743 42.2863 73.8533Z" fill="#263238"/>
<path d="M39.0407 65.9395C38.9918 66.1399 38.2635 66.1203 37.4276 66.3061C36.5918 66.4918 35.9319 66.7949 35.8048 66.6287C35.7461 66.5505 35.8439 66.3549 36.103 66.1399C36.4451 65.867 36.8472 65.6794 37.2761 65.5924C37.7004 65.492 38.1422 65.492 38.5665 65.5924C38.8891 65.7048 39.0602 65.8417 39.0407 65.9395Z" fill="#263238"/>
<path d="M45.7275 65.8759C45.615 66.0519 45.1018 65.9346 44.5055 65.9835C43.9091 66.0323 43.4154 66.2034 43.2835 66.047C43.2248 65.9688 43.2835 65.7977 43.4936 65.6169C43.7697 65.4035 44.103 65.277 44.4512 65.2535C44.7993 65.23 45.1466 65.3105 45.4488 65.4849C45.6884 65.6315 45.7763 65.7928 45.7275 65.8759Z" fill="#263238"/>
<path d="M31.7721 72.0056C31.689 71.9812 28.458 71.3799 28.8833 74.5718C29.3085 77.7637 32.4271 76.6785 32.4173 76.5857C32.4075 76.4928 31.7721 72.0056 31.7721 72.0056Z" fill="#FFBE9D"/>
<path d="M31.2833 75.5052C31.2833 75.5052 31.2344 75.5541 31.1464 75.6079C31.021 75.681 30.8725 75.7037 30.731 75.6714C30.5072 75.5686 30.3149 75.408 30.174 75.206C30.0331 75.0041 29.9486 74.7682 29.9293 74.5227C29.8831 74.2505 29.8998 73.9712 29.9782 73.7064C29.9941 73.6016 30.0354 73.5023 30.0984 73.4171C30.1614 73.3319 30.2444 73.2634 30.3399 73.2176C30.4013 73.193 30.4693 73.1903 30.5325 73.2099C30.5957 73.2294 30.6502 73.2701 30.687 73.3251C30.7456 73.4131 30.731 73.4767 30.7505 73.4816C30.7701 73.4865 30.8092 73.418 30.7505 73.2909C30.7194 73.214 30.6646 73.1489 30.5941 73.1052C30.4972 73.0518 30.3834 73.0378 30.2764 73.0661C30.1486 73.1088 30.0341 73.1839 29.9441 73.2842C29.8542 73.3844 29.7918 73.5063 29.7631 73.638C29.6639 73.932 29.6387 74.246 29.6898 74.552C29.7118 74.8359 29.8159 75.1073 29.9895 75.3329C30.1631 75.5586 30.3987 75.7289 30.6674 75.8229C30.755 75.8352 30.8443 75.828 30.9287 75.8018C31.0132 75.7756 31.0909 75.7311 31.1562 75.6714C31.2833 75.5834 31.2833 75.5101 31.2833 75.5052Z" fill="#EB996E"/>
<path d="M46.5928 61.1639C46.0442 60.3032 45.2899 59.5927 44.3981 59.0963C42.5239 57.9297 40.3288 57.3856 38.1267 57.5419C35.9183 57.7122 33.8624 58.734 32.3931 60.3916C31.2707 61.7527 30.5723 63.4131 30.3841 65.1672C30.2011 66.9145 30.3673 68.6807 30.8729 70.3632C31.0293 71.1225 31.4049 71.8192 31.9532 72.3673C32.3198 72.6801 32.9308 72.8561 33.2583 72.5188C33.4428 72.3009 33.5479 72.0269 33.5564 71.7416C33.923 69.2096 34.2652 66.4919 33.1214 64.2043C33.6258 63.325 34.3064 62.5595 35.1206 61.9558C35.5293 61.6564 35.9933 61.4409 36.4858 61.3218C36.9783 61.2026 37.4895 61.1822 37.9899 61.2617C39.4563 61.5598 40.4828 62.8601 41.7194 63.7057C42.611 64.3084 43.6331 64.6905 44.7014 64.8205C45.7697 64.9505 46.8536 64.8248 47.8637 64.4536L46.5928 61.1639Z" fill="#263238"/>
<path d="M42.9217 75.7986C42.8847 76.1019 42.804 76.3983 42.6822 76.6785C42.6227 76.8171 42.5344 76.9415 42.4231 77.0435C42.3119 77.1455 42.1803 77.2226 42.037 77.2699C41.8773 77.3033 41.7118 77.2962 41.5556 77.2492C41.3993 77.2023 41.2573 77.117 41.1425 77.0011C40.9163 76.7643 40.7723 76.4609 40.7319 76.1359C40.683 75.8475 40.7319 75.476 41.0203 75.3831C41.1404 75.3515 41.2667 75.3515 41.3869 75.3831L43.0146 75.6764" fill="#EB996E"/>
<path d="M42.5796 77.1574C42.3132 77.235 42.0339 77.2583 41.7584 77.2258C41.4749 77.18 41.2187 77.0301 41.0398 76.8054C40.9356 76.6675 40.8617 76.5091 40.8229 76.3406C40.7842 76.1722 40.7815 75.9974 40.815 75.8278C40.8323 75.74 40.8602 75.6547 40.8981 75.5736C40.9421 75.5003 40.9323 75.5052 41.0007 75.5003C41.0692 75.4954 41.1718 75.5297 41.2598 75.5443L41.5286 75.5932C41.8757 75.6567 42.1934 75.7105 42.4574 75.7496C42.7412 75.8228 43.0353 75.8476 43.3274 75.8229C43.0642 75.6963 42.7845 75.6074 42.4965 75.559C42.2325 75.4954 41.9246 75.4221 41.5775 75.3488L41.3136 75.2901C41.2152 75.2654 41.1157 75.2459 41.0154 75.2315C40.9368 75.2275 40.8588 75.2462 40.7905 75.2853C40.7331 75.3298 40.6864 75.3866 40.6537 75.4514C40.6125 75.5517 40.5846 75.6568 40.5706 75.7643C40.528 75.9719 40.5326 76.1865 40.5843 76.3922C40.6359 76.5978 40.7331 76.7891 40.8687 76.9521C40.9793 77.0836 41.1149 77.192 41.2676 77.2709C41.4203 77.3497 41.5871 77.3975 41.7584 77.4115C41.9828 77.4333 42.209 77.3945 42.4134 77.2991C42.5258 77.2307 42.5893 77.172 42.5796 77.1574Z" fill="#263238"/>
<path d="M54.4819 68.9213L55.2396 68.716L67.0344 80.1638L76.5856 81.3125C76.5856 81.3125 76.4878 78.4236 72.8951 74.7381C69.6886 71.4533 62.1855 67.5282 59.6437 65.5144C59.3147 65.237 58.9434 65.0142 58.5439 64.8545L54.4819 68.9213Z" fill="#FFBE9D"/>
<path d="M54.4771 63.4515L53.2698 63.1142L50.425 61.7651L47.1891 62.9676C47.1891 62.9676 47.2624 64.0772 48.1129 63.7741L44.7255 64.8935C44.7255 64.8935 44.9993 65.6951 45.1557 65.7489C44.4956 65.8624 43.8298 65.9408 43.1614 65.9835C43.1614 65.9835 43.1614 67.0735 45.1899 67.054C47.2184 67.0344 48.0054 66.6825 48.0054 66.6825L49.6331 67.1175L49.5696 68.0951L47.3504 68.0658L47.4531 69.3073C48.3958 69.5051 49.3488 69.6503 50.3077 69.7424C50.3077 69.7424 53.7293 69.7913 54.658 69.3465C55.5867 68.9016 56.7696 68.2515 56.7696 68.2515L58.544 64.869L54.4771 63.4515Z" fill="#FFBE9D"/>
<path d="M51.422 64.0333C51.422 64.0627 51.2314 63.9649 50.9332 63.8329C50.534 63.6615 50.1498 63.4571 49.7845 63.2219H49.9311L49.7992 63.3099C49.3952 63.568 48.9398 63.7348 48.4647 63.7987C48.103 63.8427 47.8782 63.7987 47.8782 63.7987C48.5014 63.6482 49.1026 63.4182 49.6672 63.1144L49.7894 63.0362L49.8627 62.9873L49.936 63.0362C50.332 63.3148 50.7474 63.525 51.0212 63.701C51.2949 63.8769 51.4464 64.004 51.422 64.0333Z" fill="#EB996E"/>
<path d="M50.3809 65.7491C50.3809 65.7735 50.1609 65.8273 49.8334 65.6904C49.5059 65.5536 49.1393 65.2016 48.675 65.0061H48.7923C48.5849 65.1456 48.3676 65.2697 48.1422 65.3776C47.5681 65.6505 46.9444 65.8035 46.3092 65.8273C46.0484 65.8639 45.7827 65.8336 45.5369 65.7393C46.3941 65.6766 47.2357 65.4769 48.0298 65.1479C48.2463 65.0473 48.4554 64.9313 48.6554 64.8008L48.719 64.7617L48.7727 64.791C49.3006 65.055 49.6086 65.4167 49.897 65.5634C50.1854 65.71 50.3809 65.7149 50.3809 65.7491Z" fill="#EB996E"/>
<path d="M53.4115 66.8095C53.4115 66.8535 53.1622 66.7753 52.776 66.7802C52.2766 66.7896 51.7894 66.9368 51.3683 67.2054C51.0916 67.3862 50.8539 67.6205 50.6693 67.8946L50.64 67.9386H50.596C50.2184 68.0399 49.8284 68.0876 49.4375 68.0804C49.7878 67.9024 50.1639 67.7803 50.552 67.7187L50.4786 67.7724C50.6619 67.4532 50.9182 67.1818 51.2265 66.9806C51.6866 66.6809 52.2341 66.5449 52.7809 66.5944C53.2013 66.6433 53.4261 66.7851 53.4115 66.8095Z" fill="#EB996E"/>
<path d="M56.7695 68.2419C56.7413 68.2704 56.7082 68.2936 56.6718 68.3103L56.3638 68.4814L55.1809 69.1266C54.9013 69.2982 54.6006 69.4329 54.2864 69.5274C53.9086 69.6164 53.5246 69.6768 53.1377 69.7083C52.197 69.796 51.2524 69.8351 50.3076 69.8256L49.0318 69.6985C48.5601 69.6567 48.0925 69.5766 47.6338 69.459H47.5849V69.3954C47.5165 68.9653 47.4432 68.5058 47.365 68.0268L47.3405 67.8948H47.4774L49.589 67.9779L49.4619 68.0903C49.4619 67.7873 49.5059 67.4549 49.5255 67.1127L49.6184 67.2349L47.9858 66.8048H48.0689C47.2766 67.0474 46.4534 67.1742 45.6248 67.1812C45.1951 67.2066 44.7639 67.1837 44.3393 67.1127C44.1077 67.0849 43.8847 67.0082 43.685 66.8877C43.4853 66.7672 43.3134 66.6056 43.1808 66.4137C43.0927 66.2871 43.0357 66.1414 43.0146 65.9885V65.8712H43.1368C43.6257 65.8272 44.1487 65.7832 44.6424 65.7245C44.7646 65.7245 44.8868 65.6952 45.0041 65.6805H45.0823C45.0681 65.6951 45.0579 65.7131 45.0527 65.7329C45.0476 65.7526 45.0477 65.7733 45.053 65.793C45.053 65.837 45.1409 65.8907 45.1214 65.8761C45.0923 65.8629 45.0659 65.8447 45.0432 65.8223C44.9905 65.7688 44.9461 65.7079 44.9112 65.6414C44.799 65.4148 44.701 65.1813 44.6179 64.9424L44.5739 64.8251L44.6961 64.7811L48.1177 63.6716L48.1959 63.8964C48.0586 63.9471 47.911 63.9639 47.7658 63.9453C47.6176 63.917 47.4832 63.8395 47.3845 63.7253C47.2212 63.5124 47.1258 63.2552 47.1108 62.9872V62.8992L47.1988 62.8699L50.4396 61.6772H50.4787H50.5178L53.3577 63.041L54.5455 63.3832L55.5817 63.7498L57.2241 64.3412L58.2555 64.7225C58.3766 64.7618 58.4942 64.8109 58.6074 64.8691C58.4824 64.8485 58.3596 64.8158 58.2408 64.7714C57.9818 64.6834 57.6347 64.571 57.1948 64.4341L55.5378 63.8817L54.5015 63.5298L53.3088 63.2072L50.4542 61.8728H50.5373L47.2281 63.0557L47.3063 62.9432C47.3191 63.1594 47.3956 63.3669 47.5263 63.5396C47.5962 63.6104 47.6861 63.6582 47.784 63.6765C47.8818 63.6949 47.9829 63.6829 48.0737 63.6422L48.152 63.8671L44.7646 65.0109L44.8428 64.8496C44.9175 65.0767 45.0107 65.2974 45.1214 65.5095C45.1423 65.5532 45.1686 65.5943 45.1996 65.6317C45.1868 65.6477 45.1768 65.6659 45.1703 65.6854C45.2191 65.5583 45.1703 65.6512 45.2045 65.6219H45.2387C45.2611 65.6408 45.2766 65.6666 45.2827 65.6952C45.2873 65.716 45.2866 65.7377 45.2806 65.7582C45.2746 65.7787 45.2636 65.7974 45.2485 65.8125L45.2094 65.8418H45.1654H45.0627L44.6864 65.8907C44.1975 65.9494 43.7087 65.9934 43.176 66.0374L43.2884 65.9103C43.3 66.0138 43.3333 66.1137 43.3861 66.2036C43.4997 66.3627 43.6454 66.4963 43.8138 66.5956C43.9822 66.695 44.1695 66.7579 44.3637 66.7803C44.7703 66.8506 45.1839 66.8719 45.5955 66.8439C46.3917 66.8398 47.1833 66.723 47.9467 66.4968H47.9955H48.0298L49.6575 66.9368H49.7552V67.0345C49.7552 67.3718 49.7112 67.6993 49.6917 68.0121V68.1294H49.5793L47.4676 68.0317L47.5849 67.9046C47.6583 68.3934 47.7316 68.8431 47.7951 69.2732L47.7365 69.195C48.1739 69.302 48.6181 69.3788 49.066 69.4248L50.332 69.5665C51.3732 69.5665 52.3166 69.5665 53.1426 69.4883C53.5155 69.4898 53.8881 69.4637 54.2571 69.4101C54.5652 69.3248 54.861 69.2 55.1369 69.0386L56.3394 68.4472L56.6571 68.2956L56.7695 68.2419Z" fill="#EB996E"/>
<path d="M52.6831 64.5611C51.9982 65.563 50.9796 66.2888 49.809 66.6092C49.7797 66.5407 50.4933 66.1986 51.2754 65.6316C52.0575 65.0645 52.6245 64.522 52.6831 64.5611Z" fill="#EB996E"/>
<path d="M76.5024 80.9652L67.0343 80.1636L55.87 84.4162L53.426 85.9119L56.921 97.8387C56.921 97.8387 74.4152 87.5298 75.1582 86.6451C75.8198 85.8746 76.2871 84.9569 76.521 83.9686C76.7549 82.9804 76.7485 81.9505 76.5024 80.9652Z" fill="url(#paint7_linear_3645_2057)"/>
<path d="M25.9603 89.7394L22.7048 91.7581L30.2226 121.35L28.8393 138.39C30.7945 140.081 35.6825 141.533 44.9698 141.005C54.257 140.477 60.4599 136.454 60.4599 136.454L59.5703 118.901L57.4538 99.0999L55.0977 85.5406L47.9417 86.0783L45.1506 84.4261L43.8993 85.0518L42.296 89.495L38.1265 86.4791L33.2385 84.123L31.4544 87.4567L25.9603 89.7394Z" fill="url(#paint8_linear_3645_2057)"/>
<path d="M55.0979 89.0015C55.2026 89.2132 55.2877 89.4341 55.3521 89.6613C55.5085 90.0915 55.7089 90.7172 55.9386 91.4944C56.5351 93.5301 57.0245 95.5957 57.405 97.6826C57.7722 99.7695 58.03 101.874 58.1774 103.988C58.2311 104.804 58.2556 105.455 58.2605 105.914C58.2856 106.15 58.2856 106.387 58.2605 106.623C58.2141 106.391 58.1863 106.155 58.1774 105.919C58.1334 105.43 58.0796 104.775 58.0112 104.003C57.8596 102.39 57.6006 100.166 57.1655 97.7266C56.7305 95.2875 56.2124 93.1123 55.7969 91.5432C55.5965 90.7954 55.4254 90.1746 55.3081 89.6907C55.2131 89.4693 55.1426 89.2382 55.0979 89.0015Z" fill="#263238"/>
<path d="M40.9617 89.2359C40.7231 89.199 40.494 89.116 40.2871 88.9915C39.7083 88.6866 39.2068 88.2536 38.8207 87.7255L38.9967 87.6766C38.8944 89.1341 38.6019 90.572 38.1266 91.9536L38.068 92.11L37.9311 92.0123L37.5889 91.7776C35.9075 90.6192 34.3873 89.5536 33.3021 88.7764L32.0166 87.8428C31.8531 87.7363 31.7023 87.6117 31.5669 87.4713C31.7402 87.5486 31.9042 87.6454 32.0557 87.7597L33.3803 88.6249C34.4997 89.3678 36.0297 90.409 37.7111 91.5577L38.0582 91.7972L37.8627 91.8558C38.3377 90.4969 38.6462 89.0854 38.7816 87.6521V87.3882L38.9331 87.6033C39.2951 88.1226 39.7633 88.5592 40.3067 88.8839C40.7319 89.1283 40.9714 89.2163 40.9617 89.2359Z" fill="#263238"/>
<path d="M47.6533 86.6207C47.1725 87.2631 46.6412 87.8662 46.0647 88.4243L45.9767 88.5221L45.8887 88.4194C45.5604 88.0369 45.206 87.6776 44.828 87.3441C44.6276 87.1681 44.4223 87.0019 44.2219 86.8553L43.9237 86.6402C43.8797 86.606 43.8553 86.6109 43.8651 86.6109C43.8748 86.6109 43.8651 86.6109 43.8211 86.6793C43.6598 87.0948 43.5082 87.4858 43.3665 87.8427C43.2439 88.2104 43.0799 88.5629 42.8777 88.8936C42.9395 88.513 43.0444 88.1408 43.1905 87.784C43.3176 87.4174 43.4545 87.0166 43.5962 86.5962C43.6087 86.5519 43.6304 86.5107 43.6599 86.4753C43.6894 86.4399 43.726 86.4112 43.7673 86.3909C43.8144 86.3738 43.8651 86.3689 43.9147 86.3766C43.9643 86.3843 44.0111 86.4043 44.0508 86.4349C44.1583 86.5082 44.261 86.5767 44.3636 86.6549C44.5738 86.8113 44.784 86.9775 44.9893 87.1437C45.3788 87.4839 45.7385 87.8568 46.0647 88.2581H45.8985C46.4426 87.6701 47.0291 87.1228 47.6533 86.6207Z" fill="#263238"/>
<path d="M45.7177 139.749C48.8531 139.16 52.0833 139.32 55.1452 140.216C58.207 141.112 61.0138 142.718 63.3369 144.905C65.66 147.092 67.4336 149.796 68.5133 152.798C69.593 155.8 69.9481 159.015 69.5497 162.18C69.1514 165.345 68.0109 168.372 66.2211 171.013C64.4313 173.654 62.0428 175.834 59.2504 177.377C56.458 178.92 53.3406 179.781 50.1522 179.891C46.9638 180 43.7947 179.355 40.903 178.007C37.0137 176.198 33.7994 173.201 31.7236 169.447C29.6479 165.693 28.818 161.377 29.3535 157.121C29.8891 152.866 31.7625 148.89 34.7036 145.767C37.6447 142.645 41.5014 140.538 45.7177 139.749ZM52.9373 178.212C57.3622 177.379 61.3439 174.993 64.1646 171.484C66.9854 167.974 68.4596 163.572 68.3215 159.072C68.1834 154.571 66.4421 150.268 63.4115 146.938C60.3808 143.608 56.2603 141.471 51.7927 140.911C47.325 140.35 42.8043 141.405 39.0454 143.884C35.2865 146.362 32.5368 150.102 31.292 154.429C30.0471 158.756 30.3891 163.386 32.2562 167.483C34.1232 171.58 37.3926 174.876 41.4749 176.775C45.0517 178.44 49.0602 178.943 52.9373 178.212Z" fill="#455A64"/>
<path d="M49.4227 180.881C44.0904 180.895 38.9468 178.909 35.0067 175.316C31.0665 171.723 28.6161 166.784 28.1388 161.473C27.6615 156.162 29.1921 150.865 32.4284 146.627C35.6648 142.389 40.372 139.518 45.6212 138.58C50.8704 137.643 56.2805 138.706 60.784 141.561C65.2875 144.417 68.5574 148.856 69.9484 154.004C71.3395 159.151 70.7508 164.634 68.2984 169.368C65.846 174.103 61.7081 177.747 56.701 179.581C54.3703 180.439 51.9064 180.879 49.4227 180.881ZM49.4618 141.719C45.3813 141.718 41.4227 143.11 38.2403 145.664C35.0579 148.218 32.8423 151.781 31.9595 155.765C31.0768 159.749 31.5799 163.915 33.3855 167.575C35.1912 171.234 38.1914 174.168 41.8903 175.891C45.2789 177.476 49.0816 177.952 52.7564 177.25C55.5538 176.72 58.1855 175.533 60.4349 173.788C62.6843 172.042 64.4871 169.788 65.6949 167.21C66.9636 164.479 67.5244 161.473 67.3257 158.469C67.127 155.465 66.1751 152.559 64.5579 150.019C62.9407 147.48 60.7101 145.388 58.0719 143.938C55.4336 142.487 52.4726 141.724 49.4618 141.719Z" fill="#455A64"/>
<path d="M0.190698 139.861L0.371554 139.421C0.75282 138.473 1.59356 137.925 2.24855 138.189L31.8406 150.233C31.9873 150.292 32.0362 150.507 31.9531 150.722L30.6919 153.821C30.604 154.031 30.4182 154.154 30.2716 154.095L0.6795 142.051C0.0245048 141.787 -0.195456 140.804 0.190698 139.861Z" fill="#455A64"/>
<path d="M27.8276 105.786L24.2691 117.562L26.0532 141.557L20.8035 142.241C20.8035 142.241 14.7912 121.79 15.3875 118.119C15.9839 114.448 18.4181 103.626 18.4181 103.626L27.8276 105.786Z" fill="#FFBE9D"/>
<path d="M26.0433 141.391L28.4873 145.561L30.0124 149.471L27.7053 148.596C27.7053 148.596 26.7277 153.318 26.3317 153.445C25.9358 153.572 24.836 153.186 24.9484 152.282C24.7847 152.439 24.5877 152.558 24.372 152.629C24.1562 152.7 23.9272 152.722 23.702 152.692C23.0079 152.546 22.8466 152.101 22.9199 151.226C22.9199 151.226 22.1134 151.886 21.6295 151.475C21.4814 151.329 21.3661 151.154 21.2911 150.96C21.2161 150.766 21.1831 150.558 21.1944 150.351C21.1944 150.351 20.1435 150.444 19.9969 149.896C19.8426 149.006 19.8228 148.099 19.9382 147.203C20.0604 146.607 20.5688 144.182 20.5688 144.182L20.8034 142.227L26.0433 141.391Z" fill="#FFBE9D"/>
<path d="M25.4665 149.54C25.2742 149.964 25.1505 150.416 25.0999 150.879C24.9724 151.328 24.9147 151.795 24.9289 152.262C25.2431 151.387 25.4179 150.469 25.447 149.54H25.4665Z" fill="#EB996E"/>
<path d="M23.3257 148.992C23.0377 149.683 22.8882 150.423 22.8857 151.172C23.0627 150.841 23.1739 150.479 23.2132 150.106C23.3192 149.745 23.3573 149.367 23.3257 148.992Z" fill="#EB996E"/>
<path d="M21.5366 148.488C21.4231 148.785 21.3588 149.099 21.346 149.417C21.2629 149.906 21.1309 150.316 21.1945 150.341C21.4133 150.094 21.5424 149.781 21.5611 149.451C21.6429 149.134 21.6344 148.801 21.5366 148.488Z" fill="#EB996E"/>
<path d="M27.8862 147.218C27.6972 147.635 27.5656 148.075 27.4951 148.528C27.3528 148.963 27.2689 149.415 27.2458 149.872C27.476 149.471 27.6317 149.033 27.7053 148.577C27.8495 148.139 27.9108 147.678 27.8862 147.218Z" fill="#EB996E"/>
<path d="M15.0991 126.033C15.0991 125.632 13.4567 120.035 13.9553 117.137C14.4539 114.238 20.4173 94.6517 21.2189 93.2538C21.8512 92.3127 22.733 91.5663 23.7656 91.0981C24.9164 91.7203 25.9299 92.5683 26.7454 93.5913C27.5609 94.6142 28.1617 95.7912 28.5118 97.0518C29.7143 101.348 29.7143 106.745 29.7143 106.745L24.9289 118.637L25.5008 125.388L15.0991 126.033Z" fill="url(#paint9_linear_3645_2057)"/>
<path d="M29.4065 106.354C29.3576 106.354 29.4505 105.474 29.4065 104.066C29.3765 103.247 29.2965 102.431 29.167 101.622C29.004 100.63 28.7737 99.6502 28.4778 98.6894C28.1648 97.7299 27.7876 96.7925 27.3486 95.8837C26.9852 95.1443 26.5771 94.4277 26.1266 93.7378C25.3543 92.5598 24.7775 91.8999 24.8117 91.8706C24.9734 91.9981 25.118 92.146 25.2419 92.3105C25.6134 92.7328 25.9594 93.1767 26.2782 93.6401C26.7546 94.3229 27.1826 95.0383 27.5588 95.781C28.0156 96.6939 28.4029 97.64 28.7173 98.6112C29.0195 99.5883 29.2482 100.587 29.4016 101.598C29.5187 102.422 29.5808 103.253 29.5873 104.086C29.595 104.647 29.5673 105.209 29.5043 105.767C29.4898 105.965 29.4571 106.162 29.4065 106.354Z" fill="#263238"/>
<path d="M29.0984 108.837C28.9791 109.339 28.8155 109.83 28.6096 110.303C28.2626 111.203 27.7396 112.43 27.1432 113.769L25.5986 117.191C25.4099 117.678 25.1878 118.151 24.9338 118.608C25.0532 118.106 25.2168 117.615 25.4226 117.142C25.7697 116.242 26.2927 115.015 26.889 113.676L28.4337 110.254C28.6237 109.768 28.8458 109.294 29.0984 108.837Z" fill="#263238"/>
<path d="M25.1928 119.097C24.139 118.531 23.0404 118.054 21.9081 117.669C20.7502 117.367 19.5701 117.158 18.3789 117.044C18.7292 116.971 19.0887 116.953 19.4445 116.99C21.1693 117.072 22.8477 117.575 24.3325 118.456C24.6526 118.621 24.9432 118.837 25.1928 119.097Z" fill="#263238"/>
<path d="M56.4078 152.78C56.4518 152.834 52.6 156.202 47.8 160.312C43 164.423 39.0749 167.703 39.0309 167.644C38.9869 167.586 42.8387 164.223 47.6387 160.112C52.4387 156.001 56.3638 152.726 56.4078 152.78Z" fill="white"/>
<path d="M61.3643 152.78C61.4132 152.834 58.1675 155.713 54.1154 159.178C50.0632 162.644 46.7491 165.435 46.7003 165.381C46.6514 165.328 49.9019 162.449 53.9492 158.983C57.9965 155.517 61.3203 152.726 61.3643 152.78Z" fill="white"/>
<path d="M68.6621 159.648C68.6621 159.648 68.6621 159.54 68.6376 159.335C68.6132 159.129 68.6034 158.817 68.579 158.426C68.579 158.22 68.5496 158 68.535 157.751C68.5203 157.502 68.4568 157.238 68.4128 156.949C68.3688 156.661 68.3199 156.348 68.2661 156.016C68.2124 155.683 68.0999 155.336 68.0168 154.965C67.5656 153.17 66.8472 151.453 65.8857 149.871C64.6284 147.767 62.9771 145.925 61.0221 144.446L60.196 143.83C59.9027 143.639 59.5997 143.463 59.2966 143.278C58.9936 143.092 58.6954 142.891 58.363 142.74L57.3854 142.251L56.8966 142.012L56.3638 141.816L55.2884 141.425C54.9218 141.303 54.5406 141.229 54.1642 141.122C53.7835 141.013 53.3967 140.926 53.0057 140.863C52.2082 140.715 51.4014 140.622 50.591 140.584C50.1805 140.584 49.765 140.53 49.3446 140.535L48.0835 140.599C47.8684 140.599 47.6533 140.599 47.4432 140.643L46.8077 140.741C46.3825 140.809 45.9474 140.863 45.5222 140.951C44.6578 141.144 43.807 141.394 42.9755 141.699C42.1223 142.005 41.2911 142.369 40.4875 142.789C40.0818 143.009 39.6956 143.278 39.2948 143.502C39.0993 143.625 38.894 143.732 38.7083 143.874L38.1461 144.294C36.5889 145.416 35.2252 146.785 34.1086 148.346L33.6687 148.938L33.2386 149.573L32.8573 150.204C32.7231 150.414 32.6039 150.632 32.5005 150.859L31.8553 152.203C31.6793 152.692 31.5082 153.142 31.3371 153.616C30.7103 155.562 30.3808 157.593 30.3595 159.638C30.3832 161.684 30.7127 163.716 31.3371 165.665C31.5131 166.153 31.6842 166.608 31.8553 167.077C32.0263 167.547 32.2903 167.977 32.5054 168.422L32.6667 168.759L32.8622 169.077L33.2386 169.712L33.6247 170.338L34.0647 170.929C34.6366 171.707 35.2604 172.445 35.9319 173.138C36.622 173.804 37.3551 174.422 38.1266 174.991L38.6887 175.411C38.8794 175.553 39.0846 175.661 39.2802 175.788C39.681 176.022 40.0671 176.277 40.468 176.497C42.062 177.324 43.7557 177.943 45.5075 178.339C45.9328 178.427 46.3678 178.476 46.7931 178.545L47.4285 178.647C47.6436 178.672 47.8538 178.672 48.0688 178.686L49.3299 178.75C49.7503 178.75 50.1658 178.716 50.5764 178.706C51.3868 178.667 52.1936 178.572 52.9911 178.422C53.3825 178.362 53.7695 178.275 54.1495 178.163C54.5259 178.061 54.9121 177.982 55.2738 177.86L56.3491 177.469L56.8819 177.279L57.3707 177.039L58.3483 176.55C58.6687 176.388 58.9803 176.208 59.2819 176.013C59.585 175.827 59.8881 175.651 60.1813 175.46L61.0074 174.844C62.9636 173.367 64.6151 171.524 65.871 169.419C66.8325 167.837 67.551 166.12 68.0022 164.325C68.0853 163.954 68.2124 163.612 68.2515 163.279C68.2906 162.947 68.3541 162.634 68.3981 162.341C68.4421 162.048 68.4959 161.788 68.5203 161.539C68.5447 161.29 68.5496 161.05 68.5643 160.87C68.5643 160.474 68.6083 160.171 68.623 159.955C68.6376 159.74 68.6474 159.648 68.6474 159.648C68.6474 159.648 68.6474 159.75 68.6474 159.955C68.6474 160.161 68.6474 160.478 68.6132 160.874C68.6132 161.075 68.6132 161.3 68.5839 161.544C68.5545 161.788 68.5154 162.062 68.4763 162.351L68.3394 163.294C68.3003 163.631 68.1781 163.973 68.095 164.35C67.6648 166.162 66.9557 167.897 65.9932 169.492C64.7353 171.624 63.0752 173.492 61.1052 174.991L60.2742 175.612C59.9809 175.807 59.673 175.983 59.3699 176.174C59.0669 176.365 58.7638 176.57 58.4314 176.721L57.4538 177.21L56.965 177.455L56.4273 177.65L55.3422 178.051C54.9756 178.173 54.5894 178.256 54.2033 178.359C53.8195 178.471 53.4294 178.561 53.0351 178.628C52.2283 178.782 51.4115 178.878 50.591 178.916C50.1756 178.916 49.7552 178.975 49.3299 178.97L48.0346 178.901C47.8244 178.901 47.6045 178.901 47.3894 178.857L46.7442 178.76C46.314 178.691 45.879 178.642 45.444 178.554C44.57 178.359 43.7096 178.108 42.868 177.802C42.0018 177.49 41.1575 177.121 40.3409 176.697C39.9352 176.477 39.5441 176.208 39.1384 175.978C38.938 175.851 38.7278 175.744 38.5372 175.602L37.9702 175.177C37.1974 174.606 36.4641 173.984 35.7755 173.314C35.093 172.614 34.4594 171.868 33.8789 171.081L33.4292 170.484L33.0431 169.849L32.652 169.209L32.4565 168.886L32.2903 168.549C32.0752 168.094 31.8553 167.639 31.6353 167.185L31.1074 165.753C29.7712 161.789 29.7712 157.496 31.1074 153.533C31.2785 153.044 31.4544 152.555 31.6304 152.1L32.2903 150.737C32.3917 150.508 32.511 150.287 32.6471 150.077L33.0382 149.436L33.4292 148.801L33.874 148.205C34.4558 147.417 35.0894 146.669 35.7706 145.966C36.4592 145.296 37.1925 144.674 37.9653 144.104L38.5372 143.678C38.7229 143.537 38.9331 143.429 39.1335 143.302C39.5392 143.062 39.9303 142.813 40.336 142.583C41.1526 142.159 41.9969 141.79 42.8631 141.479C43.7114 141.177 44.5784 140.93 45.4586 140.741C45.8937 140.653 46.3287 140.599 46.7588 140.53L47.4041 140.433C47.6191 140.403 47.8342 140.408 48.0493 140.394L49.3299 140.33C49.7503 140.33 50.1707 140.364 50.591 140.379C51.4111 140.422 52.2275 140.518 53.0351 140.667C53.4293 140.734 53.8194 140.824 54.2033 140.936C54.5846 141.044 54.9707 141.122 55.3422 141.244L56.4273 141.645L56.9601 141.84L57.4734 142.085L58.451 142.574C58.7883 142.725 59.0815 142.945 59.3944 143.121C59.7072 143.297 60.0054 143.488 60.2987 143.683L61.1296 144.309C63.1001 145.806 64.7603 147.672 66.0176 149.803C66.9794 151.4 67.6883 153.136 68.1195 154.95C68.2026 155.322 68.3248 155.664 68.3639 156.001C68.403 156.338 68.4568 156.651 68.5008 156.944C68.5447 157.238 68.5887 157.502 68.6083 157.751C68.6278 158 68.6083 158.24 68.6376 158.426C68.6376 158.821 68.6376 159.125 68.6718 159.34C68.7061 159.555 68.6621 159.648 68.6621 159.648Z" fill="#263238"/>
<path d="M61.5891 169.844C61.7376 169.617 61.9009 169.4 62.0779 169.194C62.5222 168.609 62.9303 167.996 63.2999 167.361C64.5367 165.271 65.3079 162.939 65.561 160.524C65.8141 158.109 65.543 155.668 64.7663 153.367C64.5322 152.671 64.2597 151.989 63.95 151.324C63.8203 151.086 63.7076 150.839 63.6128 150.585C63.6128 150.585 63.6616 150.639 63.735 150.757C63.8083 150.874 63.9158 151.045 64.038 151.28C64.3857 151.933 64.6847 152.611 64.9325 153.308C65.7702 155.624 66.0734 158.099 65.8195 160.549C65.5656 162.999 64.761 165.359 63.4661 167.454C63.078 168.085 62.6434 168.686 62.1659 169.253C61.9997 169.458 61.8531 169.6 61.7602 169.702C61.6673 169.805 61.5891 169.854 61.5891 169.844Z" fill="#263238"/>
<path d="M60.5577 171.604C60.5919 171.663 60.4404 171.814 60.2204 171.941C60.0005 172.068 59.7903 172.122 59.7316 172.058C59.673 171.995 59.8489 171.848 60.0689 171.721C60.2889 171.594 60.5235 171.54 60.5577 171.604Z" fill="#263238"/>
<path d="M35.355 167.874C35.3075 167.802 35.2682 167.725 35.2377 167.645C35.1693 167.488 35.0617 167.263 34.9493 166.96C34.623 166.112 34.3647 165.239 34.177 164.35C33.5338 161.403 33.6088 158.344 34.3957 155.432C35.1826 152.52 36.6583 149.84 38.6984 147.618C39.311 146.947 39.9745 146.325 40.683 145.756C40.9274 145.551 41.1375 145.409 41.2744 145.311C41.3414 145.255 41.4153 145.207 41.4944 145.169C41.2564 145.402 41.0068 145.622 40.7465 145.829C40.0672 146.424 39.4271 147.063 38.8304 147.741C36.8494 149.97 35.4137 152.629 34.6366 155.508C33.8596 158.387 33.7625 161.407 34.353 164.33C34.525 165.216 34.7552 166.09 35.0422 166.946C35.1626 167.249 35.2671 167.559 35.355 167.874Z" fill="white"/>
<path d="M46.7002 143.913C46.3454 144.072 45.9595 144.148 45.5711 144.138C45.1888 144.213 44.7945 144.202 44.4175 144.104C44.7741 143.951 45.1589 143.877 45.5466 143.884C45.9288 143.811 46.3222 143.821 46.7002 143.913Z" fill="white"/>
</g>
<defs>
<linearGradient id="paint0_linear_3645_2057" x1="34.1815" y1="-0.000976563" x2="34.1815" y2="34.5982" gradientUnits="userSpaceOnUse">
<stop stop-color="#FEAD8F"/>
<stop offset="1" stop-color="#FF956E"/>
</linearGradient>
<linearGradient id="paint1_linear_3645_2057" x1="100.382" y1="27.0811" x2="100.382" y2="61.3375" gradientUnits="userSpaceOnUse">
<stop stop-color="#5989DE"/>
<stop offset="1" stop-color="#4070C5"/>
</linearGradient>
<linearGradient id="paint2_linear_3645_2057" x1="99.0066" y1="154.809" x2="99.0066" y2="179.38" gradientUnits="userSpaceOnUse">
<stop stop-color="#FFB171"/>
<stop offset="1" stop-color="#FF943D"/>
</linearGradient>
<linearGradient id="paint3_linear_3645_2057" x1="89.9101" y1="197.062" x2="89.9101" y2="208.406" gradientUnits="userSpaceOnUse">
<stop stop-color="#73E18B"/>
<stop offset="1" stop-color="#67CC80"/>
</linearGradient>
<linearGradient id="paint4_linear_3645_2057" x1="94.7193" y1="207.502" x2="94.7193" y2="211.978" gradientUnits="userSpaceOnUse">
<stop stop-color="#73E18B"/>
<stop offset="1" stop-color="#67CC80"/>
</linearGradient>
<linearGradient id="paint5_linear_3645_2057" x1="85.4368" y1="206.918" x2="85.4368" y2="213.22" gradientUnits="userSpaceOnUse">
<stop stop-color="#73E18B"/>
<stop offset="1" stop-color="#67CC80"/>
</linearGradient>
<linearGradient id="paint6_linear_3645_2057" x1="19.1611" y1="171.11" x2="60.8706" y2="171.11" gradientUnits="userSpaceOnUse">
<stop stop-color="#6987D9"/>
<stop offset="1" stop-color="#526FC0"/>
</linearGradient>
<linearGradient id="paint7_linear_3645_2057" x1="53.4114" y1="89.0011" x2="76.6881" y2="89.0011" gradientUnits="userSpaceOnUse">
<stop stop-color="#FFB171"/>
<stop offset="1" stop-color="#FF943D"/>
</linearGradient>
<linearGradient id="paint8_linear_3645_2057" x1="22.7048" y1="112.62" x2="60.4941" y2="112.62" gradientUnits="userSpaceOnUse">
<stop stop-color="#FFB171"/>
<stop offset="1" stop-color="#FF943D"/>
</linearGradient>
<linearGradient id="paint9_linear_3645_2057" x1="13.8624" y1="108.563" x2="29.7143" y2="108.563" gradientUnits="userSpaceOnUse">
<stop stop-color="#FFB171"/>
<stop offset="1" stop-color="#FF943D"/>
</linearGradient>
<clipPath id="clip0_3645_2057">
<rect width="161.305" height="220" fill="white"/>
</clipPath>
</defs>
</svg>
