<svg width="32" height="24" viewBox="0 0 32 24" fill="none" xmlns="http://www.w3.org/2000/svg">
<path d="M16 0.465088C13.6193 0.465088 11.235 1.36965 9.4186 3.18602C7.87702 4.7276 6.9891 6.67649 6.7558 8.68602C2.96517 9.03017 0 12.2127 0 16.093C0 20.203 3.33187 23.5349 7.44186 23.5349H25.6744C29.1788 23.5349 32 20.7136 32 17.2093C32 13.7049 29.1788 10.8837 25.6744 10.8837H25.2326C25.5604 8.14717 24.6698 5.28604 22.5697 3.18602C20.7535 1.36965 18.3807 0.465088 16 0.465088ZM16 8.27904C16.1975 8.2783 16.3362 8.31539 16.5 8.46509L20.593 12.186C20.8842 12.4473 20.9377 12.9571 20.6512 13.2441C20.3748 13.521 19.8819 13.5544 19.593 13.2906L16.7442 10.6976V18.6976C16.7442 19.1087 16.4111 19.4418 16 19.4418C15.5889 19.4418 15.2558 19.1087 15.2558 18.6976V10.6976L12.407 13.2906C12.1181 13.5544 11.6114 13.5341 11.3488 13.2441C11.0863 12.9541 11.1011 12.4522 11.407 12.186L15.5 8.46509C15.6063 8.36767 15.801 8.28276 16 8.27904Z" fill="#646464"/>
</svg>
